<?xml version="1.0" encoding="UTF-8"?>
<!DOCTYPE svg PUBLIC "-//W3C//DTD SVG 1.1//EN" "http://www.w3.org/Graphics/SVG/1.1/DTD/svg11.dtd">
<!-- Creator: CorelDRAW X7 -->
<svg xmlns="http://www.w3.org/2000/svg" xml:space="preserve" width="190.5mm" height="338.667mm" version="1.1" style="shape-rendering:geometricPrecision; text-rendering:geometricPrecision; image-rendering:optimizeQuality; fill-rule:evenodd; clip-rule:evenodd"
viewBox="0 0 19050 33867"
 xmlns:xlink="http://www.w3.org/1999/xlink">
 <defs>
  <style type="text/css">
   <![CDATA[
    .fil15 {fill:#006A5E;fill-rule:nonzero}
    .fil6 {fill:#1B7271;fill-rule:nonzero}
    .fil9 {fill:#4D3E37;fill-rule:nonzero}
    .fil2 {fill:#541124;fill-rule:nonzero}
    .fil5 {fill:#6B604E;fill-rule:nonzero}
    .fil3 {fill:#6EBA6D;fill-rule:nonzero}
    .fil0 {fill:#75D1B0;fill-rule:nonzero}
    .fil16 {fill:#7EC0A2;fill-rule:nonzero}
    .fil8 {fill:#BEC2B0;fill-rule:nonzero}
    .fil4 {fill:#C6DD9F;fill-rule:nonzero}
    .fil13 {fill:#D3632B;fill-rule:nonzero}
    .fil14 {fill:#DEA518;fill-rule:nonzero}
    .fil11 {fill:#E2E7C7;fill-rule:nonzero}
    .fil1 {fill:#E9EFCA;fill-rule:nonzero}
    .fil7 {fill:#F3955E;fill-rule:nonzero}
    .fil12 {fill:#FFFBDA;fill-rule:nonzero}
    .fil10 {fill:white;fill-rule:nonzero}
   ]]>
  </style>
 </defs>
 <g id="Capa_x0020_1">
  <metadata id="CorelCorpID_0Corel-Layer"/>
  <polygon class="fil0" points="0,33867 19050,33867 19050,0 0,0 "/>
  <g id="_215621964224">
   <path class="fil1" d="M5311 10850c0,72 -34,129 -77,129 -42,0 -76,-57 -76,-129l0 -5385c0,-71 34,-129 76,-129 43,0 77,58 77,129l0 5385z"/>
   <path class="fil2" d="M5234 11005c-57,0 -102,-68 -102,-155l0 -5385c0,-87 45,-155 102,-155 58,0 103,68 103,155l0 5385c0,87 -45,155 -103,155zm0 -5643c-24,0 -50,44 -50,103l0 5385c0,59 26,103 50,103 25,0 51,-44 51,-103l0 -5385c0,-59 -26,-103 -51,-103z"/>
   <path class="fil3" d="M6126 4925c43,-54 67,-113 67,-175 0,-262 -429,-475 -959,-475 -529,0 -958,213 -958,475 0,62 24,121 67,175 -255,118 -415,287 -415,474 0,358 585,648 1306,648 722,0 1307,-290 1307,-648 0,-187 -160,-356 -415,-474z"/>
   <path class="fil2" d="M5234 6073c-353,0 -685,-68 -935,-192 -256,-127 -397,-299 -397,-482 0,-186 142,-357 401,-484 -35,-53 -53,-108 -53,-165 0,-281 433,-501 984,-501 552,0 985,220 985,501 0,57 -18,112 -53,165 259,127 401,298 401,484 0,183 -141,355 -397,482 -250,124 -583,192 -936,192zm0 -1772c-514,0 -932,201 -932,449 0,54 21,108 61,159 5,6 7,14 5,22 -2,8 -7,14 -14,17 -254,118 -400,282 -400,451 0,343 574,622 1280,622 707,0 1281,-279 1281,-622 0,-169 -146,-333 -400,-451 -7,-3 -12,-9 -14,-17 -2,-8 0,-16 5,-22 40,-51 61,-105 61,-159 0,-248 -418,-449 -933,-449z"/>
   <path class="fil1" d="M13218 7507c0,30 -35,55 -77,55 -42,0 -77,-25 -77,-55l0 -2302c0,-30 35,-55 77,-55 42,0 77,25 77,55l0 2302z"/>
   <path class="fil2" d="M13141 7588c-58,0 -103,-36 -103,-81l0 -2302c0,-45 45,-81 103,-81 58,0 103,36 103,81l0 2302c0,45 -45,81 -103,81zm0 -2412c-29,0 -51,15 -51,29l0 2302c0,14 22,29 51,29 29,0 51,-15 51,-29l0 -2302c0,-14 -22,-29 -51,-29z"/>
   <path class="fil4" d="M14033 4738c43,-54 66,-112 66,-174 0,-263 -429,-476 -958,-476 -529,0 -958,213 -958,476 0,62 24,120 67,174 -256,119 -416,287 -416,474 0,359 585,649 1307,649 722,0 1307,-290 1307,-649 0,-187 -160,-355 -415,-474z"/>
   <path class="fil2" d="M13141 5887c-353,0 -685,-68 -936,-193 -256,-127 -397,-298 -397,-482 0,-185 143,-356 402,-484 -35,-52 -53,-107 -53,-164 0,-281 432,-502 984,-502 552,0 984,221 984,502 0,57 -17,112 -53,164 260,128 402,299 402,484 0,184 -141,355 -397,482 -251,125 -583,193 -936,193zm0 -1773c-514,0 -932,202 -932,450 0,54 20,107 61,158 5,7 7,15 5,22 -2,8 -7,15 -15,18 -254,118 -400,282 -400,450 0,344 575,623 1281,623 706,0 1281,-279 1281,-623 0,-168 -146,-332 -400,-450 -8,-3 -13,-10 -15,-18 -2,-7 0,-15 5,-22 41,-51 61,-104 61,-158 0,-248 -418,-450 -932,-450z"/>
   <path class="fil1" d="M3030 10903c0,42 -60,76 -133,76 -74,0 -134,-34 -134,-76l0 -3209c0,-43 60,-77 134,-77 73,0 133,34 133,77l0 3209z"/>
   <path class="fil2" d="M2897 11005c-90,0 -160,-45 -160,-102l0 -3209c0,-58 70,-103 160,-103 89,0 159,45 159,103l0 3209c0,57 -70,102 -159,102zm0 -3362c-62,0 -108,27 -108,51l0 3209c0,24 46,50 108,50 61,0 107,-26 107,-50l0 -3209c0,-24 -46,-51 -107,-51z"/>
   <path class="fil4" d="M5061 6858c0,-226 -317,-415 -742,-464 -55,-167 -240,-313 -501,-411 24,-41 37,-85 37,-131 0,-263 -429,-476 -958,-476 -530,0 -959,213 -959,476 0,80 40,155 110,221 -202,114 -325,264 -325,428 0,95 42,185 116,267 -280,119 -458,295 -458,492 0,201 184,380 472,499 -5,20 -8,41 -8,62 0,263 429,476 958,476 268,0 510,-55 684,-143 19,0 39,1 58,1 722,0 1307,-291 1307,-649 0,-102 -48,-199 -133,-284 209,-88 342,-218 342,-364z"/>
   <path class="fil2" d="M2803 8323c-552,0 -984,-221 -984,-502 0,-15 1,-31 4,-46 -298,-128 -468,-315 -468,-515 0,-193 160,-375 441,-502 -66,-82 -99,-168 -99,-257 0,-160 109,-313 309,-434 -61,-66 -94,-140 -94,-215 0,-281 433,-502 985,-502 552,0 984,221 984,502 0,40 -9,79 -27,117 253,101 424,242 484,402 442,54 749,253 749,487 0,143 -118,278 -324,373 76,86 115,179 115,275 0,184 -141,355 -397,482 -251,124 -583,193 -936,193 -18,0 -35,0 -52,-1 -185,92 -429,143 -690,143zm94 -2921c-514,0 -933,202 -933,450 0,70 34,138 102,202 6,6 9,14 8,22 -1,8 -6,15 -13,19 -201,114 -312,258 -312,406 0,86 37,170 109,249 6,6 8,15 6,23 -1,8 -7,15 -15,19 -281,119 -442,290 -442,468 0,183 166,356 456,475 12,5 18,18 15,31 -5,19 -7,37 -7,55 0,248 418,450 932,450 255,0 494,-50 672,-140 4,-2 8,-3 13,-3 19,0 38,1 57,1 706,0 1281,-280 1281,-623 0,-92 -42,-182 -125,-266 -6,-6 -9,-15 -7,-24 2,-8 7,-15 15,-18 207,-87 326,-211 326,-340 0,-206 -302,-390 -719,-438 -10,-1 -18,-8 -22,-17 -52,-157 -224,-297 -485,-395 -7,-3 -13,-9 -16,-16 -2,-7 -2,-15 2,-22 23,-39 34,-78 34,-118 0,-248 -418,-450 -932,-450z"/>
   <path class="fil2" d="M3508 8906c-2,0 -4,0 -7,0 -305,-8 -488,-577 -496,-602 -4,-13 3,-28 17,-32 14,-5 28,3 33,17 1,5 180,558 448,565 185,5 384,-262 575,-770 5,-14 20,-21 34,-15 13,5 20,20 15,33 -201,534 -409,804 -619,804z"/>
   <path class="fil5" d="M10260 10948c0,18 -14,31 -31,31l-1384 0c-17,0 -31,-13 -31,-31l0 -3178c0,-17 14,-31 31,-31l1384 0c17,0 31,14 31,31l0 3178z"/>
   <path class="fil2" d="M10229 11005l-1384 0c-32,0 -57,-25 -57,-57l0 -3178c0,-31 25,-57 57,-57l1384 0c31,0 57,26 57,57l0 3178c0,32 -26,57 -57,57zm-1384 -3240c-3,0 -5,2 -5,5l0 3178c0,3 2,5 5,5l1384 0c3,0 5,-2 5,-5l0 -3178c0,-3 -2,-5 -5,-5l-1384 0z"/>
   <path class="fil3" d="M12390 6330c0,-222 -356,-402 -800,-409 72,-61 114,-132 114,-208 0,-2 0,-4 0,-6 389,-33 686,-201 686,-404 0,-226 -370,-410 -826,-410 -21,0 -41,1 -62,2 126,-72 202,-166 202,-268 0,-227 -370,-410 -826,-410 -219,0 -418,42 -565,111 -54,-8 -111,-12 -171,-12 -1,0 -1,0 -2,0 1,-10 2,-20 2,-29 0,-166 -271,-301 -605,-301 -291,0 -534,102 -592,238 -111,-63 -274,-102 -454,-102 -335,0 -606,134 -606,300 0,22 5,44 14,64 -414,22 -737,196 -737,407 0,42 13,82 36,120 -366,42 -639,205 -639,400 0,226 369,409 826,409 32,0 65,-1 97,-3 -62,58 -97,124 -97,193 0,6 0,12 0,18 0,0 0,0 0,0 -457,0 -826,183 -826,409 0,227 369,410 826,410 32,0 65,-1 97,-3 -38,35 -65,72 -81,112 -6,0 -11,0 -16,0 -457,0 -826,183 -826,410 0,226 369,410 826,410 32,0 65,-1 97,-3 -62,57 -97,123 -97,192 0,227 369,410 825,410 457,0 826,-183 826,-410 67,0 132,-4 194,-11 36,209 390,374 822,374 344,0 639,-105 763,-253 21,1 42,1 63,1 456,0 826,-183 826,-410 0,-2 0,-4 0,-6 389,-33 686,-201 686,-404 0,-208 -313,-379 -718,-406 21,-35 32,-73 32,-112 0,-2 0,-4 0,-6 389,-33 686,-201 686,-404zm-3988 -719c0,1 0,2 0,3 -1,0 -2,-1 -2,-1 1,0 1,-1 2,-2z"/>
   <path class="fil2" d="M8210 8403c-477,0 -851,-191 -851,-436 0,-56 21,-112 61,-164 -12,0 -24,1 -35,1 -478,0 -852,-192 -852,-436 0,-245 374,-436 851,-436 9,-20 21,-39 36,-57 -12,0 -24,0 -35,0 -478,0 -852,-191 -852,-436 0,-240 361,-428 826,-435 2,-54 23,-107 61,-156 -12,0 -24,0 -35,0 -478,0 -852,-191 -852,-435 0,-199 255,-369 625,-421 -15,-32 -22,-65 -22,-99 0,-218 310,-400 728,-431 -3,-13 -5,-26 -5,-40 0,-183 277,-326 632,-326 166,0 325,33 442,92 81,-135 322,-228 604,-228 354,0 631,143 631,327 0,1 0,2 0,3 48,1 95,5 141,11 156,-71 358,-110 569,-110 478,0 852,191 852,436 0,86 -49,170 -140,241 465,6 826,195 826,435 0,210 -288,388 -687,428 -4,58 -31,114 -77,166 433,22 764,207 764,433 0,210 -288,388 -687,428 -2,24 -7,48 -17,71 410,36 704,214 704,429 0,211 -288,388 -687,428 -18,236 -385,418 -851,418 -16,0 -33,0 -51,-1 -138,154 -439,253 -775,253 -428,0 -782,-158 -843,-372 -49,6 -98,9 -148,9 -25,232 -390,410 -851,410zm-728 -654c10,0 19,6 24,15 4,11 1,22 -7,30 -59,54 -88,113 -88,173 0,212 358,384 799,384 442,0 800,-172 800,-384 0,-14 12,-26 26,-26 64,0 128,-3 190,-11 14,-1 27,8 29,22 35,197 385,352 797,352 328,0 619,-96 743,-244 5,-6 13,-9 21,-9 24,1 43,1 62,1 441,0 800,-172 800,-384l0 -5c-1,-14 10,-25 23,-27 378,-32 663,-194 663,-378 0,-191 -298,-354 -693,-380 -9,0 -17,-6 -22,-13 -4,-8 -4,-18 1,-26 18,-32 28,-66 28,-99l0 -5c-1,-14 10,-26 23,-27 378,-32 663,-194 663,-378 0,-205 -348,-377 -774,-383 -11,-1 -21,-7 -24,-18 -4,-10 -1,-21 7,-28 69,-58 105,-123 105,-188l0 -5c-1,-14 10,-26 23,-27 378,-32 663,-194 663,-378 0,-211 -359,-384 -800,-384 -21,0 -41,1 -61,2 -12,0 -22,-8 -26,-19 -3,-12 2,-24 12,-30 122,-69 189,-157 189,-245 0,-212 -359,-384 -800,-384 -207,0 -404,38 -554,109 -5,2 -10,2 -15,2 -54,-8 -110,-12 -167,-12l-2 0c-8,0 -16,-4 -21,-10 -4,-6 -6,-13 -5,-21 2,-8 2,-17 2,-24 0,-149 -265,-275 -579,-275 -274,0 -513,93 -569,222 -2,7 -8,12 -15,14 -7,3 -15,2 -21,-2 -111,-62 -272,-98 -441,-98 -315,0 -580,126 -580,274 0,18 4,36 12,54 3,7 2,16 -2,24 -5,7 -12,12 -21,12 -399,21 -712,189 -712,381 0,36 11,72 32,107 5,7 5,17 1,25 -3,8 -11,13 -20,14 -357,41 -616,198 -616,374 0,211 359,383 800,383 30,0 62,-1 95,-2 11,-1 21,5 26,15 4,10 1,22 -7,30 -59,54 -88,113 -88,173 0,5 0,10 0,15 1,8 -1,15 -6,20 -5,6 -12,9 -20,9 -441,0 -800,172 -800,383 0,212 359,384 800,384 30,0 62,-1 95,-3 11,0 21,6 26,16 4,10 1,22 -7,29 -35,33 -60,67 -74,103 -4,10 -14,16 -24,16l0 0 -16 0c-441,0 -800,172 -800,384 0,211 359,384 800,384 30,0 62,-1 95,-3 1,0 1,0 2,0zm920 -2109c-1,0 -2,0 -3,-1l-2 0c-11,-1 -19,-8 -22,-18 -3,-10 0,-21 8,-28 0,0 3,-2 3,-2 8,-7 19,-8 29,-3 9,5 15,16 13,26 0,1 0,2 0,2 -2,13 -14,24 -26,24zm0 -29l17 20 -17 -20z"/>
   <path class="fil2" d="M8597 11005c-15,0 -26,-11 -26,-26l0 -2649c0,-15 11,-26 26,-26 14,0 26,11 26,26l0 2649c0,15 -12,26 -26,26z"/>
   <path class="fil2" d="M10878 9468c-14,0 -26,-12 -26,-26l0 -1364c0,-14 12,-26 26,-26 14,0 26,12 26,26l0 1364c0,14 -12,26 -26,26z"/>
   <path class="fil2" d="M7885 9716c-14,0 -26,-11 -26,-26l0 -4418c0,-15 12,-26 26,-26 14,0 26,11 26,26l0 4418c0,15 -12,26 -26,26z"/>
   <path class="fil2" d="M11378 10362c-14,0 -26,-12 -26,-26l0 -4232c0,-14 12,-26 26,-26 15,0 26,12 26,26l0 4232c0,14 -11,26 -26,26z"/>
   <path class="fil2" d="M11911 7993c-14,0 -26,-11 -26,-26l0 -1265c0,-14 12,-26 26,-26 14,0 26,12 26,26l0 1265c0,15 -12,26 -26,26z"/>
   <path class="fil2" d="M8744 9048c-599,0 -1029,-150 -1278,-447 -305,-363 -222,-810 -218,-828 2,-15 16,-24 30,-21 14,3 23,16 21,31 -1,4 -82,441 208,785 248,295 688,439 1306,427 15,-1 27,11 27,26 0,14 -11,26 -26,26 -23,1 -47,1 -70,1z"/>
   <path class="fil2" d="M10851 8804c-489,0 -982,-433 -1006,-455 -11,-9 -12,-26 -2,-36 9,-11 26,-12 37,-3 6,6 674,593 1198,404 307,-110 509,-463 600,-1050 2,-14 16,-23 30,-21 14,2 24,15 22,29 -95,607 -308,974 -634,1091 -80,29 -162,41 -245,41z"/>
   <path class="fil5" d="M4392 8485l12 -62c5,-27 31,-44 57,-39l1316 252 0 -187 -1311 -586c-25,-11 -36,-40 -25,-65l26 -58c11,-25 40,-36 65,-25l1245 556 0 -137 -1184 -939c-21,-17 -25,-48 -8,-69l39 -50c17,-21 48,-24 69,-8l1084 860 0 -513c0,-23 25,-42 58,-47l-700 -1078c-15,-23 -8,-53 15,-68l53 -34c23,-15 53,-9 68,14l755 1164 148 0 295 -1388c6,-26 32,-43 58,-37l62 13c27,5 44,31 38,58l-294 1382c5,6 8,13 8,21l0 225 1200 -746c23,-14 53,-7 67,16l34 54c14,23 7,53 -16,67l-1285 799 0 269 1360 -490c26,-9 54,4 63,30l22 59c9,26 -4,54 -30,63l-1415 510 0 112 1467 0c27,0 49,22 49,49l0 63c0,28 -22,50 -49,50l-1467 0 0 2385c0,27 -35,49 -78,49l-408 0c-43,0 -78,-22 -78,-49l0 -2129 -1346 -258c-27,-6 -44,-31 -39,-58z"/>
   <path class="fil2" d="M6263 11005l-408 0c-58,0 -104,-33 -104,-75l0 -2108 -1325 -254c-41,-8 -68,-47 -60,-88l12 -62c7,-36 38,-61 74,-61 5,0 9,0 14,1l1285 247 0 -140 -1296 -578c-18,-9 -32,-23 -40,-42 -7,-19 -6,-39 2,-58l26 -58c12,-27 39,-44 69,-44 10,0 20,2 30,6l1209 540 0 -84 -1174 -931c-16,-13 -26,-31 -28,-51 -2,-20 3,-39 16,-55l39 -50c14,-18 36,-28 59,-28 17,0 33,6 47,16l1041 826 0 -459c0,-26 17,-48 44,-61l-682 -1050c-11,-16 -14,-37 -10,-56 4,-20 16,-37 32,-48l54 -34c12,-8 26,-12 41,-12 25,0 49,13 63,34l747 1152 113 0 290 -1367c8,-35 39,-60 74,-60 5,0 10,1 16,2l62 13c19,4 36,16 47,33 11,17 15,37 11,56l-292 1373c4,8 6,16 6,25l0 178 1160 -721c12,-7 26,-11 40,-11 26,0 50,13 64,35l33 54c11,17 14,37 9,57 -4,19 -16,36 -33,46l-1273 792 0 217 1326 -477c8,-3 16,-5 25,-5 32,0 60,20 71,50l21 60c7,19 6,39 -3,57 -8,18 -23,32 -42,39l-1398 503 0 68 1441 0c42,0 75,34 75,75l0 63c0,42 -33,76 -75,76l-1441 0 0 2359c0,42 -46,75 -104,75zm-1811 -2596c-11,0 -21,8 -23,19l-12 62c-2,13 6,25 19,27l1346 258c12,3 21,13 21,26l0 2129c0,8 20,23 52,23l408 0c32,0 52,-15 52,-23l0 -2385c0,-15 11,-26 26,-26l1467 0c13,0 23,-11 23,-24l0 -63c0,-13 -10,-23 -23,-23l-1467 0c-15,0 -26,-12 -26,-26l0 -112c0,-11 7,-21 17,-25l1415 -509c6,-2 11,-6 13,-12 3,-6 3,-12 1,-18l-21 -60c-4,-11 -18,-18 -30,-13l-1361 489c-7,3 -16,2 -23,-3 -7,-5 -11,-13 -11,-21l0 -269c0,-9 4,-17 12,-22l1285 -799c6,-3 9,-8 11,-14 1,-6 0,-12 -3,-18l-34 -54c-6,-10 -21,-14 -31,-7l-1201 746c-8,5 -18,5 -26,1 -8,-5 -13,-14 -13,-23l0 -225c0,-2 -2,-4 -3,-5 -4,-6 -6,-14 -4,-21l294 -1382c1,-6 0,-13 -3,-18 -4,-5 -9,-9 -15,-10l-62 -13c-13,-3 -25,6 -28,18l-295 1387c-2,12 -13,21 -25,21l-148 0c-8,0 -17,-5 -21,-12l-756 -1164c-7,-10 -21,-13 -32,-6l-53 34c-5,3 -9,9 -10,15 -1,6 0,12 3,17l700 1077c4,8 5,17 2,25 -4,8 -11,14 -20,15 -23,4 -36,16 -36,22l0 513c0,10 -5,19 -14,23 -9,5 -20,3 -28,-3l-1084 -859c-5,-4 -10,-5 -14,-5 -7,0 -14,3 -18,9l-40 49c-4,5 -5,11 -5,17 1,7 4,12 9,16l1185 939c6,5 9,12 9,20l0 137c0,9 -4,17 -11,22 -8,5 -17,6 -25,2l-1246 -556c-11,-5 -26,0 -31,12l-25 58c-3,5 -3,12 -1,17 2,6 7,11 12,13l1312 586c9,4 15,13 15,24l0 187c0,8 -3,15 -9,20 -6,5 -14,7 -22,6l-1316 -253c-1,0 -3,0 -4,0z"/>
   <path class="fil6" d="M2501 7127c0,1080 1671,1956 3731,1956 2060,0 3731,-876 3731,-1956 0,-1081 -1671,-1956 -3731,-1956 -2060,0 -3731,875 -3731,1956z"/>
   <path class="fil2" d="M6232 9109c-1001,0 -1942,-204 -2650,-576 -714,-374 -1107,-874 -1107,-1406 0,-533 393,-1032 1107,-1407 708,-371 1649,-576 2650,-576 1001,0 1942,205 2650,576 714,375 1107,874 1107,1407 0,532 -393,1032 -1107,1406 -708,372 -1649,576 -2650,576zm0 -3913c-2043,0 -3705,866 -3705,1931 0,1064 1662,1930 3705,1930 2043,0 3705,-866 3705,-1930 0,-1065 -1662,-1931 -3705,-1931z"/>
   <path class="fil2" d="M6341 9611c-15,0 -26,-12 -26,-26 -1,-14 11,-26 25,-26 150,-2 277,-62 379,-179 477,-546 285,-2148 283,-2164 -2,-14 8,-27 23,-29 14,-2 27,8 29,23 8,66 196,1641 -296,2204 -112,128 -252,195 -417,197l0 0z"/>
   <path class="fil2" d="M3665 8651c-26,0 -52,-1 -78,-4 -379,-39 -707,-372 -975,-988 -6,-13 0,-28 13,-34 13,-6 29,0 35,13 260,598 574,920 932,957 574,61 1078,-637 1083,-644 9,-12 25,-14 37,-6 11,8 14,24 6,36 -20,29 -484,670 -1053,670z"/>
   <path class="fil2" d="M8240 9646c-219,0 -448,-230 -680,-683 -7,-13 -2,-29 11,-35 13,-7 28,-2 35,11 236,460 461,680 668,653 426,-57 661,-1127 663,-1138 3,-14 17,-23 31,-20 14,3 23,17 20,31 -10,45 -245,1117 -707,1178 -14,2 -28,3 -41,3z"/>
   <path class="fil3" d="M16980 7127c0,1080 -1670,1956 -3730,1956 -2061,0 -3731,-876 -3731,-1956 0,-1081 1670,-1956 3731,-1956 2060,0 3730,875 3730,1956z"/>
   <path class="fil2" d="M13250 9109c-1001,0 -1942,-204 -2650,-576 -714,-374 -1107,-874 -1107,-1406 0,-533 393,-1032 1107,-1407 708,-371 1649,-576 2650,-576 1000,0 1942,205 2650,576 713,375 1106,874 1106,1407 0,532 -393,1032 -1106,1406 -708,372 -1650,576 -2650,576zm0 -3913c-2043,0 -3705,866 -3705,1931 0,1064 1662,1930 3705,1930 2043,0 3704,-866 3704,-1930 0,-1065 -1661,-1931 -3704,-1931z"/>
   <path class="fil7" d="M15090 8485l-12 -62c-5,-27 -31,-44 -57,-39l-1317 252 0 -187 1312 -586c25,-11 36,-40 25,-65l-26 -58c-11,-25 -40,-36 -65,-25l-1246 556 0 -137 1185 -939c21,-17 25,-48 8,-69l-40 -50c-17,-21 -47,-24 -69,-8l-1084 860 0 -513c0,-23 -24,-42 -57,-47l700 -1078c14,-23 8,-53 -15,-68l-53 -34c-23,-15 -53,-9 -68,14l-756 1164 -147 0 -295 -1388c-6,-26 -32,-43 -59,-37l-62 13c-26,5 -43,31 -37,58l293 1382c-4,6 -7,13 -7,21l0 225 -1200 -746c-23,-14 -53,-7 -68,16l-33 54c-15,23 -8,53 15,67l1286 799 0 269 -1361 -490c-25,-9 -53,4 -62,30l-22 59c-9,26 4,54 30,63l1415 510 0 112 -1467 0c-28,0 -50,22 -50,49l0 63c0,28 22,50 50,50l1467 0 0 2385c0,27 35,49 77,49l409 0c43,0 77,-22 77,-49l0 -2129 1347 -258c27,-6 44,-31 39,-58z"/>
   <path class="fil2" d="M13627 11005l-409 0c-58,0 -103,-33 -103,-75l0 -2359 -1441 0c-42,0 -76,-34 -76,-76l0 -63c0,-41 34,-75 76,-75l1441 0 0 -68 -1398 -503c-19,-7 -34,-21 -43,-39 -8,-18 -9,-38 -2,-57l21 -60c11,-30 39,-50 71,-50 8,0 17,2 25,5l1326 477 0 -217 -1273 -792c-17,-10 -29,-27 -34,-46 -4,-20 -1,-40 10,-57l33 -54c14,-22 38,-35 64,-35 14,0 28,4 40,11l1160 721 0 -178c0,-9 2,-17 6,-25l-292 -1373c-8,-40 17,-80 58,-89l62 -13c5,-1 11,-2 16,-2 35,0 66,25 73,60l291 1367 112 0 748 -1152c14,-21 37,-34 63,-34 15,0 29,4 41,12l53 34c35,23 45,70 22,104l-681 1050c27,13 43,35 43,61l0 459 1042 -826c13,-10 30,-16 47,-16 23,0 44,10 59,28l39 50c26,33 20,80 -12,106l-1175 931 0 84 1210 -540c9,-4 20,-6 30,-6 30,0 57,17 69,44l26 58c8,19 8,39 1,58 -7,19 -21,33 -39,42l-1297 578 0 140 1286 -247c4,-1 9,-1 14,-1 36,0 67,25 74,61l12 62c7,41 -19,80 -60,88l-1326 254 0 2108c0,42 -45,75 -103,75zm-1953 -2596c-13,0 -24,10 -24,23l0 63c0,13 11,24 24,24l1467 0c14,0 26,11 26,26l0 2385c0,8 20,23 51,23l409 0c32,0 51,-15 51,-23l0 -2129c0,-13 9,-23 21,-26l1347 -258c13,-2 21,-14 18,-27l-11 -62c-3,-13 -15,-21 -28,-19l-1316 253c-7,1 -15,-1 -21,-6 -6,-5 -10,-12 -10,-20l0 -187c0,-11 6,-20 16,-24l1311 -586c6,-2 10,-7 13,-13 2,-5 2,-12 -1,-17l-26 -58c-5,-12 -19,-17 -30,-12l-1246 556c-8,4 -17,3 -25,-2 -7,-5 -12,-13 -12,-22l0 -137c0,-8 4,-15 10,-20l1185 -939c10,-8 11,-23 3,-33l-39 -49c-4,-6 -11,-9 -18,-9 -4,0 -9,1 -15,5l-1084 859c-7,6 -18,8 -27,3 -9,-4 -15,-13 -15,-23l0 -513c0,-6 -12,-18 -35,-22 -9,-1 -16,-7 -20,-15 -3,-8 -3,-17 2,-25l700 -1077c7,-11 4,-25 -7,-32l-53 -34c-11,-7 -26,-4 -32,6l-756 1164c-5,7 -13,12 -22,12l-147 0c-12,0 -23,-9 -26,-21l-295 -1387c-2,-12 -15,-21 -27,-18l-62 13c-13,3 -21,15 -18,28l294 1382c1,7 0,15 -5,21 0,1 -2,3 -2,5l0 225c0,9 -5,18 -13,23 -9,4 -19,4 -27,-1l-1200 -746c-10,-7 -25,-3 -32,7l-33 54c-3,6 -4,12 -3,18 1,6 5,11 10,14l1286 799c7,5 12,13 12,22l0 269c0,8 -4,16 -11,21 -7,5 -16,6 -24,3l-1360 -489c-12,-5 -26,2 -30,13l-22 60c-2,6 -1,12 1,18 3,6 8,10 13,12l1416 509c10,4 17,14 17,25l0 112c0,14 -12,26 -26,26l-1467 0z"/>
   <path class="fil2" d="M13141 9611l0 0c-165,-2 -305,-69 -418,-197 -492,-563 -303,-2138 -295,-2204 2,-15 15,-25 29,-23 14,2 24,15 23,29 -2,16 -194,1618 282,2164 103,117 230,177 379,179 15,0 26,12 26,26 0,14 -12,26 -26,26z"/>
   <path class="fil2" d="M15817 8651c-569,0 -1033,-641 -1053,-670 -8,-12 -6,-28 6,-36 12,-8 28,-6 36,6 5,7 509,705 1083,644 359,-37 673,-359 933,-957 6,-13 21,-19 34,-13 14,6 20,21 14,34 -268,616 -596,949 -975,988 -26,3 -52,4 -78,4z"/>
   <path class="fil2" d="M11790 6854c-210,0 -394,-42 -547,-98 -455,-166 -725,-481 -736,-494 -9,-11 -8,-27 3,-37 11,-9 27,-8 37,3 2,3 273,319 716,480 594,216 1199,69 1800,-436 11,-10 27,-8 36,3 10,11 8,27 -3,36 -490,413 -937,543 -1306,543z"/>
   <path class="fil2" d="M11242 9646c-14,0 -27,-1 -41,-3 -462,-61 -698,-1133 -707,-1178 -3,-14 5,-28 19,-31 14,-3 28,6 31,20 3,11 238,1081 664,1138 207,27 432,-193 668,-653 6,-13 22,-18 35,-11 13,6 18,22 11,35 -232,453 -461,683 -680,683z"/>
   <path class="fil1" d="M4404 10924c0,31 -34,55 -76,55 -43,0 -77,-24 -77,-55l0 -2301c0,-31 34,-56 77,-56 42,0 76,25 76,56l0 2301z"/>
   <path class="fil2" d="M4328 11005c-58,0 -103,-35 -103,-81l0 -2301c0,-46 45,-82 103,-82 57,0 102,36 102,82l0 2301c0,46 -45,81 -102,81zm0 -2412c-30,0 -51,16 -51,30l0 2301c0,14 21,29 51,29 29,0 50,-15 50,-29l0 -2301c0,-14 -21,-30 -50,-30z"/>
   <path class="fil4" d="M5219 8156c43,-54 67,-113 67,-175 0,-262 -429,-475 -958,-475 -530,0 -959,213 -959,475 0,62 24,121 67,175 -255,118 -415,287 -415,474 0,358 585,648 1307,648 721,0 1306,-290 1306,-648 0,-187 -160,-356 -415,-474z"/>
   <path class="fil2" d="M4328 9304c-353,0 -686,-68 -936,-192 -256,-127 -397,-298 -397,-482 0,-186 142,-357 402,-484 -36,-53 -54,-108 -54,-165 0,-281 433,-501 985,-501 552,0 984,220 984,501 0,57 -18,112 -53,165 259,127 401,298 401,484 0,184 -141,355 -397,482 -250,124 -582,192 -935,192zm0 -1772c-515,0 -933,201 -933,449 0,54 21,108 61,159 5,6 7,14 5,22 -2,8 -7,14 -14,18 -254,117 -400,282 -400,450 0,343 574,622 1281,622 706,0 1280,-279 1280,-622 0,-168 -145,-333 -400,-450 -7,-4 -12,-10 -14,-18 -2,-8 0,-16 5,-22 40,-51 61,-105 61,-159 0,-248 -418,-449 -932,-449z"/>
   <path class="fil1" d="M12282 10924c0,31 -34,55 -77,55 -42,0 -76,-24 -76,-55l0 -2301c0,-31 34,-56 76,-56 43,0 77,25 77,56l0 2301z"/>
   <path class="fil2" d="M12205 11005c-57,0 -102,-35 -102,-81l0 -2301c0,-46 45,-82 102,-82 58,0 103,36 103,82l0 2301c0,46 -45,81 -103,81zm0 -2412c-29,0 -50,16 -50,30l0 2301c0,14 21,29 50,29 30,0 51,-15 51,-29l0 -2301c0,-14 -21,-30 -51,-30z"/>
   <path class="fil4" d="M13097 8156c43,-54 67,-113 67,-175 0,-262 -429,-475 -959,-475 -529,0 -958,213 -958,475 0,62 24,121 67,175 -256,118 -415,287 -415,474 0,358 585,648 1306,648 722,0 1307,-290 1307,-648 0,-187 -160,-356 -415,-474z"/>
   <path class="fil2" d="M12205 9304c-353,0 -685,-68 -935,-192 -256,-127 -397,-298 -397,-482 0,-186 142,-357 401,-484 -35,-53 -53,-108 -53,-165 0,-281 432,-501 984,-501 552,0 985,220 985,501 0,57 -18,112 -54,165 260,127 402,298 402,484 0,184 -141,355 -397,482 -250,124 -583,192 -936,192zm0 -1772c-514,0 -932,201 -932,449 0,54 21,108 61,159 5,6 7,14 5,22 -2,8 -7,14 -14,18 -255,117 -400,282 -400,450 0,343 574,622 1280,622 707,0 1281,-279 1281,-622 0,-168 -146,-333 -400,-450 -7,-4 -13,-10 -14,-18 -2,-8 0,-16 5,-22 40,-51 61,-105 61,-159 0,-248 -418,-449 -933,-449z"/>
   <path class="fil1" d="M16543 10903c0,42 -34,76 -77,76 -42,0 -77,-34 -77,-76l0 -3209c0,-43 35,-77 77,-77 43,0 77,34 77,77l0 3209z"/>
   <path class="fil2" d="M16466 11005c-57,0 -103,-46 -103,-102l0 -3209c0,-57 46,-103 103,-103 57,0 103,46 103,103l0 3209c0,56 -46,102 -103,102zm0 -3362c-28,0 -51,23 -51,51l0 3209c0,28 23,50 51,50 28,0 51,-22 51,-50l0 -3209c0,-28 -23,-51 -51,-51z"/>
   <path class="fil6" d="M17358 7205c43,-54 67,-113 67,-174 0,-263 -430,-476 -959,-476 -529,0 -958,213 -958,476 0,61 24,120 67,174 -256,119 -416,287 -416,474 0,358 585,649 1307,649 722,0 1307,-291 1307,-649 0,-187 -160,-355 -415,-474z"/>
   <path class="fil2" d="M16466 8354c-353,0 -685,-69 -936,-193 -256,-127 -397,-298 -397,-482 0,-185 143,-357 402,-484 -35,-53 -53,-108 -53,-164 0,-282 432,-502 984,-502 552,0 985,220 985,502 0,56 -18,111 -54,164 260,127 402,299 402,484 0,184 -141,355 -397,482 -251,124 -583,193 -936,193zm0 -1773c-514,0 -932,202 -932,450 0,54 20,107 61,158 5,6 7,14 5,22 -2,8 -7,14 -14,18 -255,118 -401,282 -401,450 0,343 575,623 1281,623 706,0 1281,-280 1281,-623 0,-168 -146,-332 -400,-450 -8,-4 -13,-10 -15,-18 -2,-8 0,-16 5,-22 41,-51 61,-104 61,-158 0,-248 -418,-450 -932,-450z"/>
   <path class="fil6" d="M14249 9840c43,-54 67,-113 67,-174 0,-263 -429,-476 -958,-476 -530,0 -959,213 -959,476 0,61 24,120 67,174 -255,119 -415,287 -415,474 0,359 585,649 1307,649 721,0 1307,-290 1307,-649 0,-187 -160,-355 -416,-474z"/>
   <path class="fil2" d="M13358 10989c-353,0 -686,-68 -936,-193 -256,-127 -397,-298 -397,-482 0,-185 142,-356 402,-484 -36,-52 -54,-108 -54,-164 0,-281 433,-502 985,-502 552,0 984,221 984,502 0,56 -18,112 -53,164 259,128 402,299 402,484 0,184 -142,355 -398,482 -250,125 -582,193 -935,193zm0 -1773c-514,0 -933,202 -933,450 0,54 21,107 62,158 4,6 6,15 4,22 -1,8 -7,15 -14,18 -254,118 -400,282 -400,450 0,344 574,623 1281,623 706,0 1281,-279 1281,-623 0,-168 -146,-332 -401,-450 -7,-3 -12,-10 -14,-18 -2,-7 0,-16 5,-22 40,-51 61,-104 61,-158 0,-248 -418,-450 -932,-450z"/>
   <path class="fil1" d="M7549 10903c0,42 -60,76 -133,76 -74,0 -134,-34 -134,-76l0 -3209c0,-43 60,-77 134,-77 73,0 133,34 133,77l0 3209z"/>
   <path class="fil2" d="M7416 11005c-90,0 -160,-45 -160,-102l0 -3209c0,-58 70,-103 160,-103 89,0 159,45 159,103l0 3209c0,57 -70,102 -159,102zm0 -3362c-62,0 -107,27 -107,51l0 3209c0,24 45,50 107,50 61,0 107,-26 107,-50l0 -3209c0,-24 -46,-51 -107,-51z"/>
   <path class="fil3" d="M8566 6907c181,-111 290,-252 290,-406 0,-359 -585,-649 -1307,-649 -722,0 -1307,290 -1307,649 0,18 2,36 5,54 -5,0 -10,0 -15,0 -529,0 -958,213 -958,476 0,187 218,349 536,427 -223,116 -360,273 -360,446 0,359 585,649 1307,649 545,0 1011,-165 1208,-400 32,1 65,2 99,2 722,0 1307,-291 1307,-649 0,-270 -332,-501 -805,-599z"/>
   <path class="fil2" d="M6757 8579c-353,0 -685,-68 -936,-193 -256,-127 -397,-298 -397,-482 0,-162 112,-316 317,-438 -306,-88 -493,-252 -493,-435 0,-279 424,-498 969,-502 -1,-10 -1,-19 -1,-28 0,-184 141,-355 397,-482 251,-125 583,-193 936,-193 353,0 685,68 936,193 256,127 397,298 397,482 0,142 -88,280 -250,394 467,111 765,347 765,611 0,184 -141,355 -397,482 -251,124 -583,193 -936,193 -27,0 -55,-1 -88,-2 -212,243 -688,400 -1219,400zm-525 -1998c-514,0 -932,202 -932,450 0,167 202,325 516,401 11,3 19,12 20,23 1,10 -4,21 -14,26 -223,116 -346,267 -346,423 0,344 575,623 1281,623 523,0 989,-153 1188,-391 5,-6 12,-10 21,-9 37,1 68,2 98,2 706,0 1281,-280 1281,-623 0,-250 -308,-475 -784,-573 -10,-2 -19,-11 -20,-21 -2,-11 3,-21 12,-27 178,-110 277,-246 277,-384 0,-344 -575,-623 -1281,-623 -706,0 -1281,279 -1281,623 0,15 1,31 5,50 1,7 -1,15 -6,21 -5,6 -12,9 -20,9l0 0 -15 0z"/>
   <path class="fil2" d="M7672 8991c-484,0 -913,-400 -933,-419 -10,-10 -11,-26 -1,-37 10,-10 26,-11 37,-1 5,5 543,508 1072,386 317,-73 569,-355 750,-836 5,-14 20,-21 34,-16 13,6 20,21 15,34 -188,499 -453,791 -788,869 -62,14 -124,20 -186,20z"/>
   <path class="fil1" d="M10899 10903c0,42 -60,76 -134,76 -73,0 -133,-34 -133,-76l0 -3209c0,-43 60,-77 133,-77 74,0 134,34 134,77l0 3209z"/>
   <path class="fil2" d="M10765 11005c-89,0 -159,-45 -159,-102l0 -3209c0,-58 70,-103 159,-103 90,0 160,45 160,103l0 3209c0,57 -70,102 -160,102zm0 -3362c-61,0 -107,27 -107,51l0 3209c0,24 46,50 107,50 62,0 108,-26 108,-50l0 -3209c0,-24 -46,-51 -108,-51z"/>
   <path class="fil6" d="M13835 6778c0,-358 -585,-649 -1307,-649 -308,0 -591,53 -815,142 -223,-89 -506,-142 -814,-142 -389,0 -737,84 -976,218 -222,-86 -501,-138 -804,-138 -722,0 -1307,290 -1307,649 0,304 422,559 992,629 -24,42 -37,85 -37,130 0,263 429,476 958,476 28,0 55,-1 82,-2 0,1 0,1 0,2 0,262 429,475 958,475 500,0 910,-189 955,-431 574,-69 1000,-325 1000,-631 0,-29 -4,-58 -11,-86 636,-44 1126,-314 1126,-642z"/>
   <path class="fil2" d="M10765 8594c-535,0 -958,-207 -983,-476 -20,1 -39,1 -57,1 -552,0 -984,-220 -984,-502 0,-37 8,-73 23,-109 -578,-80 -978,-344 -978,-650 0,-184 141,-355 397,-482 250,-124 583,-193 936,-193 292,0 569,47 802,135 251,-137 606,-215 978,-215 298,0 579,49 814,140 235,-91 516,-140 815,-140 353,0 685,69 935,193 257,127 398,298 398,482 0,336 -469,614 -1120,666 4,21 6,42 6,62 0,312 -413,579 -1006,654 -64,249 -477,434 -976,434zm-958 -529c7,0 13,3 18,7 5,5 8,12 8,19 0,1 0,2 0,3 0,247 418,448 932,448 479,0 887,-180 929,-410 2,-11 11,-20 22,-21 567,-68 978,-322 978,-605 0,-25 -3,-52 -10,-79 -2,-8 -1,-16 4,-22 4,-6 11,-10 19,-11 628,-43 1102,-308 1102,-616 0,-343 -575,-623 -1281,-623 -296,0 -574,49 -805,140 -6,3 -13,3 -19,0 -231,-91 -510,-140 -805,-140 -368,0 -719,78 -964,214 -6,4 -14,5 -22,2 -228,-89 -503,-136 -794,-136 -707,0 -1281,279 -1281,623 0,280 407,534 969,603 8,1 16,7 20,14 4,8 4,17 -1,25 -22,39 -33,78 -33,117 0,248 418,450 932,450 25,0 52,-1 81,-2 0,0 1,0 1,0z"/>
   <path class="fil2" d="M9236 8760c-9,0 -18,0 -26,-2 -347,-52 -464,-1200 -469,-1249 -1,-15 9,-27 23,-29 15,-1 27,9 29,24 32,321 169,1164 424,1203 95,14 255,-82 484,-624 6,-13 21,-20 34,-14 14,5 20,21 14,34 -186,442 -355,657 -513,657z"/>
   <path class="fil2" d="M12223 9319c-284,0 -501,-1096 -525,-1221 -2,-14 7,-28 21,-31 14,-2 28,7 30,21 88,457 293,1179 474,1179 1,0 2,0 3,0 101,-5 297,-250 469,-1850 1,-15 14,-25 28,-23 15,1 25,14 23,28 -71,663 -153,1158 -243,1471 -82,282 -172,421 -275,426 -2,0 -3,0 -5,0z"/>
   <path class="fil1" d="M14299 10903c0,42 -34,76 -77,76 -42,0 -76,-34 -76,-76l0 -3209c0,-43 34,-77 76,-77 43,0 77,34 77,77l0 3209z"/>
   <path class="fil2" d="M14222 11005c-56,0 -102,-46 -102,-102l0 -3209c0,-57 46,-103 102,-103 57,0 103,46 103,103l0 3209c0,56 -46,102 -103,102zm0 -3362c-28,0 -50,23 -50,51l0 3209c0,28 22,50 50,50 29,0 51,-22 51,-50l0 -3209c0,-28 -22,-51 -51,-51z"/>
   <path class="fil3" d="M15114 7205c43,-54 67,-113 67,-174 0,-263 -429,-476 -959,-476 -529,0 -958,213 -958,476 0,61 24,120 67,174 -255,119 -415,287 -415,474 0,358 585,649 1306,649 722,0 1307,-291 1307,-649 0,-187 -160,-355 -415,-474z"/>
   <path class="fil2" d="M14222 8354c-353,0 -685,-69 -935,-193 -256,-127 -397,-298 -397,-482 0,-185 142,-357 401,-484 -35,-53 -53,-108 -53,-164 0,-282 432,-502 984,-502 552,0 985,220 985,502 0,56 -18,111 -53,164 259,127 401,299 401,484 0,184 -141,355 -397,482 -250,124 -583,193 -936,193zm0 -1773c-514,0 -932,202 -932,450 0,54 21,107 61,158 5,6 7,14 5,22 -2,8 -7,14 -14,18 -255,118 -400,282 -400,450 0,343 574,623 1280,623 707,0 1281,-280 1281,-623 0,-168 -146,-332 -400,-450 -7,-4 -12,-10 -14,-18 -2,-8 0,-16 5,-22 40,-51 61,-104 61,-158 0,-248 -418,-450 -933,-450z"/>
   <path class="fil4" d="M7229 9840c43,-54 67,-113 67,-174 0,-263 -429,-476 -958,-476 -530,0 -959,213 -959,476 0,61 24,120 67,174 -255,119 -415,287 -415,474 0,359 585,649 1307,649 721,0 1307,-290 1307,-649 0,-187 -160,-355 -416,-474z"/>
   <path class="fil2" d="M6338 10989c-353,0 -686,-68 -936,-193 -256,-127 -397,-298 -397,-482 0,-185 142,-356 402,-484 -36,-52 -54,-108 -54,-164 0,-281 433,-502 985,-502 552,0 984,221 984,502 0,56 -18,112 -53,164 259,128 401,299 401,484 0,184 -141,355 -397,482 -250,125 -582,193 -935,193zm0 -1773c-515,0 -933,202 -933,450 0,54 21,107 61,158 5,6 7,15 5,22 -1,8 -7,15 -14,18 -254,118 -400,282 -400,450 0,344 574,623 1281,623 706,0 1280,-279 1280,-623 0,-168 -145,-332 -400,-450 -7,-3 -12,-10 -14,-18 -2,-7 0,-16 5,-22 40,-51 61,-104 61,-158 0,-248 -418,-450 -932,-450z"/>
   <path class="fil2" d="M17233 8126c0,0 -2140,-855 -3326,569 -169,211 323,501 146,747l-182 224 -64 600 169 70 108 -555 401 -408 308 -123 369 38 947 -38 139 -69 200 843 239 0 -108 -412 123 -393c0,0 200,-431 531,-277 332,154 601,262 601,262 0,0 31,61 0,123 0,0 231,107 185,-224 -46,-331 -408,-800 -786,-977z"/>
   <path class="fil2" d="M13976 10362c-3,0 -6,-1 -10,-2l-169 -70c-11,-4 -17,-15 -16,-27l64 -600c1,-5 3,-10 6,-14l182 -223c80,-111 3,-235 -78,-367 -79,-129 -162,-263 -68,-380 460,-553 1113,-834 1938,-834 768,0 1412,254 1418,257 372,174 753,649 802,998 15,107 3,183 -35,227 -24,28 -59,43 -99,43l0 0c-46,0 -86,-19 -88,-20 -6,-3 -11,-8 -13,-15 -3,-6 -2,-13 1,-20 18,-37 9,-75 3,-91 -52,-22 -300,-123 -591,-259 -44,-20 -88,-30 -131,-30 -218,0 -355,271 -366,294l-120 383 105 401c1,4 2,7 2,11 0,14 -12,26 -26,26 0,0 0,0 0,0l-239 0c-12,0 -22,-8 -25,-20l-193 -812 -109 55c-3,2 -7,3 -11,3l-947 38c-1,0 -2,0 -4,0l-363 -38 -297 119 -391 399 -106 547c-2,7 -6,14 -13,17 -4,3 -8,4 -13,4zm-141 -112l122 50 102 -524c1,-5 3,-9 7,-13l400 -408c2,-3 6,-5 9,-6l308 -123c4,-2 8,-2 12,-2l368 38 940 -38 133 -67c7,-3 16,-3 23,0 7,3 12,10 14,18l196 823 184 0 -99 -380c-1,-4 -1,-9 0,-14l123 -393c1,-1 1,-2 2,-3 6,-13 154,-325 413,-325 50,0 102,12 152,35 327,152 597,260 600,262 6,2 11,6 13,12 2,3 28,57 11,119 12,4 27,7 43,7l0 0c26,0 45,-8 59,-25 28,-31 36,-96 23,-186 -46,-334 -414,-790 -771,-958 -4,-2 -640,-252 -1397,-252 -809,0 -1448,274 -1898,815 -71,88 -4,196 73,320 82,134 175,285 74,426l-178 218 -61 574z"/>
   <path class="fil8" d="M17245 8260c0,98 55,177 123,177 68,0 123,-79 123,-177 0,-97 -55,-177 -123,-177 -68,0 -123,80 -123,177z"/>
   <path class="fil2" d="M17368 8463c-83,0 -149,-89 -149,-203 0,-114 66,-203 149,-203 84,0 149,89 149,203 0,114 -65,203 -149,203zm0 -354c-52,0 -97,69 -97,151 0,82 45,151 97,151 53,0 97,-69 97,-151 0,-82 -44,-151 -97,-151z"/>
   <path class="fil9" d="M17655 8792c-34,0 -62,-28 -62,-62 0,-34 28,-62 62,-62 34,0 62,28 62,62 0,34 -28,62 -62,62z"/>
   <path class="fil10" d="M17655 8694c20,0 36,16 36,36 0,20 -16,36 -36,36 -20,0 -36,-16 -36,-36 0,-20 16,-36 36,-36zm0 -52c-49,0 -88,40 -88,88 0,49 39,88 88,88 49,0 88,-39 88,-88 0,-48 -39,-88 -88,-88z"/>
   <polygon class="fil2" points="16109,9250 16090,9646 15994,9812 15601,10066 15543,9958 15624,9770 15826,9716 15763,9264 "/>
   <path class="fil2" d="M15601 10092c-2,0 -4,0 -6,-1 -7,-2 -13,-6 -17,-13l-58 -107c-3,-7 -4,-16 -1,-23l81 -189c3,-7 10,-12 17,-15l180 -47 -60 -429c-1,-8 1,-15 6,-21 5,-5 11,-9 19,-9l346 -14c8,-1 15,2 20,8 5,5 8,12 7,19l-19 397c0,4 -1,8 -4,11l-96 166c-2,4 -5,7 -8,9l-393 254c-4,3 -9,4 -14,4zm-29 -135l39 72 363 -235 90 -155 18 -362 -289 12 59 423c2,13 -6,25 -19,29l-190 50 -71 166z"/>
   <polygon class="fil2" points="15127,9285 15158,9747 15332,10066 15301,10174 15193,10147 14835,9700 14778,9256 "/>
   <path class="fil2" d="M15301 10200c-2,0 -4,0 -7,-1l-107 -27c-6,-1 -11,-4 -14,-9l-358 -446c-3,-4 -5,-9 -6,-13l-57 -445c-1,-8 2,-16 7,-21 6,-6 13,-9 21,-8l349 29c13,1 23,11 24,24l31 456 170 315c4,6 4,13 3,19l-31 108c-4,11 -14,19 -25,19zm-93 -76l75 19 21 -74 -169 -310c-1,-3 -2,-7 -3,-11l-29 -439 -295 -25 52 406 348 434z"/>
   <path class="fil2" d="M11537 10137l0 0 -8846 -14c-14,0 -26,-12 -26,-26 0,-14 12,-26 26,-26l0 0 8846 14c15,0 26,12 26,26 0,15 -12,26 -26,26z"/>
   <path class="fil2" d="M11537 10564l-8888 0c-15,0 -26,-11 -26,-26 0,-14 11,-26 26,-26l8888 0c14,0 26,12 26,26 0,15 -12,26 -26,26z"/>
   <polygon class="fil2" points="11619,10939 11412,10939 11412,9790 11619,9790 "/>
   <path class="fil2" d="M11619 10965l-207 0c-15,0 -26,-11 -26,-26l0 -1149c0,-15 11,-26 26,-26l207 0c14,0 26,11 26,26l0 1149c0,15 -12,26 -26,26zm-181 -52l155 0 0 -1097 -155 0 0 1097z"/>
   <polygon class="fil2" points="9412,10939 9205,10939 9205,9790 9412,9790 "/>
   <path class="fil2" d="M9412 10965l-207 0c-14,0 -26,-11 -26,-26l0 -1149c0,-15 12,-26 26,-26l207 0c14,0 26,11 26,26l0 1149c0,15 -12,26 -26,26zm-181 -52l155 0 0 -1097 -155 0 0 1097z"/>
   <polygon class="fil2" points="10147,10939 9941,10939 9941,9790 10147,9790 "/>
   <path class="fil2" d="M10147 10965l-206 0c-15,0 -26,-11 -26,-26l0 -1149c0,-15 11,-26 26,-26l206 0c15,0 26,11 26,26l0 1149c0,15 -11,26 -26,26zm-180 -52l154 0 0 -1097 -154 0 0 1097z"/>
   <polygon class="fil2" points="10883,10939 10676,10939 10676,9790 10883,9790 "/>
   <path class="fil2" d="M10883 10965l-207 0c-14,0 -26,-11 -26,-26l0 -1149c0,-15 12,-26 26,-26l207 0c14,0 26,11 26,26l0 1149c0,15 -12,26 -26,26zm-181 -52l155 0 0 -1097 -155 0 0 1097z"/>
   <polygon class="fil2" points="8760,10939 8554,10939 8554,9790 8760,9790 "/>
   <path class="fil2" d="M8760 10965l-206 0c-15,0 -26,-11 -26,-26l0 -1149c0,-15 11,-26 26,-26l206 0c15,0 26,11 26,26l0 1149c0,15 -11,26 -26,26zm-180 -52l154 0 0 -1097 -154 0 0 1097z"/>
   <polygon class="fil2" points="6469,10939 6263,10939 6263,9790 6469,9790 "/>
   <path class="fil2" d="M6469 10965l-206 0c-15,0 -26,-11 -26,-26l0 -1149c0,-15 11,-26 26,-26l206 0c15,0 26,11 26,26l0 1149c0,15 -11,26 -26,26zm-180 -52l154 0 0 -1097 -154 0 0 1097z"/>
   <polygon class="fil2" points="7205,10939 6998,10939 6998,9790 7205,9790 "/>
   <path class="fil2" d="M7205 10965l-207 0c-14,0 -26,-11 -26,-26l0 -1149c0,-15 12,-26 26,-26l207 0c14,0 26,11 26,26l0 1149c0,15 -12,26 -26,26zm-181 -52l155 0 0 -1097 -155 0 0 1097z"/>
   <polygon class="fil2" points="7941,10939 7734,10939 7734,9790 7941,9790 "/>
   <path class="fil2" d="M7941 10965l-207 0c-15,0 -26,-11 -26,-26l0 -1149c0,-15 11,-26 26,-26l207 0c14,0 26,11 26,26l0 1149c0,15 -12,26 -26,26zm-181 -52l155 0 0 -1097 -155 0 0 1097z"/>
   <polygon class="fil2" points="5734,10939 5527,10939 5527,9790 5734,9790 "/>
   <path class="fil2" d="M5734 10965l-207 0c-14,0 -26,-11 -26,-26l0 -1149c0,-15 12,-26 26,-26l207 0c14,0 26,11 26,26l0 1149c0,15 -12,26 -26,26zm-181 -52l155 0 0 -1097 -155 0 0 1097z"/>
   <polygon class="fil2" points="3527,10939 3320,10939 3320,9790 3527,9790 "/>
   <path class="fil2" d="M3527 10965l-207 0c-14,0 -26,-11 -26,-26l0 -1149c0,-15 12,-26 26,-26l207 0c14,0 26,11 26,26l0 1149c0,15 -12,26 -26,26zm-181 -52l155 0 0 -1097 -155 0 0 1097z"/>
   <polygon class="fil2" points="2792,10939 2585,10939 2585,9790 2792,9790 "/>
   <path class="fil2" d="M2792 10965l-207 0c-15,0 -26,-11 -26,-26l0 -1149c0,-15 11,-26 26,-26l207 0c14,0 26,11 26,26l0 1149c0,15 -12,26 -26,26zm-181 -52l155 0 0 -1097 -155 0 0 1097z"/>
   <polygon class="fil2" points="4263,10939 4056,10939 4056,9790 4263,9790 "/>
   <path class="fil2" d="M4263 10965l-207 0c-14,0 -26,-11 -26,-26l0 -1149c0,-15 12,-26 26,-26l207 0c14,0 26,11 26,26l0 1149c0,15 -12,26 -26,26zm-181 -52l155 0 0 -1097 -155 0 0 1097z"/>
   <polygon class="fil2" points="4998,10939 4791,10939 4791,9790 4998,9790 "/>
   <path class="fil2" d="M4998 10965l-207 0c-14,0 -26,-11 -26,-26l0 -1149c0,-15 12,-26 26,-26l207 0c15,0 26,11 26,26l0 1149c0,15 -11,26 -26,26zm-181 -52l155 0 0 -1097 -155 0 0 1097z"/>
   <polygon class="fil11" points="16703,9790 13110,9790 13110,10932 16703,10932 "/>
   <path class="fil2" d="M16703 10958l-3593 0c-14,0 -26,-12 -26,-26l0 -1142c0,-15 12,-26 26,-26l3593 0c14,0 26,11 26,26l0 1142c0,14 -12,26 -26,26zm-3567 -52l3541 0 0 -1090 -3541 0 0 1090z"/>
   <path class="fil2" d="M14201 10060c0,9 -1,18 -4,26 -3,9 -7,16 -11,23 -5,6 -11,12 -17,17 -6,5 -13,9 -20,11 15,6 26,19 33,40l13 36c5,14 12,24 21,31 -4,6 -11,11 -19,14 -9,4 -18,6 -28,6 -10,0 -18,-3 -24,-9 -6,-5 -11,-16 -16,-30l-15 -45c-3,-8 -7,-15 -12,-19 -6,-5 -14,-7 -24,-7l-17 0 0 106c-9,2 -21,3 -34,3 -14,0 -25,-1 -34,-3l0 -288 3 -3c25,0 45,-1 62,-1 17,0 30,0 40,0 16,0 30,2 42,5 13,4 24,10 33,18 9,7 16,17 21,28 5,12 7,26 7,41zm-140 -42l0 84c12,0 23,0 32,-1 9,0 17,-2 22,-5 6,-3 10,-7 13,-13 2,-5 4,-13 4,-23 0,-28 -13,-41 -40,-41l-18 0c-5,0 -9,-1 -13,-1z"/>
   <path class="fil2" d="M14343 10174l-1 31 0 0c13,0 24,0 31,0l99 0c0,10 -1,18 -2,24 -3,22 -17,32 -43,32l-113 0c-12,0 -22,-3 -29,-10 -7,-7 -10,-17 -10,-29l0 -249 3 -3 183 0c2,8 3,17 3,27 0,10 -2,20 -6,30l-116 0 1 31 0 29c7,0 16,0 28,0l65 0c3,8 4,17 4,27 0,10 -1,20 -4,28l-93 0 0 32z"/>
   <path class="fil2" d="M14514 10235c1,-9 4,-19 9,-28 5,-9 11,-17 17,-23 31,19 59,28 87,28 12,0 20,-3 26,-8 5,-6 8,-12 8,-20 0,-14 -9,-24 -27,-32l-50 -21c-19,-9 -34,-19 -45,-32 -10,-12 -16,-27 -16,-46 0,-13 3,-25 8,-36 6,-11 13,-20 22,-28 10,-8 21,-14 34,-19 13,-4 28,-6 43,-6 32,0 64,8 96,24 -1,22 -9,39 -23,51 -28,-14 -54,-21 -76,-21 -11,0 -20,3 -25,8 -6,5 -9,11 -9,17 0,11 8,20 25,27l51 22c22,9 38,20 48,34 11,15 16,31 16,50 0,13 -2,25 -7,36 -5,11 -12,21 -21,29 -10,8 -22,14 -36,19 -14,4 -31,7 -50,7 -36,0 -72,-11 -105,-32z"/>
   <path class="fil2" d="M14865 10174l-1 31 0 0c13,0 24,0 32,0l98 0c0,10 0,18 -1,24 -4,22 -18,32 -44,32l-113 0c-12,0 -21,-3 -28,-10 -7,-7 -11,-17 -11,-29l0 -249 3 -3 183 0c2,8 3,17 3,27 0,10 -2,20 -6,30l-116 0 1 31 0 29c7,0 17,0 29,0l64 0c3,8 4,17 4,27 0,10 -1,20 -4,28l-93 0 0 32z"/>
   <path class="fil2" d="M15270 10060c0,9 -1,18 -4,26 -3,9 -6,16 -11,23 -5,6 -10,12 -17,17 -6,5 -13,9 -19,11 14,6 25,19 32,40l13 36c5,14 12,24 21,31 -4,6 -10,11 -19,14 -8,4 -18,6 -28,6 -10,0 -18,-3 -24,-9 -5,-5 -11,-16 -15,-30l-16 -45c-3,-8 -7,-15 -12,-19 -5,-5 -13,-7 -24,-7l-17 0 0 106c-9,2 -21,3 -34,3 -14,0 -25,-1 -34,-3l0 -288 3 -3c25,0 46,-1 62,-1 17,0 31,0 40,0 16,0 30,2 43,5 12,4 23,10 32,18 9,7 16,17 21,28 5,12 7,26 7,41zm-140 -42l0 84c13,0 23,0 33,-1 9,0 16,-2 21,-5 6,-3 10,-7 13,-13 3,-5 4,-13 4,-23 0,-28 -13,-41 -40,-41l-17 0c-6,0 -10,-1 -14,-1z"/>
   <path class="fil2" d="M15439 10203l56 -233c7,-1 16,-2 26,-2 15,0 27,1 35,4l3 4 -80 284c-16,2 -32,3 -48,3 -17,0 -28,-2 -36,-6 -7,-4 -12,-13 -16,-25l-70 -256c15,-6 27,-10 37,-10 12,0 21,3 27,8 5,6 10,14 13,26l33 121c5,19 10,45 16,77 0,4 2,5 4,5z"/>
   <path class="fil2" d="M15665 10200c-8,0 -13,-1 -17,-1l-18 62c-7,1 -17,2 -29,2 -13,0 -24,-1 -33,-4l-2 -4 93 -285c11,-2 24,-2 39,-2 17,0 30,1 40,3l92 285c-10,5 -21,8 -34,8 -15,0 -25,-2 -31,-8 -6,-5 -11,-14 -15,-29l-8 -28c-4,0 -9,1 -17,1l-60 0zm-1 -54l17 0 31 0c1,0 3,0 7,0 4,0 6,0 8,0l-7 -26c-7,-24 -15,-53 -24,-88l-2 0c-2,12 -9,39 -21,81l-9 33z"/>
   <path class="fil2" d="M14183 10418l3 3 0 289c-12,2 -25,3 -40,3 -16,0 -30,0 -41,-2l-67 -152c-8,-17 -16,-37 -24,-60l-2 0c4,42 5,84 5,127l0 85c-8,2 -19,2 -31,2 -13,0 -23,0 -32,-2l0 -289c11,-2 24,-4 39,-4 15,0 29,1 41,3l65 151c12,28 21,50 27,65l1 -1c-3,-39 -5,-81 -5,-125l0 -52c0,-15 3,-25 9,-32 6,-6 16,-9 29,-9l23 0z"/>
   <path class="fil2" d="M14341 10650c-7,0 -13,0 -17,0l-18 61c-7,2 -16,3 -28,3 -14,0 -25,-2 -33,-5l-2 -3 93 -285c11,-2 24,-3 39,-3 16,0 30,1 40,3l91 286c-10,5 -21,8 -33,8 -15,0 -25,-3 -31,-8 -6,-5 -11,-15 -16,-29l-8 -28c-3,0 -9,0 -16,0l-61 0zm-1 -53l17 -1 31 0c2,0 4,0 8,0 3,1 6,1 7,1l-7 -27c-7,-23 -14,-53 -23,-87l-3 0c-2,12 -9,39 -20,81l-10 33z"/>
   <path class="fil2" d="M14673 10477l0 32 0 202c-9,2 -21,2 -34,2 -13,0 -24,0 -33,-2l0 -234 -28 1 -43 0c-2,-9 -3,-18 -3,-29 0,-10 1,-20 3,-28l209 0c3,7 4,16 4,27 0,10 -3,18 -9,23 -5,4 -14,7 -27,7l-12 0 -27 -1 0 0z"/>
   <path class="fil2" d="M15026 10421l0 183c0,36 -10,64 -30,84 -19,19 -48,29 -84,29 -37,0 -65,-10 -85,-29 -20,-20 -30,-48 -30,-84l0 -183 3 -3 25 0c27,0 40,14 40,43l0 144c0,20 4,34 11,44 7,10 19,14 36,14 17,0 29,-4 36,-14 7,-10 10,-24 10,-44l0 -184c9,-2 20,-3 34,-3 14,0 25,1 34,3z"/>
   <path class="fil2" d="M15316 10510c0,10 -1,19 -4,27 -3,8 -7,16 -11,22 -5,7 -11,13 -17,18 -6,5 -13,9 -20,11 15,6 26,19 33,39l13 36c4,14 12,25 21,32 -4,5 -11,10 -19,14 -9,4 -18,6 -28,6 -10,0 -18,-3 -24,-9 -6,-6 -11,-16 -16,-30l-15 -45c-3,-8 -7,-15 -13,-19 -5,-5 -13,-7 -23,-7l-18 0 0 106c-9,2 -20,2 -34,2 -13,0 -24,0 -33,-2l0 -288 3 -3c25,-1 45,-1 62,-1 17,-1 30,-1 40,-1 15,0 30,2 42,6 13,4 24,10 33,17 9,8 16,18 21,29 5,12 7,25 7,40zm-141 -41l0 83c13,0 24,0 33,0 9,-1 17,-2 22,-5 6,-3 10,-7 13,-13 2,-5 4,-13 4,-23 0,-28 -13,-42 -40,-42l-18 0c-5,0 -10,0 -14,0z"/>
   <path class="fil2" d="M15461 10650c-8,0 -13,0 -17,0l-18 61c-7,2 -17,3 -29,3 -13,0 -25,-2 -33,-5l-2 -3 93 -285c11,-2 24,-3 39,-3 17,0 30,1 40,3l92 286c-10,5 -22,8 -34,8 -15,0 -25,-3 -31,-8 -6,-5 -11,-15 -15,-29l-8 -28c-4,0 -9,0 -17,0l-60 0zm-1 -53l17 -1 31 0c1,0 3,0 7,0 4,1 6,1 8,1l-7 -27c-7,-23 -15,-53 -24,-87l-2 0c-3,12 -9,39 -21,81l-9 33z"/>
   <path class="fil2" d="M15790 10654l73 0c0,11 0,21 -2,29 -1,8 -6,15 -13,20 -8,6 -18,9 -30,9l-96 0c-13,0 -22,-3 -29,-10 -7,-8 -11,-17 -11,-29l0 -252 3 -3 25 0c26,0 40,14 40,43l0 194c12,-1 25,-1 40,-1z"/>
   <polygon class="fil12" points="4238,10228 3704,10228 3704,9994 4238,9994 "/>
   <path class="fil2" d="M4238 10254l-534 0c-15,0 -26,-11 -26,-26l0 -234c0,-14 11,-26 26,-26l534 0c15,0 26,12 26,26l0 234c0,15 -11,26 -26,26zm-508 -52l482 0 0 -182 -482 0 0 182z"/>
   <path class="fil10" d="M10077 10190c0,-109 89,-198 199,-198 110,0 199,89 199,198 0,163 131,294 293,294 163,0 294,-131 294,-294l398 0c0,382 -310,692 -692,692 -381,0 -691,-310 -691,-692z"/>
   <path class="fil2" d="M10768 10908c-395,0 -717,-322 -717,-718 0,-123 101,-224 225,-224 124,0 225,101 225,224 0,148 120,268 267,268 148,0 268,-120 268,-268 0,-14 12,-26 26,-26l398 0c14,0 26,12 26,26 0,396 -322,718 -718,718zm-492 -890c-95,0 -173,77 -173,172 0,367 299,666 665,666 359,0 651,-285 665,-640l-346 0c-13,165 -151,294 -319,294 -176,0 -319,-143 -319,-320 0,-95 -78,-172 -173,-172z"/>
   <path class="fil10" d="M11263 10295c137,0 248,-111 248,-248 0,-137 -111,-247 -248,-247 -137,0 -248,110 -248,247 0,137 111,248 248,248z"/>
   <path class="fil2" d="M11263 10321c-151,0 -274,-123 -274,-274 0,-151 123,-274 274,-274 151,0 274,123 274,274 0,151 -123,274 -274,274zm0 -495c-122,0 -222,99 -222,221 0,122 100,222 222,222 122,0 222,-100 222,-222 0,-122 -100,-221 -222,-221z"/>
   <path class="fil11" d="M9578 9744c506,0 915,204 915,457l0 1968 -1830 0 0 -1968c0,-253 409,-457 915,-457z"/>
   <path class="fil2" d="M10493 12195l-1830 0c-15,0 -26,-11 -26,-26l0 -1968c0,-271 413,-483 941,-483 528,0 941,212 941,483l0 1968c0,15 -11,26 -26,26zm-1804 -52l1778 0 0 -1942c0,-238 -399,-431 -889,-431 -490,0 -889,193 -889,431l0 1942z"/>
   <polygon class="fil13" points="10496,11357 8665,11357 8665,12169 10496,12169 "/>
   <path class="fil2" d="M10496 12195l-1831 0c-15,0 -26,-11 -26,-26l0 -812c0,-15 11,-26 26,-26l1831 0c14,0 26,11 26,26l0 812c0,15 -12,26 -26,26zm-1805 -52l1779 0 0 -760 -1779 0 0 760z"/>
   <path class="fil10" d="M8973 9417c0,334 271,605 605,605 334,0 605,-271 605,-605 0,-334 -271,-605 -605,-605 -334,0 -605,271 -605,605z"/>
   <path class="fil2" d="M9578 10048c-348,0 -631,-283 -631,-631 0,-348 283,-632 631,-632 348,0 631,284 631,632 0,348 -283,631 -631,631zm0 -1211c-320,0 -579,260 -579,580 0,319 259,579 579,579 319,0 579,-260 579,-579 0,-320 -260,-580 -579,-580z"/>
   <path class="fil11" d="M9578 9316c47,0 86,38 86,86l0 171c0,47 -39,85 -86,85 -47,0 -86,-38 -86,-85l0 -171c0,-48 39,-86 86,-86z"/>
   <path class="fil2" d="M9578 9684c-62,0 -112,-50 -112,-111 0,-15 12,-26 26,-26 15,0 26,11 26,26 0,32 27,59 60,59 33,0 60,-27 60,-59l0 -171c0,-33 -27,-60 -60,-60 -14,0 -26,-12 -26,-26 0,-14 12,-26 26,-26 61,0 112,50 112,112l0 171c0,61 -51,111 -112,111z"/>
   <polygon class="fil10" points="9761,9487 10046,9487 10046,9316 9761,9316 "/>
   <path class="fil2" d="M10046 9513l-285 0c-15,0 -26,-12 -26,-26l0 -171c0,-14 11,-26 26,-26l285 0c15,0 26,12 26,26l0 171c0,14 -11,26 -26,26zm-259 -52l233 0 0 -119 -233 0 0 119z"/>
   <polygon class="fil10" points="9160,9487 9445,9487 9445,9316 9160,9316 "/>
   <path class="fil2" d="M9445 9513l-285 0c-14,0 -26,-12 -26,-26l0 -171c0,-14 12,-26 26,-26l285 0c15,0 26,12 26,26l0 171c0,14 -11,26 -26,26zm-259 -52l233 0 0 -119 -233 0 0 119z"/>
   <path class="fil2" d="M9761 9342l-316 0c-14,0 -26,-12 -26,-26 0,-14 12,-26 26,-26l316 0c14,0 26,12 26,26 0,14 -12,26 -26,26z"/>
   <path class="fil2" d="M9578 9894c-107,0 -194,-87 -194,-194 0,-15 11,-26 26,-26 14,0 26,11 26,26 0,78 63,142 142,142 78,0 142,-64 142,-142 0,-15 12,-26 26,-26 15,0 26,11 26,26 0,107 -87,194 -194,194z"/>
   <path class="fil14" d="M9488 8892c0,74 -78,133 -175,133 -97,0 -175,-59 -175,-133 0,-74 78,-133 175,-133 97,0 175,59 175,133z"/>
   <path class="fil2" d="M9313 9051c-111,0 -201,-71 -201,-159 0,-88 90,-159 201,-159 111,0 201,71 201,159 0,88 -90,159 -201,159zm0 -266c-82,0 -149,48 -149,107 0,59 67,107 149,107 82,0 149,-48 149,-107 0,-59 -67,-107 -149,-107z"/>
   <path class="fil14" d="M10018 8892c0,74 -79,133 -175,133 -97,0 -175,-59 -175,-133 0,-74 78,-133 175,-133 96,0 175,59 175,133z"/>
   <path class="fil2" d="M9843 9051c-111,0 -201,-71 -201,-159 0,-88 90,-159 201,-159 111,0 201,71 201,159 0,88 -90,159 -201,159zm0 -266c-83,0 -149,48 -149,107 0,59 66,107 149,107 82,0 149,-48 149,-107 0,-59 -67,-107 -149,-107z"/>
   <path class="fil14" d="M9843 8892c0,111 -119,202 -265,202 -146,0 -265,-91 -265,-202 0,-111 119,-201 265,-201 146,0 265,90 265,201z"/>
   <path class="fil2" d="M9578 9120c-160,0 -291,-102 -291,-228 0,-125 131,-227 291,-227 160,0 291,102 291,227 0,126 -131,228 -291,228zm0 -403c-132,0 -239,78 -239,175 0,97 107,176 239,176 132,0 239,-79 239,-176 0,-97 -107,-175 -239,-175z"/>
   <polygon class="fil15" points="9758,12826 10345,12826 10345,12169 9758,12169 "/>
   <path class="fil2" d="M10345 12852l-587 0c-14,0 -26,-12 -26,-26l0 -657c0,-14 12,-26 26,-26l587 0c14,0 26,12 26,26l0 657c0,14 -12,26 -26,26zm-561 -52l535 0 0 -605 -535 0 0 605z"/>
   <polygon class="fil15" points="8829,12826 9416,12826 9416,12169 8829,12169 "/>
   <path class="fil2" d="M9416 12852l-587 0c-14,0 -26,-12 -26,-26l0 -657c0,-14 12,-26 26,-26l587 0c14,0 26,12 26,26l0 657c0,14 -12,26 -26,26zm-561 -52l535 0 0 -605 -535 0 0 605z"/>
   <polygon class="fil10" points="10187,13405 10524,13742 9758,13742 9758,13547 9758,13405 9758,12826 10187,12826 "/>
   <path class="fil2" d="M10525 13768c-1,0 -1,0 -1,0l-766 0c-14,0 -26,-11 -26,-26l0 -916c0,-14 12,-26 26,-26l429 0c14,0 26,12 26,26l0 568 327 328c6,4 10,12 10,20 0,15 -11,26 -25,26zm-741 -52l677 0 -292 -292c-5,-5 -8,-12 -8,-19l0 -553 -377 0 0 864z"/>
   <polygon class="fil14" points="10256,13742 9758,13742 10187,13405 10403,13621 "/>
   <path class="fil2" d="M10256 13768l-498 0c-11,0 -21,-7 -25,-17 -3,-11 0,-22 9,-29l429 -337c10,-8 25,-7 35,2l215 215c5,6 8,13 8,20 -1,7 -4,14 -10,19l-147 121c-4,4 -10,6 -16,6zm-423 -52l414 0 117 -97 -179 -179 -352 276z"/>
   <polygon class="fil14" points="9758,13838 10524,13838 10524,13742 9758,13742 "/>
   <path class="fil2" d="M10524 13864l-766 0c-14,0 -26,-11 -26,-26l0 -96c0,-14 12,-26 26,-26l766 0c15,0 26,12 26,26l0 96c0,15 -11,26 -26,26zm-740 -52l714 0 0 -44 -714 0 0 44z"/>
   <polygon class="fil10" points="9259,13405 9596,13742 8829,13742 8829,13547 8829,13405 8829,12826 9259,12826 "/>
   <path class="fil2" d="M9596 13768c0,0 0,0 0,0l-767 0c-14,0 -26,-11 -26,-26l0 -916c0,-14 12,-26 26,-26l430 0c14,0 26,12 26,26l0 568 327 328c6,4 10,12 10,20 0,15 -12,26 -26,26zm-741 -52l678 0 -293 -292c-5,-5 -7,-12 -7,-19l0 -553 -378 0 0 864z"/>
   <polygon class="fil14" points="9327,13742 8829,13742 9259,13405 9474,13621 "/>
   <path class="fil2" d="M9327 13768l-498 0c-11,0 -21,-7 -24,-17 -4,-11 0,-22 8,-29l430 -337c10,-8 25,-7 34,2l216 215c5,6 8,13 7,20 0,7 -4,14 -9,19l-147 121c-5,4 -11,6 -17,6zm-422 -52l413 0 118 -97 -179 -179 -352 276z"/>
   <polygon class="fil14" points="8829,13838 9596,13838 9596,13742 8829,13742 "/>
   <path class="fil2" d="M9596 13864l-767 0c-14,0 -26,-11 -26,-26l0 -96c0,-14 12,-26 26,-26l767 0c14,0 26,12 26,26l0 96c0,15 -12,26 -26,26zm-741 -52l715 0 0 -44 -715 0 0 44z"/>
   <polygon class="fil13" points="9578,10503 9210,10503 9210,10285 8973,10183 9114,9806 9578,10503 9889,10503 9889,10298 10183,10273 10041,9806 9578,10503 9578,12169 "/>
   <path class="fil2" d="M9578 12195c-14,0 -26,-11 -26,-26l0 -1640 -342 0c-14,0 -26,-12 -26,-26l0 -200 -222 -96c-13,-6 -19,-20 -14,-33l142 -377c4,-9 12,-15 21,-16 10,-2 20,3 25,11l442 664 442 -664c5,-8 15,-13 25,-11 10,1 18,8 21,18l142 467c3,7 1,15 -3,22 -5,6 -12,11 -19,11l-271 22 0 182c0,14 -11,26 -26,26l-285 0 0 1640c0,15 -12,26 -26,26zm49 -1718l236 0 0 -179c0,-14 11,-25 24,-26l262 -22 -117 -383 -405 610zm-391 0l293 0 -408 -614 -115 306 214 93c10,4 16,13 16,23l0 192z"/>
   <polygon class="fil1" points="10345,11002 9761,11002 9761,10757 10345,10757 "/>
   <path class="fil2" d="M10345 11028l-584 0c-15,0 -26,-12 -26,-26l0 -245c0,-14 11,-26 26,-26l584 0c14,0 26,12 26,26l0 245c0,14 -12,26 -26,26zm-558 -52l532 0 0 -193 -532 0 0 193z"/>
   <path class="fil10" d="M7918 10348c-121,0 -219,-98 -219,-219 0,-121 98,-219 219,-219 121,0 219,98 219,219 0,121 -98,219 -219,219z"/>
   <path class="fil2" d="M7918 10374c-135,0 -245,-110 -245,-245 0,-135 110,-245 245,-245 135,0 245,110 245,245 0,135 -110,245 -245,245zm0 -438c-107,0 -193,86 -193,193 0,106 86,193 193,193 106,0 193,-87 193,-193 0,-107 -87,-193 -193,-193z"/>
   <path class="fil8" d="M7501 10937c0,-107 -88,-195 -195,-195 -108,0 -195,88 -195,195 0,160 -129,289 -288,289 -160,0 -289,-129 -289,-289l-389 0c0,375 303,678 678,678 374,0 678,-303 678,-678z"/>
   <path class="fil2" d="M6823 11641c-389,0 -704,-315 -704,-704 0,-14 11,-26 26,-26l389 0c15,0 26,12 26,26 0,145 118,263 263,263 144,0 262,-118 262,-263 0,-121 99,-221 221,-221 122,0 221,100 221,221 0,389 -316,704 -704,704zm-652 -678c14,348 301,626 652,626 359,0 652,-292 652,-652 0,-93 -76,-169 -169,-169 -93,0 -169,76 -169,169 0,174 -141,315 -314,315 -165,0 -300,-127 -314,-289l-338 0z"/>
   <path class="fil11" d="M6338 10937c-121,0 -219,-98 -219,-219 0,-120 98,-218 219,-218 120,0 219,98 219,218 0,121 -99,219 -219,219z"/>
   <path class="fil2" d="M6338 10963c-135,0 -245,-110 -245,-245 0,-135 110,-244 245,-244 135,0 244,109 244,244 0,135 -109,245 -244,245zm0 -437c-107,0 -193,86 -193,192 0,107 86,193 193,193 106,0 192,-86 192,-193 0,-106 -86,-192 -192,-192z"/>
   <path class="fil11" d="M7882 10547c432,0 782,174 782,390l0 1680 -1563 0 0 -1680c0,-216 350,-390 781,-390z"/>
   <path class="fil2" d="M8664 12643l-1563 0c-14,0 -26,-12 -26,-26l0 -1680c0,-233 355,-416 807,-416 453,0 808,183 808,416l0 1680c0,14 -12,26 -26,26zm-1537 -52l1511 0 0 -1654c0,-197 -346,-364 -756,-364 -409,0 -755,167 -755,364l0 1654z"/>
   <path class="fil11" d="M7322 10813c0,134 251,242 560,242 310,0 561,-108 561,-242 0,-133 -251,-241 -561,-241 -309,0 -560,108 -560,241z"/>
   <path class="fil2" d="M7882 11081c-328,0 -586,-117 -586,-268 0,-150 258,-267 586,-267 329,0 587,117 587,267 0,151 -258,268 -587,268zm0 -483c-319,0 -534,111 -534,215 0,105 215,216 534,216 320,0 535,-111 535,-216 0,-104 -215,-215 -535,-215z"/>
   <path class="fil2" d="M7215 9757c0,184 150,333 334,333 184,0 333,-149 333,-333 0,-185 -149,-334 -333,-334 -184,0 -334,149 -334,334z"/>
   <path class="fil2" d="M7549 10116c-198,0 -360,-161 -360,-359 0,-199 162,-360 360,-360 198,0 359,161 359,360 0,198 -161,359 -359,359zm0 -667c-170,0 -308,138 -308,308 0,169 138,307 308,307 169,0 307,-138 307,-307 0,-170 -138,-308 -307,-308z"/>
   <path class="fil2" d="M7734 9687c0,184 149,334 333,334 184,0 334,-150 334,-334 0,-184 -150,-333 -334,-333 -184,0 -333,149 -333,333z"/>
   <path class="fil2" d="M8067 10047c-198,0 -359,-162 -359,-360 0,-198 161,-359 359,-359 199,0 360,161 360,359 0,198 -161,360 -360,360zm0 -667c-169,0 -307,138 -307,307 0,170 138,308 307,308 170,0 308,-138 308,-308 0,-169 -138,-307 -308,-307z"/>
   <path class="fil2" d="M7997 10021c0,184 149,333 333,333 184,0 334,-149 334,-333 0,-185 -150,-334 -334,-334 -184,0 -333,149 -333,334z"/>
   <path class="fil2" d="M8330 10380c-198,0 -359,-161 -359,-359 0,-199 161,-360 359,-360 198,0 360,161 360,360 0,198 -162,359 -360,359zm0 -667c-169,0 -307,138 -307,308 0,169 138,307 307,307 170,0 308,-138 308,-307 0,-170 -138,-308 -308,-308z"/>
   <path class="fil2" d="M7120 10126c0,184 149,333 333,333 185,0 334,-149 334,-333 0,-184 -149,-334 -334,-334 -184,0 -333,150 -333,334z"/>
   <path class="fil2" d="M7453 10485c-198,0 -359,-161 -359,-359 0,-198 161,-360 359,-360 199,0 360,162 360,360 0,198 -161,359 -360,359zm0 -667c-169,0 -307,138 -307,308 0,169 138,307 307,307 170,0 308,-138 308,-307 0,-170 -138,-308 -308,-308z"/>
   <path class="fil11" d="M7366 10268c0,285 231,517 516,517 286,0 517,-232 517,-517 0,-285 -231,-517 -517,-517 -285,0 -516,232 -516,517z"/>
   <path class="fil2" d="M7882 10810c-299,0 -542,-243 -542,-542 0,-299 243,-543 542,-543 300,0 543,244 543,543 0,299 -243,542 -543,542zm0 -1033c-270,0 -490,220 -490,491 0,270 220,490 490,490 271,0 491,-220 491,-490 0,-271 -220,-491 -491,-491z"/>
   <path class="fil10" d="M7882 10223c41,0 73,33 73,73l0 64c0,40 -32,73 -73,73 -40,0 -73,-33 -73,-73l0 -64c0,-40 33,-73 73,-73z"/>
   <path class="fil2" d="M7882 10459c-54,0 -99,-45 -99,-99 0,-15 12,-26 26,-26 15,0 26,11 26,26 0,26 22,47 47,47 26,0 47,-21 47,-47l0 -64c0,-26 -21,-47 -47,-47 -14,0 -26,-12 -26,-26 0,-14 12,-26 26,-26 55,0 99,44 99,99l0 64c0,54 -44,99 -99,99z"/>
   <path class="fil2" d="M7607 10198c0,22 18,40 41,40 22,0 40,-18 40,-40 0,-23 -18,-41 -40,-41 -23,0 -41,18 -41,41z"/>
   <path class="fil2" d="M8096 10198c0,22 18,40 41,40 22,0 40,-18 40,-40 0,-23 -18,-41 -40,-41 -23,0 -41,18 -41,41z"/>
   <path class="fil2" d="M7603 9855c0,0 250,168 763,271 0,0 -218,-600 -763,-271z"/>
   <path class="fil2" d="M8406 10161l-46 -10c-512,-102 -762,-267 -772,-274l-34 -23 35 -21c113,-68 221,-102 321,-102 336,0 474,370 480,386l16 44zm-752 -305c83,46 305,156 667,234 -46,-95 -177,-307 -411,-307 -79,0 -165,24 -256,73z"/>
   <path class="fil2" d="M7882 10652c-86,0 -156,-70 -156,-156 0,-15 12,-26 26,-26 14,0 26,11 26,26 0,57 47,104 104,104 58,0 105,-47 105,-104 0,-15 12,-26 26,-26 14,0 26,11 26,26 0,86 -70,156 -157,156z"/>
   <polygon class="fil10" points="8493,13407 8824,13738 8072,13738 8072,13546 8072,13407 8072,12839 8493,12839 "/>
   <path class="fil2" d="M8824 13764c0,0 0,0 0,0l-752 0c-14,0 -26,-12 -26,-26l0 -899c0,-14 12,-26 26,-26l421 0c14,0 26,12 26,26l0 558 321 320c6,5 10,12 10,21 0,14 -12,26 -26,26zm-726 -52l663 0 -286 -286c-5,-5 -8,-12 -8,-19l0 -542 -369 0 0 847z"/>
   <polygon class="fil16" points="8561,13738 8072,13738 8493,13407 8705,13619 "/>
   <path class="fil2" d="M8561 13764l-489 0c-11,0 -21,-7 -25,-18 -3,-10 0,-22 9,-29l421 -330c10,-8 25,-7 34,2l212 211c5,6 8,13 7,20 0,7 -3,14 -9,19l-144 119c-5,4 -10,6 -16,6zm-414 -52l404 0 115 -95 -175 -175 -344 270z"/>
   <polygon class="fil16" points="8072,13832 8824,13832 8824,13738 8072,13738 "/>
   <path class="fil2" d="M8824 13858l-752 0c-14,0 -26,-12 -26,-26l0 -94c0,-14 12,-26 26,-26l752 0c14,0 26,12 26,26l0 94c0,14 -12,26 -26,26zm-726 -52l700 0 0 -42 -700 0 0 42z"/>
   <polygon class="fil10" points="7637,13407 7967,13738 7215,13738 7215,13546 7215,13407 7215,12839 7637,12839 "/>
   <path class="fil2" d="M7968 13764c-1,0 -1,0 -1,0l-752 0c-14,0 -26,-12 -26,-26l0 -899c0,-14 12,-26 26,-26l422 0c14,0 26,12 26,26l0 558 320 320c6,5 10,12 10,21 0,14 -11,26 -25,26zm-727 -52l663 0 -286 -286c-5,-5 -7,-12 -7,-19l0 -542 -370 0 0 847z"/>
   <polygon class="fil16" points="7704,13738 7215,13738 7637,13407 7848,13619 "/>
   <path class="fil2" d="M7704 13764l-489 0c-11,0 -21,-7 -24,-18 -4,-10 0,-22 8,-29l421 -330c11,-8 26,-7 35,2l211 211c6,6 8,13 8,20 0,7 -4,14 -9,19l-144 119c-5,4 -11,6 -17,6zm-413 -52l404 0 114 -95 -175 -175 -343 270z"/>
   <polygon class="fil16" points="7215,13832 7967,13832 7967,13738 7215,13738 "/>
   <path class="fil2" d="M7967 13858l-752 0c-14,0 -26,-12 -26,-26l0 -94c0,-14 12,-26 26,-26l752 0c15,0 26,12 26,26l0 94c0,14 -11,26 -26,26zm-726 -52l700 0 0 -42 -700 0 0 42z"/>
   <polygon class="fil15" points="7752,12617 7215,12617 7215,13054 7752,13054 "/>
   <path class="fil2" d="M7752 13080l-537 0c-14,0 -26,-11 -26,-26l0 -437c0,-15 12,-26 26,-26l537 0c14,0 26,11 26,26l0 437c0,15 -12,26 -26,26zm-511 -52l485 0 0 -385 -485 0 0 385z"/>
   <polygon class="fil15" points="8595,12617 8058,12617 8058,13054 8595,13054 "/>
   <path class="fil2" d="M8595 13080l-537 0c-14,0 -26,-11 -26,-26l0 -437c0,-15 12,-26 26,-26l537 0c14,0 26,11 26,26l0 437c0,15 -12,26 -26,26zm-511 -52l485 0 0 -385 -485 0 0 385z"/>
   <polygon class="fil13" points="7101,12617 8657,12617 8657,11816 7101,11816 "/>
   <path class="fil2" d="M8657 12643l-1556 0c-14,0 -26,-12 -26,-26l0 -801c0,-14 12,-26 26,-26l1556 0c14,0 26,12 26,26l0 801c0,14 -12,26 -26,26zm-1530 -52l1504 0 0 -749 -1504 0 0 749z"/>
   <polygon class="fil1" points="8479,11536 7924,11536 7924,11269 8479,11269 "/>
   <path class="fil2" d="M8479 11562l-555 0c-15,0 -26,-11 -26,-26l0 -267c0,-15 11,-26 26,-26l555 0c15,0 26,11 26,26l0 267c0,15 -11,26 -26,26zm-529 -52l503 0 0 -215 -503 0 0 215z"/>
   <polygon class="fil13" points="4840,11897 5392,11897 5392,11280 4840,11280 "/>
   <path class="fil2" d="M5392 11923l-552 0c-14,0 -26,-12 -26,-26l0 -617c0,-14 12,-26 26,-26l552 0c14,0 26,12 26,26l0 617c0,14 -12,26 -26,26zm-526 -52l500 0 0 -565 -500 0 0 565z"/>
   <polygon class="fil13" points="3967,11897 4519,11897 4519,11280 3967,11280 "/>
   <path class="fil2" d="M4519 11923l-552 0c-14,0 -26,-12 -26,-26l0 -617c0,-14 12,-26 26,-26l552 0c14,0 26,12 26,26l0 617c0,14 -12,26 -26,26zm-526 -52l500 0 0 -565 -500 0 0 565z"/>
   <polygon class="fil8" points="5244,12442 5560,12758 4840,12758 4840,12574 4840,12442 4840,11897 5244,11897 "/>
   <path class="fil2" d="M5561 12784c0,0 0,0 -1,0l-720 0c-14,0 -26,-11 -26,-26l0 -861c0,-14 12,-26 26,-26l404 0c14,0 26,12 26,26l0 534 306 307c7,4 11,12 11,20 0,15 -12,26 -26,26zm-695 -52l632 0 -273 -272c-5,-5 -7,-12 -7,-18l0 -519 -352 0 0 809z"/>
   <polygon class="fil10" points="5308,12758 4840,12758 5244,12442 5446,12644 "/>
   <path class="fil2" d="M5308 12784l-468 0c-11,0 -21,-7 -24,-17 -4,-11 -1,-22 8,-29l404 -317c10,-8 25,-7 34,2l203 203c5,5 8,12 7,19 0,8 -4,15 -9,19l-138 114c-5,4 -11,6 -17,6zm-393 -52l384 0 109 -90 -166 -166 -327 256z"/>
   <polygon class="fil10" points="4840,12849 5560,12849 5560,12758 4840,12758 "/>
   <path class="fil2" d="M5560 12875l-720 0c-14,0 -26,-12 -26,-26l0 -91c0,-14 12,-26 26,-26l720 0c15,0 26,12 26,26l0 91c0,14 -11,26 -26,26zm-694 -52l668 0 0 -39 -668 0 0 39z"/>
   <polygon class="fil8" points="4371,12442 4688,12758 3967,12758 3967,12574 3967,12442 3967,11897 4371,11897 "/>
   <path class="fil2" d="M4688 12784c0,0 0,0 0,0l-721 0c-14,0 -26,-11 -26,-26l0 -861c0,-14 12,-26 26,-26l404 0c14,0 26,12 26,26l0 534 307 307c6,4 10,12 10,20 0,15 -12,26 -26,26zm-695 -52l632 0 -273 -272c-4,-5 -7,-12 -7,-18l0 -519 -352 0 0 809z"/>
   <polygon class="fil10" points="4436,12758 3967,12758 4371,12442 4573,12644 "/>
   <path class="fil2" d="M4436 12784l-469 0c-11,0 -21,-7 -24,-17 -4,-11 0,-22 8,-29l404 -317c10,-8 25,-7 34,2l203 203c5,5 8,12 7,19 0,8 -3,15 -9,19l-138 114c-5,4 -10,6 -16,6zm-393 -52l383 0 109 -90 -166 -166 -326 256z"/>
   <polygon class="fil10" points="3967,12849 4688,12849 4688,12758 3967,12758 "/>
   <path class="fil2" d="M4688 12875l-721 0c-14,0 -26,-12 -26,-26l0 -91c0,-14 12,-26 26,-26l721 0c14,0 26,12 26,26l0 91c0,14 -12,26 -26,26zm-695 -52l669 0 0 -39 -669 0 0 39z"/>
   <path class="fil2" d="M4926 8216c-71,59 -82,164 -23,235l477 579 258 -212 -477 -579c-59,-71 -164,-82 -235,-23z"/>
   <path class="fil2" d="M5376 9067l-493 -599c-68,-82 -56,-204 26,-272 35,-28 78,-44 123,-44 58,0 112,26 149,70l494 599 -299 246zm-344 -863c-33,0 -64,11 -90,32 -60,50 -68,139 -19,199l460 559 218 -180 -460 -559c-27,-32 -67,-51 -109,-51z"/>
   <path class="fil8" d="M5086 9575c0,-119 96,-215 215,-215 118,0 214,96 214,215 0,175 142,317 317,317 175,0 317,-142 317,-317l429 0c0,412 -334,745 -746,745 -412,0 -746,-333 -746,-745z"/>
   <path class="fil2" d="M5832 10346c-426,0 -772,-346 -772,-771 0,-133 108,-241 241,-241 132,0 240,108 240,241 0,160 130,291 291,291 160,0 291,-131 291,-291 0,-15 12,-26 26,-26l429 0c14,0 26,11 26,26 0,425 -347,771 -772,771zm-531 -960c-104,0 -189,85 -189,189 0,397 323,719 720,719 388,0 705,-308 719,-693l-377 0c-13,177 -162,317 -342,317 -189,0 -343,-154 -343,-343 0,-104 -85,-189 -188,-189z"/>
   <path class="fil8" d="M6365 9669c140,0 253,-114 253,-253 0,-140 -113,-254 -253,-254 -139,0 -253,114 -253,254 0,139 114,253 253,253z"/>
   <path class="fil2" d="M6365 9695c-153,0 -279,-126 -279,-279 0,-154 126,-280 279,-280 154,0 279,126 279,280 0,153 -125,279 -279,279zm0 -507c-125,0 -227,102 -227,228 0,125 102,227 227,227 126,0 227,-102 227,-227 0,-126 -101,-228 -227,-228z"/>
   <path class="fil8" d="M4666 9145c-474,0 -859,192 -859,430l0 1847 1718 0 0 -1847c0,-238 -384,-430 -859,-430z"/>
   <path class="fil2" d="M5525 11448l-1718 0c-14,0 -26,-12 -26,-26l0 -1847c0,-256 389,-456 885,-456 497,0 885,200 885,456l0 1847c0,14 -11,26 -26,26zm-1692 -52l1666 0 0 -1821c0,-223 -373,-404 -833,-404 -459,0 -833,181 -833,404l0 1821z"/>
   <path class="fil8" d="M5234 8838c0,314 -254,569 -568,569 -314,0 -568,-255 -568,-569 0,-313 254,-568 568,-568 314,0 568,255 568,568z"/>
   <path class="fil2" d="M4666 9433c-327,0 -594,-267 -594,-595 0,-327 267,-594 594,-594 328,0 595,267 595,594 0,328 -267,595 -595,595zm0 -1137c-299,0 -542,243 -542,542 0,299 243,543 542,543 299,0 543,-244 543,-543 0,-299 -244,-542 -543,-542z"/>
   <path class="fil11" d="M4666 8789c-44,0 -80,36 -80,80l0 70c0,45 36,81 80,81 45,0 81,-36 81,-81l0 -70c0,-44 -36,-80 -81,-80z"/>
   <path class="fil2" d="M4666 9046c-58,0 -106,-48 -106,-107l0 -70c0,-58 48,-106 106,-106 15,0 26,12 26,26 0,14 -11,26 -26,26 -30,0 -54,24 -54,54l0 70c0,30 24,55 54,55 30,0 55,-25 55,-55 0,-14 11,-26 26,-26 14,0 26,12 26,26 0,59 -48,107 -107,107z"/>
   <path class="fil2" d="M4418 8761c0,25 -20,44 -44,44 -25,0 -44,-19 -44,-44 0,-24 19,-44 44,-44 24,0 44,20 44,44z"/>
   <path class="fil2" d="M4969 8761c0,25 -20,44 -44,44 -25,0 -45,-19 -45,-44 0,-24 20,-44 45,-44 24,0 44,20 44,44z"/>
   <path class="fil2" d="M4666 9267c-90,0 -163,-73 -163,-164 0,-14 11,-26 26,-26 14,0 26,12 26,26 0,62 50,112 111,112 62,0 112,-50 112,-112 0,-14 12,-26 26,-26 14,0 26,12 26,26 0,91 -73,164 -164,164z"/>
   <path class="fil2" d="M4351 8365c0,0 170,236 735,90 0,0 -147,-161 -339,-185 -281,-35 -396,95 -396,95z"/>
   <path class="fil2" d="M4750 8529l0 0c-309,0 -415,-142 -420,-148l-12 -17 14 -16c4,-4 100,-110 322,-110 31,0 63,2 96,6 200,25 349,187 355,194l29 32 -41 11c-125,32 -240,48 -343,48zm-362 -162c38,34 145,110 362,110l0 0c86,0 181,-12 284,-36 -52,-46 -162,-129 -291,-145 -30,-4 -60,-6 -89,-6 -148,0 -232,51 -266,77z"/>
   <polygon class="fil13" points="5525,11043 3807,11043 3807,11422 5525,11422 "/>
   <path class="fil2" d="M5525 11448l-1718 0c-14,0 -26,-12 -26,-26l0 -379c0,-14 12,-26 26,-26l1718 0c15,0 26,12 26,26l0 379c0,14 -11,26 -26,26zm-1692 -52l1666 0 0 -327 -1666 0 0 327z"/>
   <path class="fil11" d="M4237 10046c0,28 -23,50 -50,50 -27,0 -49,-22 -49,-50 0,-27 22,-49 49,-49 27,0 50,22 50,49z"/>
   <path class="fil2" d="M4187 10122c-41,0 -75,-34 -75,-76 0,-41 34,-75 75,-75 42,0 76,34 76,75 0,42 -34,76 -76,76zm0 -99c-13,0 -23,11 -23,23 0,13 10,24 23,24 13,0 24,-11 24,-24 0,-12 -11,-23 -24,-23z"/>
   <path class="fil11" d="M5195 10046c0,28 -22,50 -50,50 -27,0 -49,-22 -49,-50 0,-27 22,-49 49,-49 28,0 50,22 50,49z"/>
   <path class="fil2" d="M5145 10122c-41,0 -75,-34 -75,-76 0,-41 34,-75 75,-75 42,0 76,34 76,75 0,42 -34,76 -76,76zm0 -99c-13,0 -23,11 -23,23 0,13 10,24 23,24 13,0 24,-11 24,-24 0,-12 -11,-23 -24,-23z"/>
   <path class="fil2" d="M4729 10531c0,21 -17,39 -38,39 -22,0 -39,-18 -39,-39 0,-21 17,-39 39,-39 21,0 38,18 38,39z"/>
  </g>
 </g>
</svg>
