<?xml version="1.0" encoding="UTF-8"?>
<!DOCTYPE svg PUBLIC "-//W3C//DTD SVG 1.1//EN" "http://www.w3.org/Graphics/SVG/1.1/DTD/svg11.dtd">
<!-- Creator: CorelDRAW X7 -->
<svg xmlns="http://www.w3.org/2000/svg" xml:space="preserve" width="190.5mm" height="338.667mm" version="1.1" style="shape-rendering:geometricPrecision; text-rendering:geometricPrecision; image-rendering:optimizeQuality; fill-rule:evenodd; clip-rule:evenodd"
viewBox="0 0 19050 33867"
 xmlns:xlink="http://www.w3.org/1999/xlink">
 <defs>
  <style type="text/css">
   <![CDATA[
    .fil10 {fill:#006A5E;fill-rule:nonzero}
    .fil6 {fill:#395173;fill-rule:nonzero}
    .fil7 {fill:#4D3E37;fill-rule:nonzero}
    .fil2 {fill:#541124;fill-rule:nonzero}
    .fil14 {fill:#54BDBE;fill-rule:nonzero}
    .fil19 {fill:#5AAE92;fill-rule:nonzero}
    .fil18 {fill:#6B604E;fill-rule:nonzero}
    .fil21 {fill:#6EBA6D;fill-rule:nonzero}
    .fil0 {fill:#75D1B0;fill-rule:nonzero}
    .fil9 {fill:#7EC0A2;fill-rule:nonzero}
    .fil4 {fill:#A1B71C;fill-rule:nonzero}
    .fil1 {fill:#BEC2B0;fill-rule:nonzero}
    .fil8 {fill:#C51718;fill-rule:nonzero}
    .fil16 {fill:#C6DD9F;fill-rule:nonzero}
    .fil12 {fill:#D3632B;fill-rule:nonzero}
    .fil11 {fill:#DEA518;fill-rule:nonzero}
    .fil5 {fill:#E2E7C7;fill-rule:nonzero}
    .fil17 {fill:#F0D3C3;fill-rule:nonzero}
    .fil20 {fill:#F7F4E6;fill-rule:nonzero}
    .fil13 {fill:#FFED00;fill-rule:nonzero}
    .fil15 {fill:#FFFBDA;fill-rule:nonzero}
    .fil3 {fill:white;fill-rule:nonzero}
   ]]>
  </style>
 </defs>
 <g id="Capa_x0020_1">
  <metadata id="CorelCorpID_0Corel-Layer"/>
  <polygon class="fil0" points="0,33867 19050,33867 19050,0 0,0 "/>
  <g id="_215620078128">
   <path class="fil1" d="M2488 22523c0,-125 -102,-226 -227,-226 -124,0 -226,101 -226,226 0,185 -149,334 -334,334 -185,0 -334,-149 -334,-334l-453 0c0,434 352,787 787,787 434,0 787,-353 787,-787z"/>
   <path class="fil2" d="M1701 23341c-451,0 -818,-367 -818,-818 0,-17 14,-32 31,-32l453 0c17,0 31,15 31,32 0,167 136,303 303,303 167,0 303,-136 303,-303 0,-142 115,-258 257,-258 143,0 258,116 258,258 0,451 -367,818 -818,818zm-755 -787c17,402 349,724 755,724 416,0 755,-339 755,-755 0,-107 -87,-195 -195,-195 -107,0 -194,88 -194,195 0,202 -164,366 -366,366 -191,0 -349,-148 -365,-335l-390 0z"/>
   <path class="fil3" d="M1138 22523c-140,0 -254,-114 -254,-254 0,-140 114,-254 254,-254 140,0 254,114 254,254 0,140 -114,254 -254,254z"/>
   <path class="fil2" d="M1138 22554c-157,0 -285,-128 -285,-285 0,-158 128,-286 285,-286 158,0 286,128 286,286 0,157 -128,285 -286,285zm0 -508c-123,0 -222,100 -222,223 0,123 99,222 222,222 123,0 223,-99 223,-222 0,-123 -100,-223 -223,-223z"/>
   <path class="fil3" d="M3046 22014c576,0 1042,233 1042,521l0 2241 -2084 0 0 -2241c0,-288 467,-521 1042,-521z"/>
   <path class="fil2" d="M4088 24807l-2084 0c-17,0 -31,-14 -31,-31l0 -2241c0,-310 471,-552 1073,-552 602,0 1074,242 1074,552l0 2241c0,17 -15,31 -32,31zm-2053 -63l2022 0 0 -2209c0,-270 -454,-489 -1011,-489 -557,0 -1011,219 -1011,489l0 2209z"/>
   <polygon class="fil4" points="3046,24146 2357,24146 2357,21733 2518,22086 3046,22947 "/>
   <path class="fil2" d="M3046 24177l-689 0c-18,0 -32,-14 -32,-31l0 -2413c0,-15 11,-28 25,-31 15,-3 29,4 35,18l161 351 527 859c3,5 5,11 5,17l0 1199c0,17 -15,31 -32,31zm-658 -63l627 0 0 -1158 -523 -854c-1,-1 -2,-2 -2,-3l-102 -222 0 2237z"/>
   <path class="fil3" d="M2357 21642c0,381 308,690 689,690 381,0 689,-309 689,-690 0,-380 -308,-689 -689,-689 -381,0 -689,309 -689,689z"/>
   <path class="fil2" d="M3046 22363c-397,0 -721,-323 -721,-721 0,-397 324,-720 721,-720 397,0 721,323 721,720 0,398 -324,721 -721,721zm0 -1378c-363,0 -658,295 -658,657 0,363 295,658 658,658 363,0 658,-295 658,-658 0,-362 -295,-657 -658,-657z"/>
   <path class="fil5" d="M3046 21527c54,0 97,44 97,98l0 195c0,53 -43,97 -97,97 -54,0 -97,-44 -97,-97l0 -195c0,-54 43,-98 97,-98z"/>
   <path class="fil2" d="M3046 21949c-71,0 -129,-58 -129,-129 0,-18 14,-32 32,-32 17,0 31,14 31,32 0,36 30,66 66,66 36,0 66,-30 66,-66l0 -195c0,-36 -30,-66 -66,-66 -17,0 -31,-14 -31,-32 0,-17 14,-31 31,-31 71,0 129,58 129,129l0 195c0,71 -58,129 -129,129z"/>
   <path class="fil2" d="M3306 21582c0,26 21,47 47,47 25,0 46,-21 46,-47 0,-25 -21,-46 -46,-46 -26,0 -47,21 -47,46z"/>
   <path class="fil2" d="M2725 21582c0,26 21,47 47,47 25,0 46,-21 46,-47 0,-25 -21,-46 -46,-46 -26,0 -47,21 -47,46z"/>
   <polygon class="fil6" points="2864,26182 2197,26182 2197,24776 2864,24776 "/>
   <path class="fil2" d="M2864 26214l-667 0c-18,0 -32,-14 -32,-32l0 -1406c0,-18 14,-32 32,-32l667 0c18,0 32,14 32,32l0 1406c0,18 -14,32 -32,32zm-636 -63l605 0 0 -1344 -605 0 0 1344z"/>
   <polygon class="fil6" points="3919,26182 3252,26182 3252,24776 3919,24776 "/>
   <path class="fil2" d="M3919 26214l-667 0c-18,0 -32,-14 -32,-32l0 -1406c0,-18 14,-32 32,-32l667 0c18,0 32,14 32,32l0 1406c0,18 -14,32 -32,32zm-636 -63l605 0 0 -1344 -605 0 0 1344z"/>
   <polygon class="fil7" points="2376,26182 1992,26566 2864,26566 2864,26182 "/>
   <path class="fil2" d="M2864 26597l-872 0c-13,0 -24,-7 -29,-19 -5,-12 -2,-25 7,-34l384 -384c5,-6 13,-9 22,-9l488 0c18,0 32,14 32,31l0 384c0,17 -14,31 -32,31zm-796 -63l765 0 0 -320 -444 0 -321 320z"/>
   <polygon class="fil7" points="3431,26182 3047,26566 3919,26566 3919,26182 "/>
   <path class="fil2" d="M3919 26597l-872 0c-13,0 -24,-7 -29,-19 -5,-12 -2,-25 7,-34l384 -384c5,-6 13,-9 22,-9l488 0c18,0 32,14 32,31l0 384c0,17 -14,31 -32,31zm-796 -63l765 0 0 -320 -444 0 -321 320z"/>
   <polygon class="fil3" points="3046,22947 2518,22892 2518,22086 3046,22947 3573,22086 3573,22892 "/>
   <path class="fil2" d="M3046 22978l0 0 0 0c-1,0 -2,0 -3,0l-528 -54c-16,-2 -28,-15 -28,-32l0 -806c0,-14 9,-27 23,-30 13,-4 28,1 35,13l501 818 501 -818c7,-12 21,-17 35,-13 14,3 23,16 23,30l0 806c0,17 -12,30 -28,32l-526 54c-1,0 -3,0 -5,0l0 0zm-496 -114l436 45 -436 -711 0 666zm992 -666l-436 711 436 -45 0 -666z"/>
   <path class="fil1" d="M4124 22477c-88,-89 -232,-89 -320,0 -88,88 -88,231 0,319 131,131 131,343 0,473 -131,131 -342,131 -473,0l-320 320c307,308 806,308 1113,0 307,-307 307,-805 0,-1112z"/>
   <path class="fil2" d="M3568 23851l0 0c-219,0 -425,-85 -579,-239 -6,-6 -9,-14 -9,-23 0,-8 3,-16 9,-22l320 -320c12,-12 32,-12 44,0 58,57 134,89 215,89 80,0 157,-32 214,-89 118,-118 118,-310 0,-428 -101,-101 -101,-264 0,-365 48,-48 113,-75 182,-75 69,0 133,27 182,75 155,155 240,360 240,579 0,218 -85,424 -240,579 -154,154 -360,239 -578,239zm-512 -262c140,129 320,199 512,199 201,0 391,-78 534,-221 142,-143 221,-332 221,-534 0,-202 -79,-391 -221,-534 -37,-37 -86,-57 -138,-57 -52,0 -101,20 -138,57 -76,76 -76,199 0,275 143,143 143,375 0,518 -69,69 -161,107 -258,107 -88,0 -170,-30 -236,-86l-276 276z"/>
   <path class="fil3" d="M3170 23431c-100,99 -260,99 -360,0 -99,-99 -99,-260 0,-359 100,-100 260,-100 360,0 99,99 99,260 0,359z"/>
   <path class="fil2" d="M2990 23537c-76,0 -148,-30 -202,-84 -111,-111 -111,-292 0,-404 54,-54 126,-83 202,-83 76,0 148,29 202,83 111,112 111,293 0,404 -54,54 -126,84 -202,84zm0 -508c-60,0 -115,23 -157,65 -87,87 -87,228 0,315 42,42 97,65 157,65 59,0 115,-23 157,-65 87,-87 87,-228 0,-315 -42,-42 -98,-65 -157,-65z"/>
   <polygon class="fil7" points="3689,21326 2436,21326 2436,20781 3689,20781 "/>
   <path class="fil2" d="M3689 21358l-1253 0c-17,0 -31,-15 -31,-32l0 -545c0,-18 14,-32 31,-32l1253 0c17,0 31,14 31,32l0 545c0,17 -14,32 -31,32zm-1221 -63l1190 0 0 -483 -1190 0 0 483z"/>
   <polygon class="fil7" points="3865,21326 2234,21326 2234,21152 3865,21152 "/>
   <path class="fil2" d="M3865 21358l-1631 0c-17,0 -31,-15 -31,-32l0 -174c0,-17 14,-31 31,-31l1631 0c17,0 31,14 31,31l0 174c0,17 -14,32 -31,32zm-1599 -63l1567 0 0 -111 -1567 0 0 111z"/>
   <path class="fil4" d="M2602 20874c0,153 -63,278 -142,278 -78,0 -142,-125 -142,-278 0,-154 64,-279 142,-279 79,0 142,125 142,279z"/>
   <path class="fil2" d="M2460 21184c-97,0 -173,-137 -173,-310 0,-174 76,-310 173,-310 98,0 174,136 174,310 0,173 -76,310 -174,310zm0 -557c-52,0 -110,101 -110,247 0,145 58,247 110,247 53,0 111,-102 111,-247 0,-146 -58,-247 -111,-247z"/>
   <path class="fil7" d="M3431 22091c0,-102 -165,-184 -368,-184 -204,0 -369,82 -369,184l737 0z"/>
   <path class="fil2" d="M3463 22123l-801 0 0 -32c0,-121 176,-216 401,-216 224,0 400,95 400,216l0 32zm-729 -63l657 0c-32,-63 -158,-122 -328,-122 -170,0 -296,59 -329,122z"/>
   <polygon class="fil8" points="6623,25513 3766,25513 3766,23564 6623,23564 "/>
   <path class="fil2" d="M6623 25545l-2857 0c-17,0 -31,-14 -31,-32l0 -1949c0,-18 14,-32 31,-32l2857 0c17,0 32,14 32,32l0 1949c0,18 -15,32 -32,32zm-2825 -63l2794 0 0 -1887 -2794 0 0 1887z"/>
   <polygon class="fil7" points="5916,25978 4475,25978 4475,24549 5916,24549 "/>
   <path class="fil2" d="M5916 26010l-1441 0c-18,0 -32,-14 -32,-32l0 -1429c0,-18 14,-32 32,-32l1441 0c18,0 32,14 32,32l0 1429c0,18 -14,32 -32,32zm-1410 -63l1379 0 0 -1367 -1379 0 0 1367z"/>
   <polygon class="fil7" points="4476,25990 4112,26353 4938,26353 4938,25990 "/>
   <path class="fil2" d="M4938 26385l-826 0c-13,0 -24,-8 -29,-20 -5,-11 -2,-25 7,-34l363 -363c6,-6 14,-10 23,-10l462 0c18,0 32,14 32,32l0 363c0,18 -14,32 -32,32zm-750 -63l719 0 0 -301 -418 0 -301 301z"/>
   <polygon class="fil7" points="5453,25990 5090,26353 5916,26353 5916,25990 "/>
   <path class="fil2" d="M5916 26385l-826 0c-13,0 -24,-8 -29,-20 -5,-11 -2,-25 7,-34l363 -363c6,-6 14,-10 22,-10l463 0c18,0 32,14 32,32l0 363c0,18 -14,32 -32,32zm-750 -63l719 0 0 -301 -419 0 -300 301z"/>
   <path class="fil7" d="M6190 22095c0,223 -180,403 -403,403 -222,0 -403,-180 -403,-403 0,-222 181,-402 403,-402 223,0 403,180 403,402z"/>
   <path class="fil2" d="M5787 22530c-239,0 -434,-195 -434,-435 0,-239 195,-434 434,-434 240,0 434,195 434,434 0,240 -194,435 -434,435zm0 -806c-205,0 -371,167 -371,371 0,205 166,372 371,372 205,0 371,-167 371,-372 0,-204 -166,-371 -371,-371z"/>
   <path class="fil9" d="M5163 22361c-524,0 -949,213 -949,475l0 2041 1898 0 0 -2041c0,-262 -425,-475 -949,-475z"/>
   <path class="fil2" d="M6112 24908l-1898 0c-18,0 -32,-14 -32,-31l0 -2041c0,-284 431,-506 981,-506 550,0 981,222 981,506l0 2041c0,17 -14,31 -32,31zm-1867 -63l1836 0 0 -2009c0,-240 -420,-443 -918,-443 -497,0 -918,203 -918,443l0 2009z"/>
   <path class="fil10" d="M6623 23564l-2857 0c0,-691 640,-1251 1429,-1251 789,0 1428,560 1428,1251z"/>
   <path class="fil2" d="M6624 23595c-1,0 -1,0 -1,0l-2857 0c-17,0 -31,-14 -31,-31 0,-707 654,-1282 1460,-1282 803,0 1456,572 1460,1276 0,2 0,4 0,6 0,17 -14,31 -31,31zm-2826 -63l2793 0c-19,-658 -638,-1187 -1396,-1187 -759,0 -1378,529 -1397,1187z"/>
   <path class="fil1" d="M5791 22023c0,346 -281,627 -628,627 -347,0 -628,-281 -628,-627 0,-347 281,-628 628,-628 347,0 628,281 628,628z"/>
   <path class="fil2" d="M5163 22682c-363,0 -659,-296 -659,-659 0,-364 296,-660 659,-660 364,0 659,296 659,660 0,363 -295,659 -659,659zm0 -1256c-329,0 -596,268 -596,597 0,328 267,596 596,596 329,0 596,-268 596,-596 0,-329 -267,-597 -596,-597z"/>
   <path class="fil5" d="M5163 21968c-49,0 -89,40 -89,89l0 77c0,49 40,89 89,89 49,0 89,-40 89,-89l0 -77c0,-49 -40,-89 -89,-89z"/>
   <path class="fil2" d="M5163 22254c-66,0 -120,-54 -120,-120l0 -77c0,-66 54,-120 120,-120 17,0 32,14 32,31 0,17 -15,32 -32,32 -31,0 -57,25 -57,57l0 77c0,32 26,57 57,57 32,0 57,-25 57,-57 0,-17 14,-31 32,-31 17,0 31,14 31,31 0,66 -54,120 -120,120z"/>
   <path class="fil2" d="M4889 21937c0,27 -22,49 -49,49 -27,0 -49,-22 -49,-49 0,-27 22,-49 49,-49 27,0 49,22 49,49z"/>
   <path class="fil2" d="M5497 21937c0,27 -22,49 -48,49 -27,0 -49,-22 -49,-49 0,-27 22,-49 49,-49 26,0 48,22 48,49z"/>
   <path class="fil2" d="M5163 22499c-101,0 -184,-82 -184,-183 0,-18 14,-32 32,-32 17,0 31,14 31,32 0,66 54,120 121,120 67,0 121,-54 121,-120 0,-18 14,-32 31,-32 18,0 32,14 32,32 0,101 -83,183 -184,183z"/>
   <path class="fil7" d="M5585 21558c-562,210 -781,-50 -781,-50 0,0 131,-128 359,-113 228,15 422,163 422,163z"/>
   <path class="fil2" d="M5182 21671c-279,0 -397,-137 -402,-143 -11,-13 -10,-31 2,-43 5,-5 144,-138 383,-121 234,15 431,163 439,169 9,7 14,18 12,30 -1,11 -9,20 -20,25 -149,55 -288,83 -414,83zm-330 -162c44,35 149,99 330,99 102,0 213,-19 333,-59 -70,-43 -206,-113 -354,-123 -155,-10 -262,50 -309,83z"/>
   <polygon class="fil8" points="6623,23293 3766,23293 3766,23564 6623,23564 "/>
   <path class="fil2" d="M6623 23595l-2857 0c-17,0 -31,-14 -31,-31l0 -271c0,-17 14,-31 31,-31l2857 0c17,0 32,14 32,31l0 271c0,17 -15,31 -32,31zm-2825 -63l2794 0 0 -207 -2794 0 0 207z"/>
   <polygon class="fil7" points="5693,21672 4703,21672 4703,21095 5693,21095 "/>
   <path class="fil2" d="M5693 21703l-990 0c-18,0 -32,-14 -32,-31l0 -577c0,-17 14,-31 32,-31l990 0c17,0 31,14 31,31l0 577c0,17 -14,31 -31,31zm-959 -63l927 0 0 -514 -927 0 0 514z"/>
   <polygon class="fil7" points="5831,21672 4543,21672 4543,21534 5831,21534 "/>
   <path class="fil2" d="M5831 21703l-1288 0c-17,0 -31,-14 -31,-31l0 -138c0,-17 14,-31 31,-31l1288 0c18,0 32,14 32,31l0 138c0,17 -14,31 -32,31zm-1256 -63l1225 0 0 -74 -1225 0 0 74z"/>
   <path class="fil5" d="M10742 22633c0,-144 -117,-260 -260,-260 -144,0 -260,116 -260,260 0,212 -172,384 -384,384 -213,0 -385,-172 -385,-384l-520 0c0,499 405,904 905,904 499,0 904,-405 904,-904z"/>
   <path class="fil2" d="M9838 23569c-516,0 -936,-420 -936,-936 0,-17 14,-32 31,-32l520 0c18,0 32,15 32,32 0,195 158,353 353,353 194,0 352,-158 352,-353 0,-161 131,-291 292,-291 161,0 291,130 291,291 0,516 -420,936 -935,936zm-873 -905c17,467 402,842 873,842 481,0 872,-392 872,-873 0,-126 -102,-228 -228,-228 -126,0 -229,102 -229,228 0,229 -186,416 -415,416 -219,0 -399,-170 -415,-385l-458 0z"/>
   <path class="fil1" d="M9191 22633c-162,0 -292,-131 -292,-292 0,-161 130,-292 292,-292 161,0 292,131 292,292 0,161 -131,292 -292,292z"/>
   <path class="fil2" d="M9191 22664c-179,0 -324,-145 -324,-323 0,-178 145,-323 324,-323 178,0 323,145 323,323 0,178 -145,323 -323,323zm0 -583c-144,0 -261,116 -261,260 0,144 117,260 261,260 143,0 260,-116 260,-260 0,-144 -117,-260 -260,-260z"/>
   <polygon class="fil11" points="11497,26087 12006,26087 12006,24517 11497,24517 "/>
   <path class="fil2" d="M12006 26118l-509 0c-17,0 -31,-14 -31,-31l0 -1570c0,-17 14,-31 31,-31l509 0c18,0 32,14 32,31l0 1570c0,17 -14,31 -32,31zm-477 -63l446 0 0 -1506 -446 0 0 1506z"/>
   <polygon class="fil11" points="10424,26087 10933,26087 10933,24517 10424,24517 "/>
   <path class="fil2" d="M10933 26118l-509 0c-17,0 -31,-14 -31,-31l0 -1570c0,-17 14,-31 31,-31l509 0c17,0 32,14 32,31l0 1570c0,17 -15,31 -32,31zm-477 -63l446 0 0 -1506 -446 0 0 1506z"/>
   <polygon class="fil7" points="12006,26094 12405,26493 11497,26493 11497,26094 "/>
   <path class="fil2" d="M12405 26525c0,0 0,0 -1,0l-907 0c-17,0 -31,-14 -31,-32l0 -399c0,-17 14,-31 31,-31l509 0c8,0 16,3 22,9l396 396c8,6 12,15 12,25 0,18 -14,32 -31,32zm-876 -63l800 0 -336 -336 -464 0 0 336z"/>
   <polygon class="fil7" points="10932,26094 11331,26493 10424,26493 10424,26094 "/>
   <path class="fil2" d="M11332 26525c0,0 -1,0 -1,0l-907 0c-17,0 -31,-14 -31,-32l0 -399c0,-17 14,-31 31,-31l508 0c9,0 17,3 23,9l396 396c7,6 12,15 12,25 0,18 -14,32 -31,32zm-876 -63l799 0 -336 -336 -463 0 0 336z"/>
   <path class="fil12" d="M11251 22112c575,0 1042,233 1042,521l560 2240 -3204 0 560 -2240c0,-288 467,-521 1042,-521z"/>
   <path class="fil2" d="M12853 24904c0,0 0,0 0,0l-3204 0c-10,0 -19,-4 -25,-12 -6,-8 -8,-18 -5,-27l559 -2236c4,-308 474,-549 1073,-549 599,0 1069,241 1073,549l558 2231c2,4 3,8 3,13 0,17 -15,31 -32,31zm-3164 -63l3123 0 -550 -2201c0,-2 -1,-5 -1,-7 0,-270 -453,-490 -1010,-490 -557,0 -1010,220 -1010,490 0,2 -1,5 -1,7l-551 2201z"/>
   <path class="fil10" d="M10640 22386c0,145 273,263 611,263 337,0 611,-118 611,-263 0,-146 -274,-264 -611,-264 -338,0 -611,118 -611,264z"/>
   <path class="fil2" d="M11251 22681c-361,0 -643,-130 -643,-295 0,-166 282,-296 643,-296 360,0 643,130 643,296 0,165 -283,295 -643,295zm0 -528c-347,0 -580,120 -580,233 0,112 233,232 580,232 347,0 580,-120 580,-232 0,-113 -233,-233 -580,-233z"/>
   <path class="fil7" d="M10020 22314c0,342 277,619 620,619 342,0 619,-277 619,-619 0,-342 -277,-620 -619,-620 -343,0 -620,278 -620,620z"/>
   <path class="fil2" d="M10640 22965c-359,0 -651,-292 -651,-651 0,-359 292,-651 651,-651 359,0 651,292 651,651 0,359 -292,651 -651,651zm0 -1239c-325,0 -588,264 -588,588 0,324 263,588 588,588 324,0 588,-264 588,-588 0,-324 -264,-588 -588,-588z"/>
   <path class="fil1" d="M10562 21740c0,381 308,689 689,689 381,0 689,-308 689,-689 0,-380 -308,-689 -689,-689 -381,0 -689,309 -689,689z"/>
   <path class="fil2" d="M11251 22461c-397,0 -721,-324 -721,-721 0,-397 324,-720 721,-720 397,0 720,323 720,720 0,397 -323,721 -720,721zm0 -1378c-363,0 -658,295 -658,657 0,363 295,658 658,658 362,0 657,-295 657,-658 0,-362 -295,-657 -657,-657z"/>
   <path class="fil5" d="M11251 21680c54,0 97,44 97,98l0 84c0,54 -43,98 -97,98 -54,0 -98,-44 -98,-98l0 -84c0,-54 44,-98 98,-98z"/>
   <path class="fil2" d="M11251 21991c-71,0 -129,-58 -129,-129 0,-17 14,-31 31,-31 18,0 32,14 32,31 0,37 30,66 66,66 36,0 66,-29 66,-66l0 -84c0,-37 -30,-66 -66,-66 -17,0 -32,-14 -32,-32 0,-17 15,-31 32,-31 71,0 129,58 129,129l0 84c0,71 -58,129 -129,129z"/>
   <path class="fil2" d="M11552 21646c0,30 24,54 53,54 30,0 54,-24 54,-54 0,-29 -24,-53 -54,-53 -29,0 -53,24 -53,53z"/>
   <path class="fil2" d="M10884 21646c0,30 24,54 54,54 29,0 53,-24 53,-54 0,-29 -24,-53 -53,-53 -30,0 -54,24 -54,53z"/>
   <path class="fil7" d="M10855 21176c0,0 -29,375 1040,375 0,0 -290,-832 -1040,-375z"/>
   <path class="fil2" d="M11895 21582c-637,0 -895,-133 -999,-246 -77,-84 -72,-159 -72,-163 1,-10 6,-19 15,-24 154,-94 302,-142 439,-142 456,0 639,512 647,533 3,10 2,21 -4,29 -6,8 -16,13 -26,13zm-1007 -389c3,20 15,59 58,104 94,99 327,216 902,222 -53,-119 -232,-449 -570,-449 -121,0 -252,42 -390,123z"/>
   <path class="fil2" d="M11251 22260c-110,0 -199,-89 -199,-198 0,-18 14,-32 32,-32 17,0 31,14 31,32 0,74 61,135 136,135 75,0 135,-61 135,-135 0,-18 15,-32 32,-32 17,0 31,14 31,32 0,109 -89,198 -198,198z"/>
   <path class="fil2" d="M11251 24904c-17,0 -32,-14 -32,-31l0 -2224c0,-17 15,-31 32,-31 17,0 31,14 31,31l0 2224c0,17 -14,31 -31,31z"/>
   <polygon class="fil13" points="17400,21211 14774,21211 14774,20379 17400,20379 "/>
   <path class="fil2" d="M17400 21243l-2626 0c-18,0 -32,-15 -32,-32l0 -832c0,-18 14,-32 32,-32l2626 0c17,0 31,14 31,32l0 832c0,17 -14,32 -31,32zm-2595 -63l2563 0 0 -770 -2563 0 0 770z"/>
   <polygon class="fil14" points="17400,21627 14774,21627 14774,21211 17400,21211 "/>
   <path class="fil2" d="M17400 21659l-2626 0c-18,0 -32,-14 -32,-32l0 -416c0,-17 14,-31 32,-31l2626 0c17,0 31,14 31,31l0 416c0,18 -14,32 -31,32zm-2595 -63l2563 0 0 -353 -2563 0 0 353z"/>
   <polygon class="fil12" points="17400,22043 14774,22043 14774,21627 17400,21627 "/>
   <path class="fil2" d="M17400 22075l-2626 0c-18,0 -32,-14 -32,-32l0 -416c0,-17 14,-31 32,-31l2626 0c17,0 31,14 31,31l0 416c0,18 -14,32 -31,32zm-2595 -63l2563 0 0 -353 -2563 0 0 353z"/>
   <path class="fil2" d="M14774 27650c-18,0 -32,-14 -32,-32l0 -7239c0,-18 14,-32 32,-32 17,0 31,14 31,32l0 7239c0,18 -14,32 -31,32z"/>
   <polygon class="fil5" points="6149,24432 4083,24432 4083,25273 6149,25273 "/>
   <path class="fil2" d="M6149 25304l-2066 0c-17,0 -31,-14 -31,-31l0 -841c0,-17 14,-31 31,-31l2066 0c18,0 32,14 32,31l0 841c0,17 -14,31 -32,31zm-2034 -63l2003 0 0 -777 -2003 0 0 777z"/>
   <path class="fil15" d="M5913 24588c0,166 -135,301 -302,301 -167,0 -302,-135 -302,-301 0,-167 135,-302 302,-302 167,0 302,135 302,302z"/>
   <path class="fil2" d="M5611 24921c-184,0 -333,-150 -333,-333 0,-184 149,-334 333,-334 184,0 333,150 333,334 0,183 -149,333 -333,333zm0 -604c-149,0 -270,121 -270,271 0,149 121,270 270,270 149,0 270,-121 270,-270 0,-150 -121,-271 -270,-271z"/>
   <path class="fil15" d="M12410 24801c0,167 -135,302 -302,302 -167,0 -302,-135 -302,-302 0,-167 135,-302 302,-302 167,0 302,135 302,302z"/>
   <path class="fil2" d="M12108 25134c-184,0 -333,-149 -333,-333 0,-184 149,-333 333,-333 184,0 333,149 333,333 0,184 -149,333 -333,333zm0 -603c-149,0 -270,121 -270,270 0,149 121,270 270,270 149,0 270,-121 270,-270 0,-149 -121,-270 -270,-270z"/>
   <polygon class="fil5" points="12646,24646 10580,24646 10580,25486 12646,25486 "/>
   <path class="fil2" d="M12646 25518l-2066 0c-17,0 -31,-14 -31,-32l0 -840c0,-18 14,-32 31,-32l2066 0c18,0 32,14 32,32l0 840c0,18 -14,32 -32,32zm-2034 -63l2003 0 0 -778 -2003 0 0 778z"/>
   <path class="fil5" d="M8869 22564c0,-134 -108,-243 -242,-243 -134,0 -242,109 -242,243 0,198 -161,358 -359,358 -198,0 -358,-160 -358,-358l-485 0c0,465 378,843 843,843 466,0 843,-378 843,-843z"/>
   <path class="fil2" d="M8026 23438c-482,0 -874,-392 -874,-874 0,-18 14,-32 31,-32l485 0c17,0 31,14 31,32 0,180 147,327 327,327 180,0 327,-147 327,-327 0,-151 123,-274 274,-274 151,0 274,123 274,274 0,482 -393,874 -875,874zm-811 -843c17,433 374,780 811,780 448,0 812,-364 812,-811 0,-116 -95,-211 -211,-211 -116,0 -211,95 -211,211 0,215 -175,390 -390,390 -204,0 -372,-158 -388,-359l-423 0z"/>
   <path class="fil3" d="M7423 22564c-150,0 -272,-122 -272,-272 0,-151 122,-272 272,-272 150,0 272,121 272,272 0,150 -122,272 -272,272z"/>
   <path class="fil2" d="M7423 22595c-167,0 -303,-136 -303,-303 0,-168 136,-304 303,-304 168,0 304,136 304,304 0,167 -136,303 -304,303zm0 -544c-133,0 -241,108 -241,241 0,132 108,240 241,240 133,0 241,-108 241,-240 0,-133 -108,-241 -241,-241z"/>
   <path class="fil3" d="M9478 22019c-616,0 -1116,250 -1116,558l0 2400 2233 0 0 -2400c0,-308 -500,-558 -1117,-558z"/>
   <path class="fil2" d="M10595 25009l-2233 0c-18,0 -32,-14 -32,-32l0 -2400c0,-331 504,-590 1148,-590 644,0 1148,259 1148,590l0 2400c0,18 -14,32 -31,32zm-2202 -63l2170 0 0 -2369c0,-291 -487,-527 -1085,-527 -598,0 -1085,236 -1085,527l0 2369z"/>
   <path class="fil3" d="M10217 21620c0,408 -331,739 -739,739 -408,0 -738,-331 -738,-739 0,-407 330,-738 738,-738 408,0 739,331 739,738z"/>
   <path class="fil2" d="M9478 22390c-424,0 -770,-345 -770,-770 0,-424 346,-770 770,-770 425,0 770,346 770,770 0,425 -345,770 -770,770zm0 -1477c-390,0 -707,318 -707,707 0,390 317,707 707,707 390,0 707,-317 707,-707 0,-389 -317,-707 -707,-707z"/>
   <path class="fil1" d="M9478 21497c-57,0 -104,47 -104,105l0 208c0,58 47,105 104,105 58,0 105,-47 105,-105l0 -208c0,-58 -47,-105 -105,-105z"/>
   <path class="fil2" d="M9478 21946c-75,0 -136,-61 -136,-136l0 -208c0,-75 61,-136 136,-136 18,0 32,14 32,31 0,18 -14,32 -32,32 -40,0 -73,32 -73,73l0 208c0,40 33,73 73,73 40,0 73,-33 73,-73 0,-17 14,-31 32,-31 17,0 31,14 31,31 0,75 -61,136 -136,136z"/>
   <polygon class="fil3" points="9255,21706 8907,21706 8907,21497 9255,21497 "/>
   <path class="fil2" d="M9255 21737l-348 0c-17,0 -32,-14 -32,-31l0 -209c0,-17 15,-31 32,-31l348 0c18,0 32,14 32,31l0 209c0,17 -14,31 -32,31zm-317 -63l286 0 0 -145 -286 0 0 145z"/>
   <polygon class="fil3" points="9988,21706 9640,21706 9640,21497 9988,21497 "/>
   <path class="fil2" d="M9988 21737l-348 0c-18,0 -32,-14 -32,-31l0 -209c0,-17 14,-31 32,-31l348 0c17,0 32,14 32,31l0 209c0,17 -15,31 -32,31zm-317 -63l286 0 0 -145 -286 0 0 145z"/>
   <path class="fil2" d="M9640 21529l-385 0c-17,0 -31,-14 -31,-32 0,-17 14,-31 31,-31l385 0c17,0 31,14 31,31 0,18 -14,32 -31,32z"/>
   <path class="fil2" d="M9895 20983c0,179 -273,323 -610,323 -337,0 -610,-144 -610,-323 0,-179 273,-323 610,-323 337,0 610,144 610,323z"/>
   <path class="fil2" d="M9285 21338c-360,0 -641,-156 -641,-355 0,-199 281,-355 641,-355 360,0 642,156 642,355 0,199 -282,355 -642,355zm0 -647c-314,0 -578,134 -578,292 0,158 264,292 578,292 314,0 579,-134 579,-292 0,-158 -265,-292 -579,-292z"/>
   <path class="fil2" d="M9873 22117c0,-109 -177,-197 -395,-197 -218,0 -395,88 -395,197l790 0z"/>
   <path class="fil2" d="M9873 22149l-790 0c-17,0 -31,-14 -31,-32 0,-128 187,-228 426,-228 239,0 427,100 427,228 0,18 -14,32 -32,32zm-751 -63l712 0c-33,-69 -170,-135 -356,-135 -186,0 -323,66 -356,135z"/>
   <polygon class="fil9" points="9271,26485 8555,26485 8555,24977 9271,24977 "/>
   <path class="fil2" d="M9271 26516l-716 0c-17,0 -31,-14 -31,-31l0 -1508c0,-17 14,-31 31,-31l716 0c17,0 31,14 31,31l0 1508c0,17 -14,31 -31,31zm-684 -63l652 0 0 -1444 -652 0 0 1444z"/>
   <polygon class="fil9" points="10401,26485 9686,26485 9686,24977 10401,24977 "/>
   <path class="fil2" d="M10401 26516l-715 0c-18,0 -32,-14 -32,-31l0 -1508c0,-17 14,-31 32,-31l715 0c18,0 32,14 32,31l0 1508c0,17 -14,31 -32,31zm-684 -63l653 0 0 -1444 -653 0 0 1444z"/>
   <polygon class="fil6" points="8747,26485 8336,26896 9271,26896 9271,26485 "/>
   <path class="fil2" d="M9271 26927l-935 0c-12,0 -24,-7 -29,-19 -5,-12 -2,-26 7,-35l411 -411c6,-6 14,-9 22,-9l524 0c17,0 31,14 31,32l0 411c0,17 -14,31 -31,31zm-859 -63l827 0 0 -348 -479 0 -348 348z"/>
   <polygon class="fil6" points="9878,26485 9467,26896 10401,26896 10401,26485 "/>
   <path class="fil2" d="M10401 26927l-934 0c-13,0 -24,-7 -29,-19 -5,-12 -2,-26 7,-35l411 -411c6,-6 13,-9 22,-9l523 0c18,0 32,14 32,32l0 411c0,17 -14,31 -32,31zm-858 -63l827 0 0 -348 -479 0 -348 348z"/>
   <polygon class="fil5" points="9478,22945 9927,22945 9927,22680 10217,22555 10044,22096 9478,22945 9098,22945 9098,22694 8740,22665 8913,22096 9478,22945 9478,24977 "/>
   <path class="fil2" d="M9478 25009c-17,0 -31,-14 -31,-32l0 -2001 -349 0c-17,0 -31,-14 -31,-31l0 -222 -330 -27c-9,0 -18,-6 -23,-13 -6,-8 -7,-18 -4,-27l173 -570c4,-11 14,-20 26,-22 12,-1 24,4 30,14l539 810 539 -810c7,-10 18,-15 30,-14 12,2 22,9 26,20l173 459c6,16 -2,34 -17,40l-270 117 0 245c0,17 -15,31 -32,31l-417 0 0 2001c0,18 -14,32 -32,32zm59 -2096l359 0 0 -233c0,-13 7,-24 19,-29l262 -113 -141 -374 -499 749zm-407 0l289 0 -495 -745 -143 469 320 26c16,1 29,15 29,31l0 219z"/>
   <path class="fil2" d="M10253 23496l-301 0c-18,0 -32,-14 -32,-31 0,-18 14,-32 32,-32l301 0c18,0 32,14 32,32 0,17 -14,31 -32,31z"/>
   <path class="fil16" d="M7278 22065c-681,0 -1234,277 -1234,618l0 2653 2469 0 0 -2653c0,-341 -553,-618 -1235,-618z"/>
   <path class="fil2" d="M8513 25368l-2469 0c-18,0 -32,-14 -32,-32l0 -2653c0,-178 135,-343 379,-465 238,-119 553,-184 887,-184 335,0 650,65 887,184 245,122 379,287 379,465l0 2653c0,18 -14,32 -31,32zm-2438 -63l2406 0 0 -2622c0,-323 -539,-586 -1203,-586 -663,0 -1203,263 -1203,586l0 2622z"/>
   <polygon class="fil12" points="6653,22150 6982,22851 7278,22441 "/>
   <path class="fil2" d="M6982 22883c-1,0 -2,0 -3,0 -11,-1 -20,-8 -25,-18l-329 -701c-6,-12 -3,-27 6,-36 10,-9 24,-12 36,-6l625 291c8,4 14,11 17,20 2,10 0,19 -5,27l-296 410c-6,8 -16,13 -26,13zm-263 -668l269 575 242 -336 -511 -239z"/>
   <polygon class="fil12" points="7903,22150 7574,22851 7278,22441 "/>
   <path class="fil2" d="M7574 22883c-10,0 -19,-5 -25,-13l-296 -410c-6,-8 -8,-17 -5,-27 2,-9 8,-16 17,-20l625 -291c12,-6 26,-3 35,6 10,9 12,24 7,36l-329 701c-5,10 -15,17 -26,18 -1,0 -2,0 -3,0zm-248 -429l242 336 270 -575 -512 239z"/>
   <path class="fil17" d="M8095 21625c0,451 -366,816 -817,816 -451,0 -816,-365 -816,-816 0,-451 365,-816 816,-816 451,0 817,365 817,816z"/>
   <path class="fil2" d="M7278 22473c-467,0 -848,-380 -848,-848 0,-467 381,-848 848,-848 468,0 848,381 848,848 0,468 -380,848 -848,848zm0 -1633c-432,0 -785,352 -785,785 0,433 353,785 785,785 433,0 785,-352 785,-785 0,-433 -352,-785 -785,-785z"/>
   <path class="fil2" d="M7278 21982c-81,0 -147,-66 -147,-147l0 -231c0,-81 66,-147 147,-147 18,0 32,15 32,32 0,17 -14,31 -32,31 -46,0 -84,38 -84,84l0 231c0,46 38,84 84,84 47,0 84,-38 84,-84 0,-17 14,-31 32,-31 17,0 31,14 31,31 0,81 -66,147 -147,147z"/>
   <polygon class="fil15" points="7032,21720 6647,21720 6647,21489 7032,21489 "/>
   <path class="fil2" d="M7032 21751l-385 0c-18,0 -32,-14 -32,-31l0 -231c0,-17 14,-32 32,-32l385 0c17,0 31,15 31,32l0 231c0,17 -14,31 -31,31zm-354 -63l322 0 0 -168 -322 0 0 168z"/>
   <polygon class="fil15" points="7842,21720 7457,21720 7457,21489 7842,21489 "/>
   <path class="fil2" d="M7842 21751l-385 0c-17,0 -32,-14 -32,-31l0 -231c0,-17 15,-32 32,-32l385 0c17,0 31,15 31,32l0 231c0,17 -14,31 -31,31zm-354 -63l322 0 0 -168 -322 0 0 168z"/>
   <path class="fil2" d="M7457 21520l-425 0c-18,0 -32,-14 -32,-31 0,-17 14,-32 32,-32l425 0c17,0 31,15 31,32 0,17 -14,31 -31,31z"/>
   <path class="fil2" d="M7278 22265c-142,0 -258,-116 -258,-259 0,-17 14,-31 31,-31 18,0 32,14 32,31 0,108 87,196 195,196 108,0 196,-88 196,-196 0,-17 14,-31 31,-31 18,0 32,14 32,31 0,143 -116,259 -259,259z"/>
   <path class="fil10" d="M6784 20975c0,0 849,415 1184,214 0,0 -165,-380 -690,-380 -525,0 -494,166 -494,166z"/>
   <path class="fil2" d="M7724 21276l0 0c-393,0 -931,-261 -954,-272 -9,-5 -15,-13 -17,-23 -1,-4 -6,-41 28,-83 67,-80 234,-121 497,-121 540,0 718,396 719,400 7,14 1,31 -12,39 -66,40 -154,60 -261,60zm-906 -319c103,47 570,256 906,256l0 0c81,0 149,-13 202,-37 -47,-83 -224,-336 -648,-336 -319,0 -418,62 -449,99 -5,7 -9,13 -11,18z"/>
   <polygon class="fil5" points="7049,27003 6258,27003 6258,25336 7049,25336 "/>
   <path class="fil2" d="M7049 27034l-791 0c-17,0 -31,-14 -31,-31l0 -1667c0,-17 14,-31 31,-31l791 0c17,0 32,14 32,31l0 1667c0,17 -15,31 -32,31zm-759 -63l728 0 0 -1603 -728 0 0 1603z"/>
   <polygon class="fil5" points="8299,27003 7508,27003 7508,25336 8299,25336 "/>
   <path class="fil2" d="M8299 27034l-791 0c-18,0 -32,-14 -32,-31l0 -1667c0,-17 14,-31 32,-31l791 0c17,0 31,14 31,31l0 1667c0,17 -14,31 -31,31zm-760 -63l728 0 0 -1603 -728 0 0 1603z"/>
   <polygon class="fil10" points="6470,27003 6016,27457 7049,27457 7049,27003 "/>
   <path class="fil2" d="M7049 27489l-1033 0c-13,0 -24,-8 -29,-20 -5,-11 -2,-25 7,-34l454 -454c6,-6 14,-10 22,-10l579 0c17,0 32,14 32,32l0 454c0,18 -15,32 -32,32zm-957 -63l926 0 0 -392 -535 0 -391 392z"/>
   <polygon class="fil10" points="7720,27003 7266,27457 8299,27457 8299,27003 "/>
   <path class="fil2" d="M8299 27489l-1033 0c-13,0 -25,-8 -29,-20 -5,-11 -3,-25 6,-34l455 -454c6,-6 14,-10 22,-10l579 0c17,0 31,14 31,32l0 454c0,18 -14,32 -31,32zm-957 -63l925 0 0 -392 -534 0 -391 392z"/>
   <polygon class="fil10" points="7115,22668 7272,22815 7442,22668 7278,22441 "/>
   <path class="fil2" d="M7272 22846c-7,0 -15,-3 -21,-8l-158 -147c-11,-11 -13,-28 -4,-41l164 -227c12,-16 39,-16 51,0l163 227c10,13 8,31 -4,42l-170 147c-6,5 -13,7 -21,7zm-116 -182l117 108 126 -109 -121 -168 -122 169z"/>
   <polygon class="fil10" points="7393,24106 7151,24106 7151,22970 7393,22970 "/>
   <path class="fil2" d="M7393 24137l-242 0c-17,0 -31,-14 -31,-31l0 -1136c0,-17 14,-31 31,-31l242 0c18,0 32,14 32,31l0 1136c0,17 -14,31 -32,31zm-210 -63l179 0 0 -1073 -179 0 0 1073z"/>
   <polygon class="fil10" points="7272,23093 7151,22972 7272,22851 7393,22972 "/>
   <path class="fil2" d="M7272 23125c-8,0 -16,-3 -22,-9l-121 -121c-12,-13 -12,-33 0,-45l121 -121c12,-12 33,-12 45,0l121 121c5,6 9,14 9,22 0,9 -4,17 -9,23l-121 121c-7,6 -15,9 -23,9zm-76 -153l76 77 77 -77 -77 -76 -76 76z"/>
   <polygon class="fil18" points="14243,27536 32,27536 32,24106 14243,24106 "/>
   <path class="fil2" d="M14243 27567l-14211 0c-18,0 -32,-14 -32,-31l0 -3430c0,-18 14,-32 32,-32l14211 0c17,0 31,14 31,32l0 3430c0,17 -14,31 -31,31zm-14180 -63l14148 0 0 -3367 -14148 0 0 3367z"/>
   <path class="fil10" d="M6784 20975c0,0 87,291 -270,364 0,0 8,-328 270,-364z"/>
   <path class="fil2" d="M6514 21370c-8,0 -15,-2 -21,-7 -7,-6 -11,-16 -11,-25 0,-4 12,-355 298,-394 15,-2 30,8 34,22 2,6 37,128 -31,242 -49,81 -137,136 -263,161 -2,1 -4,1 -6,1zm245 -358c-155,39 -198,206 -210,286 85,-25 146,-65 180,-122 37,-61 35,-127 30,-164z"/>
   <path class="fil13" d="M7487 20116c0,-134 -109,-242 -243,-242 -134,0 -242,108 -242,242 0,79 37,149 96,193l0 165 293 0 0 -165c58,-44 96,-114 96,-193z"/>
   <path class="fil2" d="M7391 20505l-293 0c-18,0 -32,-14 -32,-31l0 -150c-61,-52 -96,-127 -96,-208 0,-151 123,-274 274,-274 151,0 274,123 274,274 0,81 -34,156 -95,208l0 150c0,17 -14,31 -32,31zm-262 -62l231 0 0 -134c0,-10 4,-19 12,-25 53,-40 83,-101 83,-168 0,-116 -94,-211 -211,-211 -116,0 -211,95 -211,211 0,67 31,128 84,168 7,6 12,15 12,25l0 134z"/>
   <path class="fil2" d="M7240 20505c-17,0 -31,-14 -31,-31l0 -300c0,-17 14,-32 31,-32 18,0 32,15 32,32l0 300c0,17 -14,31 -32,31z"/>
   <path class="fil2" d="M7236 20205c-48,0 -87,-39 -87,-87 0,-48 39,-87 87,-87 49,0 88,39 88,87 0,48 -39,87 -88,87zm0 -111c-13,0 -24,11 -24,24 0,13 11,24 24,24 14,0 25,-11 25,-24 0,-13 -11,-24 -25,-24z"/>
   <polygon class="fil1" points="7392,20627 7098,20627 7098,20474 7392,20474 "/>
   <path class="fil2" d="M7392 20658l-294 0c-18,0 -32,-14 -32,-31l0 -153c0,-17 14,-31 32,-31l294 0c17,0 31,14 31,31l0 153c0,17 -14,31 -31,31zm-263 -63l231 0 0 -90 -231 0 0 90z"/>
   <path class="fil2" d="M7392 20582l-294 0c-18,0 -32,-14 -32,-32 0,-17 14,-31 32,-31l294 0c17,0 31,14 31,31 0,18 -14,32 -31,32z"/>
   <polygon class="fil19" points="14235,26837 32,26837 32,24852 14235,24852 "/>
   <path class="fil2" d="M14235 26868l-14203 0c-18,0 -32,-14 -32,-31l0 -1985c0,-18 14,-32 32,-32l14203 0c17,0 31,14 31,32l0 1985c0,17 -14,31 -31,31zm-14172 -63l14140 0 0 -1922 -14140 0 0 1922z"/>
   <path class="fil20" d="M2073 25890l-1 54 0 1c23,-1 42,-2 56,-2l174 0c0,19 0,33 -2,43 -6,39 -32,59 -77,59l-201 0c-22,0 -39,-7 -51,-19 -12,-13 -18,-30 -18,-52l0 -442 5 -6 325 0c3,15 5,31 5,48 0,17 -4,35 -11,54l-205 0 1 54 0 53c13,-1 30,-1 51,-1l115 0c4,14 7,30 7,48 0,19 -3,35 -7,50l-166 0 0 58z"/>
   <path class="fil20" d="M2944 25521l5 5 0 514c-20,5 -44,7 -71,7 -28,0 -52,-2 -73,-5l-119 -270c-14,-31 -28,-66 -43,-107l-2 1c6,74 9,149 9,226l0 150c-16,3 -35,5 -57,5 -22,0 -41,-2 -56,-5l0 -513c19,-5 42,-7 69,-7 27,0 51,1 73,4l117 270c21,50 36,88 46,115l4 -2c-7,-70 -10,-144 -10,-222l0 -93c0,-26 6,-45 16,-56 11,-11 28,-17 52,-17l40 0z"/>
   <path class="fil20" d="M3334 25629l0 59 0 48 163 0c4,15 6,31 6,49 0,18 -2,34 -6,50l-163 0 0 207c-16,3 -36,5 -60,5 -24,0 -44,-2 -60,-5l0 -511 5 -5 324 0c3,13 4,29 4,48 0,18 -5,32 -15,42 -11,9 -27,13 -49,13l-149 0z"/>
   <path class="fil20" d="M3813 26006c-54,-45 -81,-119 -81,-221 0,-45 6,-83 16,-117 10,-33 25,-62 45,-84 19,-23 42,-40 70,-52 28,-11 59,-17 94,-17 35,0 66,6 94,17 28,12 52,29 71,52 19,23 34,51 45,85 10,33 15,72 15,116 0,44 -5,82 -15,116 -11,33 -26,61 -45,84 -19,23 -43,40 -71,51 -28,12 -59,18 -94,18 -58,0 -105,-16 -144,-48zm62 -104c13,39 41,59 82,59 21,0 37,-5 50,-16 13,-10 23,-23 30,-39 8,-16 13,-34 15,-53 3,-20 4,-39 4,-58 0,-18 -1,-38 -2,-59 -1,-22 -5,-42 -11,-61 -6,-19 -16,-35 -29,-48 -13,-13 -32,-19 -57,-19 -24,0 -43,6 -56,18 -12,13 -22,28 -28,46 -7,18 -11,38 -12,58 -2,20 -2,38 -2,54 0,23 1,44 3,62 2,18 6,37 13,56z"/>
   <path class="fil20" d="M4689 26121l-77 -67c-35,0 -66,-6 -94,-18 -27,-12 -51,-29 -70,-52 -20,-23 -35,-51 -45,-84 -10,-34 -15,-72 -15,-115 0,-43 4,-81 14,-114 10,-34 25,-62 44,-85 19,-23 43,-41 71,-53 28,-12 60,-18 96,-18 37,0 69,6 97,19 28,12 52,30 71,53 19,23 34,51 44,84 9,34 14,71 14,114 0,28 -2,56 -7,81 -5,25 -12,48 -21,69 -9,20 -21,37 -34,51 -13,15 -29,25 -46,31l20 13c34,24 66,36 95,36 -1,25 -9,46 -23,62 -14,16 -34,24 -60,24 -25,0 -49,-10 -74,-31zm-76 -513c-68,0 -102,59 -102,177 0,117 34,176 102,176 67,0 101,-59 101,-176 0,-118 -34,-177 -101,-177z"/>
   <path class="fil20" d="M5476 25526l0 326c0,64 -17,114 -53,149 -35,35 -85,53 -150,53 -66,0 -116,-18 -152,-53 -35,-35 -53,-85 -53,-149l0 -326 6 -5 44 0c48,0 72,26 72,77l0 255c0,36 6,62 19,79 12,17 34,26 64,26 30,0 52,-9 64,-26 13,-17 19,-43 19,-79l0 -327c16,-3 36,-4 60,-4 24,0 44,1 60,4z"/>
   <path class="fil20" d="M5855 25890l-1 54 0 1c23,-1 42,-2 56,-2l174 0c0,19 0,33 -2,43 -6,39 -32,59 -77,59l-201 0c-22,0 -39,-7 -51,-19 -12,-13 -18,-30 -18,-52l0 -442 5 -6 325 0c4,15 5,31 5,48 0,17 -3,35 -11,54l-205 0 1 54 0 53c13,-1 30,-1 51,-1l115 0c4,14 7,30 7,48 0,19 -3,35 -7,50l-166 0 0 58z"/>
   <path class="fil20" d="M6832 25627l0 56 0 359c-17,3 -37,5 -60,5 -24,0 -44,-2 -60,-5l0 -415 -48 1 -78 0c-3,-15 -5,-32 -5,-51 0,-19 2,-36 5,-51l373 0c4,14 6,30 6,48 0,19 -5,33 -15,41 -10,8 -26,13 -48,13l-22 0 -48 -1 0 0z"/>
   <path class="fil20" d="M7292 25890l0 54 0 1c23,-1 41,-2 55,-2l175 0c0,19 -1,33 -2,43 -6,39 -32,59 -77,59l-201 0c-22,0 -39,-7 -51,-19 -13,-13 -19,-30 -19,-52l0 -442 6 -6 325 0c3,15 5,31 5,48 0,17 -4,35 -11,54l-205 0 0 54 0 53c13,-1 31,-1 52,-1l115 0c4,14 6,30 6,48 0,19 -2,35 -6,50l-167 0 0 58z"/>
   <path class="fil20" d="M8127 25686c0,16 -2,32 -7,47 -5,15 -12,28 -20,40 -9,12 -18,22 -30,31 -11,9 -23,15 -35,20 26,10 46,33 58,70l23 64c8,25 21,44 38,56 -8,10 -19,18 -34,25 -15,7 -32,10 -50,10 -18,0 -32,-5 -42,-15 -11,-11 -20,-29 -28,-54l-28 -80c-5,-15 -13,-26 -22,-34 -9,-8 -23,-13 -42,-13l-31 0 0 189c-16,3 -36,5 -60,5 -24,0 -44,-2 -60,-5l0 -512 5 -5c44,-1 81,-2 111,-2 30,-1 54,-1 71,-1 27,0 53,3 75,10 23,7 42,17 58,31 16,13 28,30 37,51 9,21 13,45 13,72zm-250 -74l0 149c23,0 42,-1 58,-2 16,0 29,-3 39,-9 10,-5 18,-12 23,-22 5,-10 7,-24 7,-42 0,-49 -24,-74 -71,-74l-31 0c-10,0 -18,0 -25,0z"/>
   <path class="fil20" d="M8743 25686c0,16 -3,32 -8,47 -5,15 -11,28 -20,40 -8,12 -18,22 -29,31 -11,9 -23,15 -35,20 26,10 45,33 58,70l23 64c8,25 21,44 37,56 -7,10 -18,18 -34,25 -15,7 -31,10 -49,10 -19,0 -33,-5 -43,-15 -10,-11 -19,-29 -28,-54l-27 -80c-5,-15 -13,-26 -22,-34 -9,-8 -23,-13 -42,-13l-31 0 0 189c-16,3 -36,5 -60,5 -25,0 -45,-2 -60,-5l0 -512 5 -5c44,-1 81,-2 111,-2 30,-1 53,-1 70,-1 28,0 53,3 76,10 23,7 42,17 58,31 16,13 28,30 37,51 9,21 13,45 13,72zm-250 -74l0 149c23,0 42,-1 58,-2 16,0 29,-3 39,-9 10,-5 17,-12 22,-22 5,-10 8,-24 8,-42 0,-49 -24,-74 -71,-74l-32 0c-9,0 -17,0 -24,0z"/>
   <path class="fil20" d="M8990 26042l0 -516c16,-3 36,-4 61,-4 24,0 45,1 61,4l0 516c-16,3 -37,5 -61,5 -25,0 -45,-2 -61,-5z"/>
   <path class="fil20" d="M9574 25627l1 56 0 359c-17,3 -37,5 -61,5 -24,0 -43,-2 -59,-5l0 -415 -49 1 -77 0c-3,-15 -5,-32 -5,-51 0,-19 2,-36 5,-51l373 0c4,14 6,30 6,48 0,19 -5,33 -15,41 -10,8 -27,13 -49,13l-22 0 -47 -1 -1 0z"/>
   <path class="fil20" d="M9953 26006c-54,-45 -81,-119 -81,-221 0,-45 5,-83 15,-117 11,-33 25,-62 45,-84 19,-23 43,-40 70,-52 28,-11 59,-17 94,-17 35,0 66,6 94,17 28,12 52,29 71,52 20,23 34,51 45,85 10,33 15,72 15,116 0,44 -5,82 -15,116 -11,33 -25,61 -45,84 -19,23 -43,40 -71,51 -28,12 -59,18 -94,18 -57,0 -105,-16 -143,-48zm61 -104c13,39 41,59 82,59 21,0 38,-5 50,-16 13,-10 23,-23 31,-39 7,-16 12,-34 14,-53 3,-20 4,-39 4,-58 0,-18 -1,-38 -2,-59 -1,-22 -5,-42 -11,-61 -6,-19 -15,-35 -28,-48 -14,-13 -33,-19 -58,-19 -24,0 -43,6 -55,18 -13,13 -23,28 -29,46 -6,18 -10,38 -12,58 -1,20 -2,38 -2,54 0,23 1,44 3,62 3,18 7,37 13,56z"/>
   <path class="fil20" d="M10927 25686c0,16 -2,32 -7,47 -5,15 -12,28 -20,40 -9,12 -19,22 -30,31 -11,9 -23,15 -35,20 26,10 46,33 58,70l23 64c8,25 21,44 38,56 -8,10 -19,18 -34,25 -15,7 -32,10 -50,10 -18,0 -32,-5 -43,-15 -10,-11 -19,-29 -27,-54l-28 -80c-5,-15 -13,-26 -22,-34 -9,-8 -23,-13 -42,-13l-31 0 0 189c-16,3 -36,5 -60,5 -25,0 -44,-2 -60,-5l0 -512 5 -5c44,-1 81,-2 111,-2 30,-1 53,-1 71,-1 27,0 52,3 75,10 23,7 42,17 58,31 16,13 28,30 37,51 9,21 13,45 13,72zm-250 -74l0 149c23,0 42,-1 58,-2 16,0 29,-3 39,-9 10,-5 17,-12 22,-22 6,-10 8,-24 8,-42 0,-49 -24,-74 -71,-74l-31 0c-10,0 -18,0 -25,0z"/>
   <path class="fil20" d="M11174 26042l0 -516c16,-3 36,-4 61,-4 24,0 45,1 61,4l0 516c-16,3 -37,5 -61,5 -25,0 -45,-2 -61,-5z"/>
   <path class="fil20" d="M11689 25934c-14,0 -24,0 -30,0l-33 109c-12,3 -29,5 -51,5 -24,0 -43,-3 -59,-9l-3 -6 166 -507c20,-3 42,-4 69,-4 29,0 53,2 71,5l163 508c-18,9 -38,14 -60,14 -26,0 -44,-4 -55,-13 -11,-10 -20,-27 -27,-53l-15 -49c-6,0 -16,0 -29,0l-107 0zm-3 -95l31 -1 55 0c2,0 7,1 13,1 6,0 11,0 14,0l-13 -47c-12,-42 -26,-94 -41,-155l-5 0c-4,21 -16,69 -36,144l-18 58z"/>
   <path class="fil20" d="M12387 25940l131 0c0,21 -1,38 -3,52 -3,14 -11,27 -25,37 -13,10 -31,16 -53,16l-171 0c-22,0 -39,-7 -51,-19 -13,-13 -19,-30 -19,-52l0 -448 5 -5 44 0c47,0 71,26 71,77l0 345c22,-2 46,-3 71,-3z"/>
   <polygon class="fil21" points="4395,24173 5533,24861 5533,22884 4395,22196 "/>
   <path class="fil2" d="M5533 24892c-5,0 -11,-1 -16,-4l-1138 -688c-10,-6 -15,-16 -15,-27l0 -1977c0,-12 6,-22 16,-28 10,-5 22,-5 31,1l1139 688c9,6 15,16 15,27l0 1977c0,11 -6,21 -16,27 -5,3 -10,4 -16,4zm-1106 -737l1075 650 0 -1903 -1075 -650 0 1903z"/>
   <polygon class="fil21" points="8418,23253 8664,23253 8826,23414 8968,23476 8968,22884 7980,22884 8157,23253 "/>
   <path class="fil2" d="M8968 23507c-5,0 -9,0 -13,-2l-142 -62c-3,-1 -7,-3 -9,-6l-153 -153 -494 0c-12,0 -23,-7 -29,-17l-177 -370c-4,-9 -4,-21 2,-30 6,-9 16,-15 27,-15l988 0c17,0 31,14 31,32l0 592c0,11 -5,20 -14,26 -5,4 -11,5 -17,5zm-124 -119l92 40 0 -513 -906 0 146 306 488 0c9,0 17,4 23,10l157 157z"/>
   <polygon class="fil21" points="5811,24030 6065,23872 6426,23837 6588,23528 6234,23245 6234,23130 5811,22884 5533,22884 5533,24861 5749,24345 "/>
   <path class="fil2" d="M5533 24892c-2,0 -4,0 -6,-1 -14,-2 -25,-15 -25,-30l0 -1977c0,-18 14,-32 31,-32l278 0c5,0 11,2 16,5l423 246c9,5 15,16 15,27l0 100 342 274c12,9 15,25 8,39l-161 309c-5,10 -14,16 -25,17l-354 34 -236 146 -59 302c0,2 -1,4 -2,6l-216 516c-5,12 -16,19 -29,19zm32 -1977l0 1789 154 -368 61 -312c2,-9 7,-16 14,-21l254 -158c4,-2 9,-4 14,-4l344 -33 142 -271 -334 -267c-7,-6 -12,-15 -12,-25l0 -97 -400 -233 -237 0z"/>
   <polygon class="fil3" points="8826,23414 8664,23253 8418,23253 8157,23253 7980,22884 5811,22884 6234,23130 6234,23245 6588,23528 6426,23838 6065,23872 5811,24030 5749,24345 5533,24861 8968,24861 8968,23476 "/>
   <path class="fil2" d="M8968 24892l-3435 0c-10,0 -20,-5 -26,-14 -6,-9 -7,-20 -3,-30l215 -512 61 -312c2,-9 7,-16 14,-21l254 -158c4,-2 9,-4 14,-4l344 -33 142 -271 -334 -267c-7,-6 -12,-15 -12,-25l0 -97 -407 -237c-12,-7 -18,-22 -15,-35 4,-14 17,-24 31,-24l2169 0c12,0 23,7 28,18l168 351 488 0c9,0 17,4 23,10l157 157 136 59c12,5 19,16 19,29l0 1385c0,17 -14,31 -31,31zm-3387 -63l3355 0 0 -1332 -123 -54c-3,-1 -7,-3 -9,-6l-153 -153 -494 0c-12,0 -23,-7 -29,-17l-168 -352 -2032 0 322 188c9,5 15,16 15,27l0 100 342 274c12,9 15,25 8,39l-161 309c-5,10 -14,16 -25,17l-354 34 -236 146 -59 302c0,2 -1,4 -2,6l-197 472z"/>
   <polygon class="fil21" points="9226,23268 9226,23022 9603,22938 9537,22615 9607,22497 8968,22884 8968,23476 "/>
   <path class="fil2" d="M8968 23507c-5,0 -10,-1 -14,-3 -11,-5 -18,-16 -18,-28l0 -592c0,-11 6,-21 15,-27l640 -387c12,-7 28,-5 38,5 11,10 13,26 5,38l-64 107 64 311c3,17 -8,34 -24,37l-353 79 0 221c0,10 -4,19 -11,25l-259 208c-5,4 -12,6 -19,6zm31 -605l0 508 195 -157 0 -231c0,-15 11,-27 25,-31l347 -77 -60 -293c-2,-8 0,-16 4,-23l5 -8 -516 312z"/>
   <polygon class="fil3" points="9607,22497 9537,22615 9603,22938 9226,23022 9226,23268 8968,23476 8968,24861 10106,24173 10106,22196 "/>
   <path class="fil2" d="M8968 24892c-6,0 -11,-1 -16,-4 -10,-6 -16,-16 -16,-27l0 -1385c0,-10 5,-19 12,-25l246 -198 0 -231c0,-15 11,-27 25,-31l347 -77 -60 -293c-2,-8 0,-16 4,-23l70 -117c3,-4 6,-8 11,-11l499 -301c9,-6 21,-6 31,-1 10,6 16,16 16,28l0 1977c0,11 -5,21 -15,27l-1138 688c-5,3 -11,4 -16,4zm31 -1401l0 1314 1075 -650 0 -1903 -444 268 -60 100 64 311c3,17 -8,34 -24,37l-353 79 0 221c0,10 -4,19 -11,25l-247 198z"/>
   <path class="fil2" d="M4745 23154c-83,0 -150,-68 -150,-151 0,-83 67,-151 150,-151 84,0 151,68 151,151 0,83 -67,151 -151,151zm0 -239c-48,0 -87,40 -87,88 0,48 39,88 87,88 49,0 88,-40 88,-88 0,-48 -39,-88 -88,-88z"/>
   <path class="fil2" d="M7980 24450c-83,0 -151,-68 -151,-151 0,-83 68,-151 151,-151 83,0 150,68 150,151 0,83 -67,151 -150,151zm0 -239c-49,0 -88,40 -88,88 0,48 39,88 88,88 48,0 88,-40 88,-88 0,-48 -40,-88 -88,-88z"/>
   <path class="fil2" d="M9763 23454c-84,0 -151,-67 -151,-151 0,-83 67,-150 151,-150 83,0 150,67 150,150 0,84 -67,151 -150,151zm0 -238c-49,0 -88,39 -88,87 0,49 39,88 88,88 48,0 87,-39 87,-88 0,-48 -39,-87 -87,-87z"/>
   <path class="fil2" d="M7269 22956c-17,0 -31,-15 -31,-32l0 -21c0,-17 14,-31 31,-31 18,0 32,14 32,31l0 21c0,17 -14,32 -32,32z"/>
   <path class="fil2" d="M7269 24749c-17,0 -31,-14 -31,-32l0 -40c0,-18 14,-32 31,-32 18,0 32,14 32,32l0 40c0,18 -14,32 -32,32zm0 -163c-17,0 -31,-14 -31,-32l0 -40c0,-18 14,-32 31,-32 18,0 32,14 32,32l0 40c0,18 -14,32 -32,32zm0 -163c-17,0 -31,-14 -31,-32l0 -40c0,-18 14,-32 31,-32 18,0 32,14 32,32l0 40c0,18 -14,32 -32,32zm0 -163c-17,0 -31,-14 -31,-32l0 -40c0,-18 14,-32 31,-32 18,0 32,14 32,32l0 40c0,18 -14,32 -32,32zm0 -163c-17,0 -31,-14 -31,-32l0 -41c0,-17 14,-31 31,-31 18,0 32,14 32,31l0 41c0,18 -14,32 -32,32zm0 -163c-17,0 -31,-14 -31,-32l0 -41c0,-17 14,-31 31,-31 18,0 32,14 32,31l0 41c0,18 -14,32 -32,32zm0 -163c-17,0 -31,-14 -31,-32l0 -41c0,-17 14,-31 31,-31 18,0 32,14 32,31l0 41c0,18 -14,32 -32,32zm0 -163c-17,0 -31,-14 -31,-32l0 -41c0,-17 14,-31 31,-31 18,0 32,14 32,31l0 41c0,18 -14,32 -32,32zm0 -163c-17,0 -31,-14 -31,-32l0 -41c0,-17 14,-31 31,-31 18,0 32,14 32,31l0 41c0,18 -14,32 -32,32zm0 -163c-17,0 -31,-14 -31,-32l0 -41c0,-17 14,-31 31,-31 18,0 32,14 32,31l0 41c0,18 -14,32 -32,32zm0 -163c-17,0 -31,-15 -31,-32l0 -41c0,-17 14,-31 31,-31 18,0 32,14 32,31l0 41c0,17 -14,32 -32,32z"/>
   <path class="fil2" d="M7269 24892c-17,0 -31,-14 -31,-31l0 -21c0,-18 14,-32 31,-32 18,0 32,14 32,32l0 21c0,17 -14,31 -32,31z"/>
  </g>
 </g>
</svg>
