<?xml version="1.0" encoding="UTF-8"?>
<!DOCTYPE svg PUBLIC "-//W3C//DTD SVG 1.1//EN" "http://www.w3.org/Graphics/SVG/1.1/DTD/svg11.dtd">
<!-- Creator: CorelDRAW X7 -->
<svg xmlns="http://www.w3.org/2000/svg" xml:space="preserve" width="190.498mm" height="338.667mm" version="1.1" style="shape-rendering:geometricPrecision; text-rendering:geometricPrecision; image-rendering:optimizeQuality; fill-rule:evenodd; clip-rule:evenodd"
viewBox="0 0 19050 33867"
 xmlns:xlink="http://www.w3.org/1999/xlink">
 <defs>
  <style type="text/css">
   <![CDATA[
    .str1 {stroke:white;stroke-width:317.5}
    .str0 {stroke:#541124;stroke-width:105.83}
    .fil16 {fill:none;fill-rule:nonzero}
    .fil20 {fill:#2B2A29}
    .fil18 {fill:#75D1B0}
    .fil19 {fill:#FEFEFE}
    .fil17 {fill:white}
    .fil11 {fill:#4E3E37;fill-rule:nonzero}
    .fil3 {fill:#541124;fill-rule:nonzero}
    .fil14 {fill:#541224;fill-rule:nonzero}
    .fil4 {fill:#54BDBE;fill-rule:nonzero}
    .fil15 {fill:#61C5C3;fill-rule:nonzero}
    .fil8 {fill:#6EBA6D;fill-rule:nonzero}
    .fil5 {fill:#D3632B;fill-rule:nonzero}
    .fil12 {fill:#DEA517;fill-rule:nonzero}
    .fil6 {fill:#E2E7C6;fill-rule:nonzero}
    .fil13 {fill:#E8642A;fill-rule:nonzero}
    .fil10 {fill:#E8CAA6;fill-rule:nonzero}
    .fil1 {fill:#F7AEB4;fill-rule:nonzero}
    .fil9 {fill:#F9F0E8;fill-rule:nonzero}
    .fil0 {fill:#FDF38B;fill-rule:nonzero}
    .fil2 {fill:#FFED00;fill-rule:nonzero}
    .fil7 {fill:white;fill-rule:nonzero}
   ]]>
  </style>
 </defs>
 <g id="Capa_x0020_1">
  <metadata id="CorelCorpID_0Corel-Layer"/>
  <polygon class="fil0" points="0,33867 19050,33867 19050,0 0,0 "/>
  <path class="fil1" d="M3695 23824c0,111 -90,200 -200,200 -111,0 -200,-89 -200,-200 0,-111 89,-200 200,-200 110,0 200,89 200,200z"/>
  <path class="fil1" d="M5846 23824c0,111 -90,200 -200,200 -111,0 -200,-89 -200,-200 0,-111 89,-200 200,-200 110,0 200,89 200,200z"/>
  <polygon class="fil2" points="11562,22016 9307,22016 9307,21301 11562,21301 "/>
  <path class="fil3 str0" d="M11562 22043l-2255 0c-15,0 -27,-12 -27,-27l0 -715c0,-14 12,-27 27,-27l2255 0c15,0 27,13 27,27l0 715c0,15 -12,27 -27,27zm-2228 -54l2201 0 0 -660 -2201 0 0 660z"/>
  <polygon class="fil4 str0" points="11562,22373 9307,22373 9307,22016 11562,22016 "/>
  <path class="fil3 str0" d="M11562 22400l-2255 0c-15,0 -27,-12 -27,-27l0 -357c0,-15 12,-27 27,-27l2255 0c15,0 27,12 27,27l0 357c0,15 -12,27 -27,27zm-2228 -54l2201 0 0 -303 -2201 0 0 303z"/>
  <polygon class="fil5" points="11562,22731 9307,22731 9307,22373 11562,22373 "/>
  <path class="fil3 str0" d="M11562 22758l-2255 0c-15,0 -27,-12 -27,-27l0 -358c0,-14 12,-27 27,-27l2255 0c15,0 27,13 27,27l0 358c0,15 -12,27 -27,27zm-2228 -54l2201 0 0 -304 -2201 0 0 304z"/>
  <path class="fil3 str0" d="M9307 27545c-15,0 -27,-12 -27,-27l0 -6217c0,-14 12,-27 27,-27 15,0 27,13 27,27l0 6217c0,15 -12,27 -27,27z"/>
  <path class="fil6" d="M2567 25538c305,0 552,247 552,552 0,305 -247,552 -552,552 -451,0 -816,365 -816,815 0,451 365,816 816,816l0 1104c-1060,0 -1919,-859 -1919,-1920 0,-1060 859,-1919 1919,-1919l0 0z"/>
  <path class="fil3" d="M572 27457c0,-1100 895,-1995 1995,-1995 346,0 627,282 627,628 0,346 -281,628 -627,628 -408,0 -740,331 -740,739 0,408 332,740 740,740 42,0 76,34 76,76l0 1104c0,42 -34,76 -76,76 -1100,0 -1995,-895 -1995,-1996l0 0zm1919 889c-456,-39 -816,-422 -816,-889 0,-491 400,-891 892,-891 262,0 476,-214 476,-476 0,-263 -214,-476 -476,-476 -1017,0 -1844,827 -1844,1843 0,992 787,1803 1768,1842l0 -953 0 0z"/>
  <path class="fil7" d="M6561 28834c0,342 -277,619 -619,619 -343,0 -620,-277 -620,-619 0,-343 277,-620 620,-620 342,0 619,277 619,620z"/>
  <path class="fil3" d="M6637 28834c0,383 -312,695 -695,695 -384,0 -696,-312 -696,-695 0,-384 312,-696 696,-696 383,0 695,312 695,696zm-1239 0c0,300 244,543 544,543 299,0 544,-243 544,-543 0,-300 -245,-544 -544,-544 -300,0 -544,244 -544,544z"/>
  <path class="fil8" d="M2957 24158c-112,0 -202,90 -202,202 0,112 90,202 202,202 112,0 202,-90 202,-202l0 0c0,-112 -90,-202 -202,-202z"/>
  <path class="fil3" d="M2957 24638c-153,0 -278,-124 -278,-278 0,-153 125,-278 278,-278 153,0 278,124 278,278 0,154 -125,278 -278,278zm0 -405c-70,0 -126,57 -126,127 0,70 56,127 126,127 70,0 126,-57 126,-127 0,-70 -56,-127 -126,-127z"/>
  <path class="fil8" d="M2957 24826c-112,0 -202,90 -202,202 0,112 90,202 202,202 112,0 202,-90 202,-202l0 0c0,-112 -90,-202 -202,-202z"/>
  <path class="fil3" d="M2957 25306c-153,0 -278,-124 -278,-278 0,-153 125,-278 278,-278 153,0 278,125 278,278 0,154 -125,278 -278,278zm0 -404c-70,0 -126,56 -126,126 0,70 56,127 126,127 70,0 126,-57 126,-127 0,-70 -56,-126 -126,-126z"/>
  <path class="fil8" d="M3975 24663c-111,0 -202,90 -202,202 0,112 91,202 202,202 112,0 203,-90 203,-202l0 0c0,-112 -91,-202 -203,-202z"/>
  <path class="fil3" d="M3975 25143c-153,0 -278,-124 -278,-278 0,-153 125,-278 278,-278 154,0 278,124 278,278 0,154 -124,278 -278,278zm0 -405c-69,0 -126,57 -126,127 0,70 57,127 126,127 70,0 127,-57 127,-127 0,-70 -57,-127 -127,-127z"/>
  <path class="fil8" d="M3975 23994c-111,0 -202,91 -202,203 0,112 91,202 202,202 112,0 203,-90 203,-202l0 -1c0,-111 -91,-202 -203,-202z"/>
  <path class="fil3" d="M3975 24475c-153,0 -278,-125 -278,-278 0,-154 125,-278 278,-278 154,0 278,124 278,277 0,154 -124,279 -278,279zm0 -405c-69,0 -126,57 -126,127 0,70 57,126 126,126 70,0 127,-56 127,-126 0,-70 -57,-127 -127,-127z"/>
  <path class="fil8" d="M3975 25331c-111,0 -202,91 -202,202 0,112 91,203 202,203 112,0 203,-91 203,-203l0 0c0,-112 -91,-202 -203,-202z"/>
  <path class="fil3" d="M3975 25812c-153,0 -278,-125 -278,-279 0,-153 125,-278 278,-278 154,0 278,125 278,278 0,154 -124,279 -278,279zm0 -405c-69,0 -126,57 -126,126 0,70 57,127 126,127 70,0 127,-57 127,-127 0,-70 -57,-126 -127,-126z"/>
  <path class="fil8" d="M3975 25999c-111,0 -202,91 -202,202 0,112 91,203 202,203 112,0 203,-91 203,-203l0 0c0,-111 -91,-202 -203,-202z"/>
  <path class="fil3" d="M3975 26479c-153,0 -278,-124 -278,-278 0,-153 125,-278 278,-278 154,0 278,125 278,278 0,154 -124,278 -278,278zm0 -404c-69,0 -126,57 -126,126 0,70 57,127 126,127 70,0 127,-57 127,-127 0,-70 -57,-126 -127,-126z"/>
  <path class="fil8" d="M4994 23708c-112,0 -203,91 -203,203 0,111 91,202 203,202 111,0 202,-91 202,-202l0 -1c0,-112 -91,-202 -202,-202z"/>
  <path class="fil3" d="M4994 24189c-154,0 -278,-125 -278,-278 0,-154 124,-279 278,-279 153,0 278,125 278,278 0,154 -125,279 -278,279zm0 -405c-70,0 -127,57 -127,127 0,69 57,126 127,126 69,0 126,-57 126,-126 0,-71 -57,-127 -126,-127z"/>
  <path class="fil8" d="M4994 24376c-112,0 -203,91 -203,203 0,111 91,202 203,202 111,0 202,-91 202,-202l0 -1c0,-111 -91,-202 -202,-202z"/>
  <path class="fil3" d="M4994 24857c-154,0 -278,-125 -278,-278 0,-154 124,-279 278,-279 153,0 278,125 278,278 0,154 -125,279 -278,279zm0 -405c-70,0 -127,57 -127,127 0,69 57,126 127,126 69,0 126,-57 126,-126 0,-70 -57,-127 -126,-127z"/>
  <path class="fil8" d="M5789 24158c-112,0 -202,90 -202,202 0,112 90,202 202,202 112,0 202,-90 202,-202l0 0c0,-112 -90,-202 -202,-202z"/>
  <path class="fil3" d="M5789 24638c-153,0 -278,-124 -278,-278 0,-153 125,-278 278,-278 154,0 278,124 278,278 0,154 -124,278 -278,278zm0 -405c-69,0 -126,57 -126,127 0,70 57,127 126,127 70,0 127,-57 127,-127 0,-70 -57,-127 -127,-127z"/>
  <path class="fil8" d="M5789 23489c-112,0 -202,91 -202,203 0,112 90,202 202,202 112,0 202,-90 202,-202l0 -1c0,-111 -90,-202 -202,-202z"/>
  <path class="fil3" d="M5789 23970c-153,0 -278,-125 -278,-278 0,-154 125,-278 278,-278 154,0 278,124 278,277 0,154 -124,279 -278,279zm0 -405c-69,0 -126,57 -126,127 0,70 57,126 126,126 70,0 127,-56 127,-126 0,-70 -57,-127 -127,-127z"/>
  <path class="fil8" d="M5789 24826c-112,0 -202,90 -202,202 0,112 90,202 202,202 112,0 202,-90 202,-202l0 0c0,-112 -90,-202 -202,-202z"/>
  <path class="fil3" d="M5789 25306c-153,0 -278,-124 -278,-278 0,-153 125,-278 278,-278 154,0 278,125 278,278 0,154 -124,278 -278,278zm0 -404c-69,0 -126,56 -126,126 0,70 57,127 126,127 70,0 127,-57 127,-127 0,-70 -57,-126 -127,-126z"/>
  <polygon class="fil3" points="5028,27169 4425,27169 4425,23816 5028,23816 "/>
  <path class="fil3" d="M5028 27245l-603 0c-42,0 -76,-34 -76,-76l0 -3353c0,-42 34,-76 76,-76l603 0c42,0 76,34 76,76l0 3353c0,42 -34,76 -76,76zm-527 -152l451 0 0 -3201 -451 0 0 3201z"/>
  <path class="fil6" d="M5980 25722c0,-305 247,-552 552,-552 305,0 552,247 552,552 0,450 365,816 816,816 450,0 816,-366 816,-816l1103 0c0,1060 -859,1919 -1919,1919 -1060,0 -1920,-859 -1920,-1919l0 0z"/>
  <path class="fil3" d="M7900 27717c-1100,0 -1995,-895 -1995,-1995 0,-346 281,-628 627,-628 346,0 628,282 628,628 0,408 332,740 740,740 408,0 740,-332 740,-740 0,-42 34,-76 75,-76l1104 0c42,0 76,34 76,76 0,1100 -895,1995 -1995,1995l0 0zm888 -1919c-38,456 -422,816 -888,816 -492,0 -892,-401 -892,-892 0,-263 -213,-476 -476,-476 -262,0 -476,213 -476,476 0,1016 827,1843 1844,1843 991,0 1802,-786 1842,-1767l-954 0 0 0z"/>
  <path class="fil9" d="M9273 25722c342,0 619,-278 619,-620 0,-342 -277,-620 -619,-620 -342,0 -620,278 -620,620 0,342 278,620 620,620z"/>
  <path class="fil3" d="M9273 25797c-384,0 -696,-312 -696,-695 0,-383 312,-696 696,-696 383,0 695,313 695,696 0,383 -312,695 -695,695zm0 -1239c-300,0 -544,244 -544,544 0,300 244,544 544,544 300,0 544,-244 544,-544 0,-300 -244,-544 -544,-544z"/>
  <path class="fil10" d="M4604 24480c-1404,0 -2543,570 -2543,1272l0 5422 5085 0 0 -5422c0,-702 -1138,-1272 -2542,-1272l0 0z"/>
  <path class="fil3" d="M1986 31174l0 -5422c0,-756 1150,-1347 2618,-1347 1468,0 2618,591 2618,1347l0 5422 -5236 0 0 0zm151 -33l4933 0 0 -5389c0,-659 -1106,-1196 -2466,-1196 -1360,0 -2467,537 -2467,1196l0 5389z"/>
  <path class="fil11" d="M3669 24655c0,250 -202,453 -452,453 -250,0 -452,-203 -452,-453 0,-249 202,-452 452,-452 250,0 452,203 452,452z"/>
  <path class="fil3" d="M3217 25183c-291,0 -528,-236 -528,-528 0,-291 237,-528 528,-528 291,0 528,237 528,528 0,292 -237,528 -528,528zm0 -904c-208,0 -376,169 -376,376 0,208 168,377 376,377 208,0 376,-169 376,-377 0,-207 -168,-376 -376,-376z"/>
  <path class="fil11" d="M6343 24655c0,250 -202,453 -452,453 -250,0 -452,-203 -452,-453 0,-249 202,-452 452,-452 250,0 452,203 452,452z"/>
  <path class="fil3" d="M5891 25183c-291,0 -528,-236 -528,-528 0,-291 237,-528 528,-528 291,0 528,237 528,528 0,292 -237,528 -528,528zm0 -904c-208,0 -376,169 -376,376 0,208 168,377 376,377 208,0 376,-169 376,-377 0,-207 -168,-376 -376,-376z"/>
  <path class="fil9" d="M6285 23573c0,929 -753,1682 -1681,1682 -929,0 -1682,-753 -1682,-1682 0,-928 753,-1681 1682,-1681 928,0 1681,753 1681,1681z"/>
  <path class="fil3" d="M4604 25331c-969,0 -1757,-789 -1757,-1758 0,-968 788,-1757 1757,-1757 969,0 1757,789 1757,1757 0,969 -788,1758 -1757,1758zm0 -3363c-885,0 -1606,720 -1606,1605 0,886 721,1606 1606,1606 885,0 1605,-720 1605,-1606 0,-885 -720,-1605 -1605,-1605z"/>
  <path class="fil6" d="M4604 23293c-132,0 -238,107 -238,238l0 475c0,131 106,238 238,238 131,0 237,-107 237,-238l0 -475c0,-131 -106,-238 -237,-238z"/>
  <path class="fil3" d="M4604 24319c-173,0 -314,-140 -314,-313l0 -475c0,-173 141,-314 314,-314 42,0 76,34 76,76 0,42 -34,76 -76,76 -89,0 -162,73 -162,162l0 475c0,89 73,162 162,162 89,0 161,-73 161,-162 0,-42 34,-76 76,-76 42,0 76,34 76,76 0,173 -141,313 -313,313z"/>
  <path class="fil3" d="M3970 23427c0,63 -51,114 -114,114 -63,0 -114,-51 -114,-114 0,-63 51,-114 114,-114 63,0 114,51 114,114z"/>
  <path class="fil3" d="M5387 23427c0,63 -51,114 -114,114 -63,0 -114,-51 -114,-114 0,-63 51,-114 114,-114 63,0 114,51 114,114z"/>
  <path class="fil3" d="M2637 31174c14,-20 37,-33 63,-33l1209 0c26,0 49,13 62,33l-1334 0z"/>
  <path class="fil3" d="M5301 31174c14,-20 37,-33 63,-33l1119 0c26,0 49,13 62,33l-1244 0z"/>
  <path class="fil11" d="M3669 25554c0,250 -202,452 -452,452 -250,0 -452,-202 -452,-452 0,-250 202,-452 452,-452 250,0 452,202 452,452z"/>
  <path class="fil3" d="M3217 26082c-291,0 -528,-236 -528,-528 0,-291 237,-528 528,-528 291,0 528,237 528,528 0,292 -237,528 -528,528zm0 -904c-208,0 -376,169 -376,376 0,208 168,377 376,377 208,0 376,-169 376,-377 0,-207 -168,-376 -376,-376z"/>
  <path class="fil11" d="M6343 25554c0,250 -202,452 -452,452 -250,0 -452,-202 -452,-452 0,-250 202,-452 452,-452 250,0 452,202 452,452z"/>
  <path class="fil3" d="M5891 26082c-291,0 -528,-236 -528,-528 0,-291 237,-528 528,-528 291,0 528,237 528,528 0,292 -237,528 -528,528zm0 -904c-208,0 -376,169 -376,376 0,208 168,377 376,377 208,0 376,-169 376,-377 0,-207 -168,-376 -376,-376z"/>
  <path class="fil11" d="M3669 26459c0,250 -202,452 -452,452 -250,0 -452,-202 -452,-452 0,-250 202,-453 452,-453 250,0 452,203 452,453z"/>
  <path class="fil3" d="M3217 26987c-291,0 -528,-237 -528,-528 0,-291 237,-528 528,-528 291,0 528,237 528,528 0,291 -237,528 -528,528zm0 -905c-208,0 -376,169 -376,377 0,207 168,376 376,376 208,0 376,-169 376,-376 0,-208 -168,-377 -376,-377z"/>
  <path class="fil11" d="M6343 26459c0,250 -202,452 -452,452 -250,0 -452,-202 -452,-452 0,-250 202,-453 452,-453 250,0 452,203 452,453z"/>
  <path class="fil3" d="M5891 26987c-291,0 -528,-237 -528,-528 0,-291 237,-528 528,-528 291,0 528,237 528,528 0,291 -237,528 -528,528zm0 -905c-208,0 -376,169 -376,377 0,207 168,376 376,376 208,0 376,-169 376,-376 0,-208 -168,-377 -376,-377z"/>
  <path class="fil3" d="M4604 26832l0 0c-27,0 -51,-14 -65,-37l-1287 -2100c-22,-36 -10,-82 25,-104 36,-22 83,-11 105,25l1222 1995 1222 -1995c22,-36 69,-47 105,-25 35,22 47,69 25,104l-1288 2100c-13,23 -38,37 -64,37z"/>
  <polygon class="fil11" points="5273,23037 3970,23037 3970,22016 5273,22016 "/>
  <path class="fil3" d="M5273 23113l-1303 0c-42,0 -76,-34 -76,-76l0 -1021c0,-42 34,-76 76,-76l1303 0c42,0 76,34 76,76l0 1021c0,42 -34,76 -76,76zm-1228 -151l1152 0 0 -870 -1152 0 0 870z"/>
  <polygon class="fil12" points="3113,22657 6169,22657 6169,21053 3113,21053 "/>
  <path class="fil3" d="M6169 22733l-3056 0c-42,0 -76,-34 -76,-76l0 -1604c0,-41 34,-75 76,-75l3056 0c42,0 76,34 76,75l0 1604c0,42 -34,76 -76,76zm-2981 -152l2905 0 0 -1452 -2905 0 0 1452z"/>
  <polygon class="fil11" points="3113,22657 6169,22657 6169,21748 3113,21748 "/>
  <path class="fil3" d="M6169 22733l-3056 0c-42,0 -76,-34 -76,-76l0 -909c0,-42 34,-76 76,-76l3056 0c42,0 76,34 76,76l0 909c0,42 -34,76 -76,76zm-2981 -152l2905 0 0 -757 -2905 0 0 757z"/>
  <polygon class="fil12" points="2684,22657 6661,22657 6661,22233 2684,22233 "/>
  <path class="fil3" d="M6661 22733l-3977 0c-42,0 -76,-34 -76,-76l0 -424c0,-42 34,-76 76,-76l3977 0c42,0 76,34 76,76l0 424c0,42 -34,76 -76,76zm-3901 -152l3825 0 0 -272 -3825 0 0 272z"/>
  <polygon class="fil13" points="7146,28204 2061,28204 2061,31174 7146,31174 "/>
  <path class="fil3" d="M1986 31174l0 -2970c0,-42 34,-75 75,-75l5085 0c42,0 76,33 76,75l0 2970 -5236 0zm151 -33l4933 0 0 -2861 -4933 0 0 2861z"/>
  <polygon class="fil12" points="6553,27819 4819,27819 4819,27096 6553,27096 "/>
  <path class="fil3" d="M6553 27895l-1734 0c-42,0 -76,-34 -76,-76l0 -723c0,-42 34,-76 76,-76l1734 0c42,0 76,34 76,76l0 723c0,42 -34,76 -76,76zm-1658 -152l1582 0 0 -571 -1582 0 0 571z"/>
  <path class="fil14" d="M4621 24925c-356,0 -646,-290 -646,-646 0,-44 36,-79 79,-79 44,0 79,35 79,79 0,269 219,488 488,488 270,0 489,-219 489,-488 0,-44 35,-79 79,-79 43,0 78,35 78,79 0,356 -289,646 -646,646l0 0z"/>
  <path class="fil15" d="M14145 27075c0,-163 -134,-297 -297,-297l-7906 0c-164,0 -297,134 -297,297l0 2335c0,163 133,296 297,296l7906 0c163,0 297,-133 297,-296l0 -2335z"/>
  <path class="fil16 str1" d="M14145 27075c0,-163 -134,-297 -297,-297l-7906 0c-164,0 -297,134 -297,297l0 2335c0,163 133,296 297,296l7906 0c163,0 297,-133 297,-296l0 -2335z"/>
  <path class="fil17" d="M6628 28609l0 -872c27,-5 61,-7 103,-7 41,0 76,2 103,7l0 872c-27,5 -62,7 -103,7 -42,0 -76,-2 -103,-7z"/>
  <path class="fil17" d="M7067 28064c4,-17 13,-36 24,-57 12,-21 24,-36 36,-45 78,6 133,45 163,116 33,-77 86,-115 160,-115 22,0 50,4 84,10 0,27 -4,58 -13,94 -9,36 -21,67 -37,93 -14,-5 -36,-10 -65,-13 -42,0 -77,22 -104,65l0 397c-28,5 -61,7 -99,7 -38,0 -71,-2 -100,-7l0 -412c0,-64 -16,-108 -49,-133zm1367 453c-5,18 -13,37 -25,57 -12,21 -24,36 -37,45 -59,-2 -105,-24 -137,-68 -56,51 -116,77 -180,77 -34,0 -62,-5 -87,-16 -25,-11 -46,-25 -63,-43 -17,-18 -29,-38 -38,-62 -8,-23 -13,-48 -13,-73 0,-37 7,-69 20,-96 13,-28 31,-51 54,-69 23,-19 50,-32 81,-42 30,-9 63,-14 98,-14 20,0 37,0 52,1 14,0 27,1 39,2l0 -25c0,-54 -28,-81 -83,-81 -36,0 -99,14 -188,42 -25,-30 -42,-76 -48,-139 20,-8 43,-15 68,-22 25,-7 51,-12 77,-18 26,-5 52,-9 78,-12 25,-3 48,-4 69,-4 29,0 58,4 86,13 27,8 52,21 73,39 20,17 37,39 49,67 13,28 19,61 19,99l0 259c0,39 12,67 36,83zm-386 -96c0,40 23,60 69,60 24,0 51,-12 81,-37l0 -102c-17,-1 -32,-1 -43,-2 -12,0 -20,0 -26,0 -54,0 -81,27 -81,81z"/>
  <path class="fil17" d="M8891 28462l35 0c10,28 15,57 15,85 0,28 -1,47 -4,55 -51,9 -96,13 -136,13 -58,0 -99,-14 -123,-43 -25,-28 -37,-73 -37,-134l0 -759 8 -9 78 0c40,0 68,9 84,27 16,17 24,48 24,93l0 612c0,40 19,60 56,60zm772 -237c0,-57 -19,-86 -57,-86 -14,0 -28,4 -42,12 -14,8 -28,19 -43,32l0 426c-14,2 -30,4 -47,5 -17,2 -34,2 -52,2 -18,0 -35,0 -52,-2 -17,-1 -33,-3 -48,-5l0 -637 9 -9 74 0c55,0 91,27 108,81 60,-56 119,-83 176,-83 68,0 118,29 149,88 66,-59 129,-88 189,-88 59,0 104,18 133,55 29,37 44,86 44,148l0 285c0,56 11,98 32,127 -32,28 -71,43 -116,43 -44,0 -75,-10 -91,-31 -16,-20 -24,-51 -24,-93l0 -272c0,-56 -20,-84 -60,-84 -25,0 -52,15 -82,45l0 425c-14,2 -30,4 -47,5 -17,2 -34,2 -52,2 -18,0 -36,0 -53,-2 -18,-1 -33,-3 -48,-5l0 -384z"/>
  <path class="fil17" d="M10946 28355l-332 0c2,38 12,67 29,88 18,21 47,32 88,32 20,0 44,-3 71,-9 26,-6 57,-15 92,-28 27,29 45,68 52,117 -68,49 -152,73 -250,73 -54,0 -99,-9 -135,-26 -36,-17 -65,-40 -88,-71 -22,-31 -38,-67 -48,-109 -9,-41 -14,-87 -14,-136 0,-48 6,-92 17,-132 12,-40 29,-76 53,-105 23,-30 53,-53 89,-70 36,-17 78,-26 127,-26 41,0 78,7 110,20 33,14 61,33 84,57 23,23 40,52 53,85 12,33 18,69 18,108 0,52 -5,96 -16,132zm-333 -138l167 0 0 -14c0,-31 -7,-57 -21,-78 -14,-20 -35,-30 -63,-30 -27,0 -47,9 -60,28 -13,19 -21,51 -23,94z"/>
  <path class="fil17" d="M11727 28188l0 261c0,56 10,99 31,127 -33,28 -71,43 -116,43 -45,0 -75,-10 -91,-31 -16,-20 -24,-51 -24,-93l0 -272c0,-28 -4,-50 -12,-63 -7,-14 -22,-21 -44,-21 -13,0 -28,4 -44,10 -16,7 -33,18 -50,34l0 426c-14,2 -30,4 -47,5 -17,2 -34,2 -52,2 -18,0 -35,0 -52,-2 -17,-1 -33,-3 -48,-5l0 -637 9 -9 76 0c52,0 86,26 104,77 60,-53 119,-79 178,-79 59,0 104,20 135,62 31,41 47,96 47,165z"/>
  <path class="fil17" d="M11969 28393l0 -261c0,-56 -11,-98 -31,-128 31,-28 70,-42 115,-42 45,0 76,10 92,31 16,20 24,51 24,93l0 270c0,30 3,52 10,65 7,14 25,21 54,21 28,0 56,-15 85,-44l0 -426c28,-5 61,-7 98,-7 38,0 71,2 101,7l0 454c0,46 12,77 36,93 -4,17 -12,36 -24,56 -12,20 -25,35 -37,44 -70,-3 -120,-32 -151,-89 -67,60 -130,90 -190,90 -59,0 -105,-20 -136,-62 -31,-41 -46,-96 -46,-165zm146 -551l198 -216c25,8 49,23 73,46 24,22 39,45 47,69l-236 178c-17,-5 -33,-14 -49,-28 -16,-15 -27,-31 -33,-49z"/>
  <path class="fil18" d="M1547 4785l15987 0c395,0 716,321 716,716l0 10511c0,395 -321,716 -716,716l-15987 0c-395,0 -716,-321 -716,-716l0 -10511c0,-395 321,-716 716,-716z"/>
  <path class="fil7" d="M9666 14917c0,0 125,1615 -796,2234 -921,619 2093,-52 2830,-1703l-2034 -531z"/>
  <path class="fil19" d="M1547 3851l15987 0c395,0 716,321 716,716l0 10511c0,395 -321,716 -716,716l-15987 0c-395,0 -716,-321 -716,-716l0 -10511c0,-395 321,-716 716,-716z"/>
  <path class="fil20" d="M4322 5341l221 0 0 621 -221 0 0 -621zm-9 -192c0,-34 11,-62 34,-86 23,-23 51,-35 85,-35 34,0 62,12 86,35 23,24 35,52 35,86 0,34 -12,63 -35,86 -23,23 -52,34 -86,34 -34,0 -62,-11 -85,-35 -23,-23 -34,-51 -34,-85zm421 790l0 -870 533 0 0 191 -302 0 0 151 285 0 0 186 -285 0 0 342 -231 0zm662 0l0 -870 533 0 0 191 -302 0 0 151 285 0 0 186 -285 0 0 147 302 0 0 195 -533 0zm690 0l0 -870 237 0 0 667 295 0 0 203 -532 0zm654 0l0 -870 240 0 0 870 -240 0zm1061 -836l0 259c-32,-36 -65,-63 -97,-79 -32,-17 -67,-26 -104,-26 -68,0 -123,24 -165,70 -42,46 -63,107 -63,182 0,70 21,128 64,173 43,47 98,69 164,69 37,0 72,-8 104,-25 32,-16 65,-43 97,-79l0 259c-37,18 -75,32 -112,41 -37,9 -75,14 -113,14 -47,0 -91,-6 -131,-17 -41,-11 -77,-29 -111,-52 -65,-43 -115,-98 -149,-164 -34,-66 -51,-141 -51,-224 0,-66 11,-127 33,-181 21,-55 54,-104 97,-149 41,-42 88,-74 140,-95 51,-21 109,-31 172,-31 38,0 76,4 113,13 37,10 75,23 112,42zm140 836l0 -870 240 0 0 870 -240 0zm556 0l0 -665 -194 0 0 -205 627 0 0 205 -195 0 0 665 -238 0zm729 -325l236 0 -88 -287c-3,-9 -7,-23 -11,-43 -5,-19 -11,-44 -19,-74 -5,21 -10,41 -15,61 -5,19 -10,38 -15,56l-88 287zm-332 325l300 -870 298 0 300 870 -236 0 -44 -156 -337 0 -45 156 -236 0zm1591 -836l0 259c-33,-36 -65,-63 -98,-79 -32,-17 -67,-26 -103,-26 -69,0 -124,24 -166,70 -42,46 -63,107 -63,182 0,70 21,128 64,173 43,47 98,69 165,69 36,0 71,-8 103,-25 33,-16 65,-43 98,-79l0 259c-38,18 -76,32 -113,41 -37,9 -75,14 -113,14 -47,0 -91,-6 -131,-17 -40,-11 -77,-29 -111,-52 -65,-43 -114,-98 -148,-164 -35,-66 -52,-141 -52,-224 0,-66 11,-127 33,-181 21,-55 54,-104 97,-149 42,-42 88,-74 140,-95 52,-21 109,-31 172,-31 38,0 76,4 113,13 37,10 75,23 113,42zm139 836l0 -870 240 0 0 870 -240 0zm1325 -433c0,62 -12,121 -35,175 -23,55 -56,104 -100,147 -45,43 -95,76 -152,99 -57,24 -117,35 -178,35 -62,0 -122,-11 -179,-35 -56,-23 -106,-56 -150,-99 -44,-43 -78,-92 -102,-147 -23,-55 -34,-114 -34,-175 0,-63 11,-121 34,-176 24,-55 58,-104 102,-147 44,-43 94,-76 150,-99 57,-23 117,-35 179,-35 62,0 121,12 179,35 57,23 107,56 151,99 43,43 77,91 100,147 23,55 35,113 35,176zm-465 255c65,0 120,-24 163,-72 43,-49 64,-110 64,-183 0,-73 -21,-134 -65,-183 -44,-49 -98,-73 -162,-73 -66,0 -120,24 -163,73 -43,48 -65,109 -65,183 0,74 21,135 64,183 42,48 97,72 164,72zm613 178l0 -870 229 0 329 447c6,9 17,28 31,55 15,28 31,61 48,99 -5,-36 -8,-68 -10,-97 -2,-28 -3,-53 -3,-75l0 -429 227 0 0 870 -227 0 -329 -449c-7,-10 -18,-28 -32,-55 -15,-28 -30,-60 -47,-98 4,37 8,69 10,97 2,28 3,53 3,75l0 430 -229 0zm1037 0l0 -870 534 0 0 191 -302 0 0 151 284 0 0 186 -284 0 0 147 302 0 0 195 -534 0zm729 -281c36,40 70,70 104,89 35,20 69,30 103,30 32,0 58,-8 78,-26 21,-17 31,-38 31,-64 0,-29 -9,-51 -27,-67 -17,-16 -57,-32 -119,-48 -85,-23 -146,-53 -181,-90 -35,-37 -53,-88 -53,-152 0,-83 28,-151 83,-203 56,-53 129,-79 217,-79 48,0 94,6 137,19 43,13 83,33 122,59l-74 170c-27,-23 -55,-40 -83,-52 -29,-11 -57,-17 -84,-17 -29,0 -52,7 -70,20 -18,14 -27,32 -27,53 0,22 8,39 24,52 15,13 46,26 90,38l11 3c97,26 161,54 191,86 21,21 36,47 47,77 11,30 16,63 16,99 0,93 -30,167 -91,223 -61,56 -141,84 -243,84 -60,0 -115,-10 -165,-31 -50,-20 -98,-53 -144,-97l107 -176zm675 -9l0 -621 220 0 0 621 -220 0zm-10 193c0,-34 11,-63 34,-86 23,-23 51,-35 85,-35 34,0 63,12 86,35 23,23 35,51 35,86 0,33 -12,62 -35,85 -24,23 -52,35 -86,35 -33,0 -61,-12 -84,-35 -23,-23 -35,-52 -35,-85z"/>
  <path class="fil20" d="M4726 6525l0 587 -110 0 0 -587 -181 0 0 -94 471 0 0 94 -180 0zm585 381l-352 0c2,41 14,74 37,97 21,23 51,35 87,35 33,0 60,-7 82,-21 21,-13 40,-36 57,-66l84 47c-24,45 -55,78 -92,99 -36,22 -79,33 -128,33 -71,0 -127,-22 -169,-65 -42,-43 -63,-100 -63,-172 0,-69 21,-126 65,-171 43,-44 99,-66 167,-66 70,0 126,20 166,61 39,40 59,97 59,170l0 19zm-105 -67c-4,-32 -16,-56 -36,-73 -20,-16 -48,-25 -83,-25 -33,0 -59,9 -80,25 -20,16 -34,40 -42,73l241 0zm311 -98c11,-29 25,-50 43,-64 18,-14 40,-21 67,-21 14,0 28,1 42,5 13,3 27,8 40,15l-36 85c-9,-6 -18,-10 -28,-13 -10,-3 -21,-5 -34,-5 -34,0 -57,14 -72,40 -15,27 -22,72 -22,136l0 193 -101 0 0 -442 101 0 0 71zm351 371l-101 0 0 -441 95 0 0 72c20,-30 43,-53 68,-67 26,-14 56,-21 91,-21 34,0 63,7 85,21 23,15 40,37 52,66 23,-30 48,-52 74,-66 26,-14 56,-21 90,-21 29,0 54,5 76,16 22,11 38,26 51,47 5,9 9,21 12,34 3,13 4,32 4,57l0 36 0 267 -101 0 0 -226c0,-60 -6,-99 -19,-117 -13,-19 -35,-29 -67,-29 -40,0 -68,13 -85,38 -17,26 -25,70 -25,133l0 201 -102 0 0 -226c0,-55 -7,-93 -20,-114 -13,-21 -36,-32 -68,-32 -20,0 -38,5 -54,14 -17,9 -30,21 -40,37 -6,10 -10,23 -13,38 -2,15 -3,42 -3,82l0 201zm724 -632c0,-17 6,-31 18,-44 13,-12 28,-18 45,-18 18,0 33,6 45,18 12,11 18,26 18,44 0,19 -6,34 -18,46 -12,12 -27,18 -45,18 -17,0 -32,-6 -45,-19 -12,-12 -18,-27 -18,-45zm13 632l0 -441 101 0 0 441 -101 0zm245 0l0 -441 95 0 0 72c20,-30 44,-52 71,-66 27,-14 60,-21 100,-21 32,0 60,5 84,15 23,11 41,26 54,47 7,12 13,26 17,42 3,16 5,44 5,85l0 267 -102 0 0 -226c0,-58 -7,-97 -21,-116 -15,-19 -40,-29 -76,-29 -23,0 -44,5 -63,13 -18,9 -33,21 -43,37 -8,11 -13,24 -16,41 -3,16 -4,43 -4,79l0 201 -101 0zm975 0l-101 0 0 -57c-18,25 -39,44 -63,56 -24,13 -52,19 -83,19 -62,0 -111,-21 -147,-64 -36,-42 -54,-101 -54,-175 0,-70 19,-127 55,-170 37,-44 85,-65 144,-65 36,0 66,7 92,22 26,15 44,37 56,65l0 -72 101 0 0 441zm-98 -222c0,-46 -11,-81 -32,-107 -21,-25 -51,-38 -89,-38 -38,0 -68,13 -90,40 -22,26 -33,62 -33,109 0,47 11,83 32,108 21,26 51,38 89,38 36,0 66,-13 89,-41 23,-28 34,-64 34,-109zm187 142l83 -46c7,22 18,39 35,51 17,11 38,17 64,17 23,0 41,-5 54,-16 13,-10 19,-24 19,-42 0,-24 -23,-45 -69,-62 -15,-5 -27,-10 -36,-14 -47,-19 -80,-39 -98,-59 -19,-20 -29,-45 -29,-74 0,-39 16,-71 47,-96 31,-24 71,-36 122,-36 34,0 64,6 88,19 24,12 42,30 53,53l-72 50c-5,-14 -14,-25 -27,-34 -13,-8 -29,-12 -46,-12 -19,0 -35,5 -46,14 -12,9 -18,21 -18,36 0,23 26,44 78,63 17,6 30,11 38,14 41,17 70,35 88,55 17,20 26,46 26,76 0,44 -16,79 -48,104 -32,24 -76,37 -132,37 -43,0 -79,-8 -107,-24 -29,-16 -51,-41 -67,-74zm480 80l0 -352 -78 0 0 -89 78 0 0 -167 100 0 0 167 78 0 0 89 -78 0 0 352 -100 0zm689 -206l-352 0c2,41 15,74 37,97 22,23 51,35 88,35 32,0 59,-7 81,-21 22,-13 41,-36 57,-66l85 47c-25,45 -56,78 -93,99 -36,22 -79,33 -128,33 -71,0 -127,-22 -169,-65 -42,-43 -63,-100 -63,-172 0,-69 22,-126 65,-171 43,-44 99,-66 167,-66 71,0 126,20 166,61 39,40 59,97 59,170l0 19zm-104 -67c-4,-32 -17,-56 -37,-73 -20,-16 -47,-25 -82,-25 -34,0 -60,9 -80,25 -20,16 -35,40 -43,73l242 0zm922 67l-353 0c3,41 15,74 37,97 22,23 51,35 88,35 32,0 60,-7 81,-21 22,-13 41,-36 57,-66l85 47c-25,45 -56,78 -92,99 -37,22 -80,33 -129,33 -71,0 -127,-22 -169,-65 -42,-43 -63,-100 -63,-172 0,-69 22,-126 65,-171 43,-44 99,-66 167,-66 71,0 126,20 166,61 40,40 60,97 60,170l0 19zm-105 -67c-4,-32 -16,-56 -36,-73 -21,-16 -48,-25 -83,-25 -33,0 -60,9 -80,25 -20,16 -34,40 -42,73l241 0zm214 273l0 -721 101 0 0 721 -101 0zm634 0l-101 0 0 -441 95 0 0 72c20,-30 43,-53 68,-67 26,-14 56,-21 91,-21 34,0 63,7 85,21 23,15 40,37 52,66 23,-30 48,-52 74,-66 26,-14 56,-21 90,-21 29,0 54,5 76,16 22,11 38,26 50,47 6,9 10,21 13,34 3,13 4,32 4,57l0 36 0 267 -101 0 0 -226c0,-60 -7,-99 -19,-117 -13,-19 -35,-29 -67,-29 -40,0 -68,13 -85,38 -17,26 -25,70 -25,133l0 201 -102 0 0 -226c0,-55 -7,-93 -20,-114 -13,-21 -36,-32 -68,-32 -20,0 -38,5 -55,14 -16,9 -29,21 -39,37 -6,10 -10,23 -13,38 -2,15 -3,42 -3,82l0 201zm1079 -219c0,-41 -13,-76 -40,-104 -26,-29 -58,-43 -96,-43 -38,0 -70,14 -97,43 -26,28 -40,63 -40,104 0,41 14,76 40,104 27,28 59,43 97,43 37,0 70,-15 96,-43 27,-28 40,-63 40,-104zm-379 -1c0,-32 6,-63 18,-91 12,-29 30,-55 53,-77 23,-22 49,-39 78,-51 30,-11 60,-17 93,-17 33,0 64,6 93,17 30,12 56,30 79,52 24,23 41,49 53,77 12,29 18,59 18,90 0,32 -6,63 -17,92 -12,28 -30,53 -53,75 -24,24 -51,41 -80,53 -30,12 -61,18 -93,18 -32,0 -63,-6 -92,-18 -30,-12 -56,-29 -79,-52 -23,-23 -41,-48 -53,-77 -12,-28 -18,-59 -18,-91zm177 -288l88 -126 105 0 -136 126 -57 0zm732 286c0,-46 -10,-81 -32,-107 -21,-25 -51,-38 -89,-38 -38,0 -68,13 -90,40 -22,26 -33,62 -33,109 0,47 11,83 32,108 21,26 51,38 89,38 37,0 66,-13 89,-41 23,-27 34,-64 34,-109zm-3 -499l101 0 0 721 -101 0 0 -57c-18,25 -39,44 -63,56 -24,13 -51,19 -82,19 -63,0 -112,-21 -148,-64 -35,-42 -53,-101 -53,-175 0,-70 18,-127 55,-170 36,-44 84,-65 143,-65 36,0 67,7 92,22 26,15 45,37 56,65l0 -352zm338 280l0 249c0,42 9,73 27,92 18,18 46,28 86,28 40,0 68,-10 86,-28 17,-19 26,-50 26,-92l0 -249 101 0 0 218c0,85 -17,146 -50,184 -34,38 -88,57 -162,57 -75,0 -130,-19 -164,-57 -34,-37 -51,-99 -51,-184l0 -218 101 0zm467 441l0 -721 101 0 0 721 -101 0zm592 -219c0,-41 -14,-76 -40,-104 -26,-29 -58,-43 -97,-43 -37,0 -70,14 -96,43 -27,28 -40,63 -40,104 0,41 13,76 40,104 26,28 59,43 96,43 38,0 70,-15 97,-43 26,-28 40,-63 40,-104zm-379 -1c0,-32 6,-63 18,-91 12,-29 30,-55 53,-77 22,-22 48,-39 78,-51 29,-11 60,-17 92,-17 34,0 65,6 94,17 30,12 56,30 79,52 23,23 41,49 53,77 12,29 18,59 18,90 0,32 -6,63 -18,92 -12,28 -29,53 -52,75 -24,24 -51,41 -80,53 -30,12 -61,18 -94,18 -31,0 -62,-6 -92,-18 -29,-12 -55,-29 -78,-52 -23,-23 -41,-48 -53,-77 -12,-28 -18,-59 -18,-91zm1061 220l0 -587 -141 0 43 -87 199 0 0 674 -101 0z"/>
  <path class="fil20" d="M4817 8881c-31,-27 -64,-47 -99,-60 -35,-14 -71,-20 -110,-20 -74,0 -135,23 -181,71 -47,48 -70,110 -70,186 0,73 23,134 68,182 45,47 103,71 172,71 40,0 78,-7 115,-21 36,-15 71,-36 105,-65l0 125c-30,22 -63,38 -98,48 -35,11 -73,16 -113,16 -53,0 -101,-9 -145,-26 -44,-17 -83,-42 -116,-75 -33,-32 -59,-71 -77,-115 -18,-44 -26,-91 -26,-141 0,-50 8,-97 26,-141 18,-44 44,-82 78,-115 34,-34 72,-59 116,-76 44,-18 91,-26 142,-26 40,0 78,6 114,17 36,12 71,30 106,53l-7 112zm476 296c0,-41 -13,-76 -40,-104 -26,-29 -58,-43 -96,-43 -38,0 -70,14 -97,43 -26,28 -39,63 -39,104 0,41 13,76 39,104 27,28 59,43 97,43 38,0 70,-15 96,-43 27,-28 40,-63 40,-104zm-379 -1c0,-32 6,-63 18,-91 12,-29 30,-55 53,-77 23,-22 49,-39 78,-51 30,-11 61,-17 93,-17 33,0 64,6 94,17 29,12 55,30 79,52 23,23 40,49 53,77 12,29 18,59 18,90 0,32 -6,63 -18,91 -12,29 -30,54 -53,76 -24,24 -51,41 -80,53 -30,12 -61,18 -93,18 -32,0 -63,-6 -92,-18 -30,-12 -56,-29 -79,-52 -23,-23 -41,-48 -53,-77 -12,-28 -18,-59 -18,-91zm693 220l-101 0 0 -441 95 0 0 72c20,-30 43,-53 69,-67 25,-14 55,-21 90,-21 35,0 63,7 86,21 22,15 40,37 51,66 24,-30 48,-52 75,-66 26,-14 56,-21 89,-21 29,0 55,5 76,16 22,11 39,26 51,47 6,9 10,21 12,34 3,13 4,32 4,57l0 36 0 267 -101 0 0 -226c0,-60 -6,-99 -19,-117 -12,-19 -34,-29 -67,-29 -39,0 -68,13 -84,38 -17,26 -26,70 -26,133l0 201 -102 0 0 -226c0,-55 -6,-93 -19,-114 -14,-21 -36,-32 -69,-32 -20,0 -38,5 -54,14 -17,9 -30,21 -39,37 -6,10 -11,23 -13,38 -3,15 -4,42 -4,82l0 201zm830 -222c0,46 12,82 34,110 23,27 53,40 91,40 38,0 67,-12 88,-38 21,-25 32,-61 32,-108 0,-47 -11,-83 -33,-109 -22,-27 -52,-40 -90,-40 -38,0 -68,13 -90,38 -21,26 -32,61 -32,107zm-97 430l0 -649 101 0 0 72c11,-28 30,-49 56,-65 26,-15 57,-22 93,-22 59,0 106,21 143,65 36,43 54,100 54,170 0,74 -18,132 -54,175 -35,43 -84,64 -147,64 -31,0 -58,-6 -82,-19 -24,-12 -46,-31 -63,-56l0 265 -101 0zm969 -208l-101 0 0 -57c-18,25 -39,44 -63,56 -24,13 -51,19 -82,19 -63,0 -112,-21 -148,-64 -36,-43 -53,-101 -53,-175 0,-70 18,-127 54,-170 37,-44 85,-65 144,-65 36,0 67,7 92,22 26,15 45,37 56,65l0 -72 101 0 0 441zm-98 -222c0,-46 -11,-81 -32,-107 -21,-25 -51,-38 -89,-38 -38,0 -68,13 -90,40 -22,26 -33,62 -33,109 0,47 11,83 32,108 21,26 51,38 89,38 37,0 66,-13 89,-41 23,-28 34,-64 34,-109zm338 -149c11,-29 25,-50 43,-64 18,-14 40,-21 67,-21 14,0 28,1 42,5 14,3 27,8 41,15l-37 85c-8,-6 -18,-10 -28,-13 -10,-3 -21,-5 -34,-5 -33,0 -57,14 -72,40 -14,27 -22,72 -22,136l0 193 -101 0 0 -442 101 0 0 71zm274 371l0 -353 -77 0 0 -88 77 0 0 -167 101 0 0 167 77 0 0 88 -77 0 0 353 -101 0zm690 -206l-353 0c3,41 15,74 37,97 22,23 51,35 88,35 32,0 60,-7 81,-21 22,-14 41,-36 57,-66l85 47c-25,45 -56,78 -92,99 -37,22 -80,33 -129,33 -71,0 -127,-22 -169,-65 -42,-43 -63,-100 -63,-172 0,-69 22,-126 65,-171 43,-44 99,-66 167,-66 71,0 126,20 166,61 40,40 60,97 60,170l0 19zm-105 -67c-4,-32 -16,-56 -36,-73 -21,-16 -48,-25 -83,-25 -33,0 -60,8 -80,25 -20,16 -34,40 -42,73l241 0zm214 273l0 -721 101 0 0 721 -101 0zm592 -219c0,-41 -13,-76 -40,-104 -26,-29 -58,-43 -96,-43 -38,0 -70,14 -97,43 -26,28 -40,63 -40,104 0,41 14,76 40,104 27,28 59,43 97,43 37,0 70,-15 96,-43 27,-28 40,-63 40,-104zm-379 -1c0,-32 6,-63 18,-91 12,-29 30,-55 53,-77 23,-22 49,-39 78,-51 30,-11 60,-17 93,-17 33,0 64,6 94,17 29,12 55,30 78,52 24,23 41,49 53,77 13,29 19,59 19,90 0,32 -6,63 -18,91 -12,29 -30,54 -53,76 -24,24 -51,41 -80,53 -30,12 -61,18 -93,18 -32,0 -63,-6 -92,-18 -30,-12 -56,-29 -79,-52 -23,-23 -41,-48 -53,-77 -12,-28 -18,-59 -18,-91zm1304 14l-352 0c2,41 15,74 37,97 22,23 51,35 88,35 32,0 59,-7 81,-21 22,-14 41,-36 57,-66l85 47c-25,45 -56,78 -92,99 -37,22 -80,33 -129,33 -71,0 -127,-22 -169,-65 -42,-43 -63,-100 -63,-172 0,-69 22,-126 65,-171 43,-44 99,-66 167,-66 71,0 126,20 166,61 40,40 59,97 59,170l0 19zm-104 -67c-4,-32 -16,-56 -37,-73 -20,-16 -47,-25 -82,-25 -33,0 -60,8 -80,25 -20,16 -34,40 -43,73l242 0zm209 273l0 -441 95 0 0 72c20,-30 44,-52 71,-66 28,-14 61,-21 100,-21 33,0 61,5 84,15 23,11 41,26 54,47 8,12 13,26 17,42 3,16 5,44 5,85l0 267 -102 0 0 -226c0,-58 -7,-97 -21,-116 -14,-19 -39,-29 -75,-29 -24,0 -45,5 -63,13 -19,9 -33,21 -44,37 -7,11 -12,24 -15,41 -3,16 -5,43 -5,79l0 201 -101 0zm852 0l0 -721 101 0 0 721 -101 0zm661 0l-101 0 0 -57c-18,25 -39,44 -63,56 -24,13 -52,19 -83,19 -62,0 -111,-21 -147,-64 -36,-43 -54,-101 -54,-175 0,-70 18,-127 55,-170 37,-44 84,-65 143,-65 36,0 67,7 93,22 25,15 44,37 56,65l0 -72 101 0 0 441zm-98 -222c0,-46 -11,-81 -32,-107 -22,-25 -51,-38 -89,-38 -39,0 -69,13 -90,40 -22,26 -33,62 -33,109 0,47 10,83 31,108 21,26 51,38 90,38 36,0 66,-13 88,-41 23,-28 35,-64 35,-109zm186 142l84 -46c6,22 18,39 35,51 16,11 38,17 64,17 23,0 40,-5 53,-16 13,-10 20,-24 20,-42 0,-24 -23,-45 -69,-62 -16,-5 -28,-10 -36,-14 -47,-19 -80,-39 -99,-59 -19,-20 -28,-45 -28,-74 0,-39 15,-71 46,-96 31,-24 72,-36 123,-36 34,0 63,6 87,19 25,12 43,30 54,53l-72 50c-5,-14 -14,-25 -28,-34 -13,-8 -28,-12 -45,-12 -19,0 -35,5 -46,14 -12,9 -18,21 -18,36 0,23 26,44 78,63 17,6 29,11 38,14 41,17 70,35 87,55 18,20 27,46 27,76 0,44 -16,79 -48,104 -32,24 -76,37 -132,37 -43,0 -79,-8 -108,-24 -28,-16 -51,-41 -67,-74zm845 -291c11,-29 25,-50 43,-64 18,-14 40,-21 66,-21 15,0 29,1 42,5 14,3 28,8 41,15l-36 85c-9,-6 -18,-10 -28,-13 -10,-3 -22,-5 -34,-5 -34,0 -58,14 -72,40 -15,27 -22,72 -22,136l0 193 -101 0 0 -442 101 0 0 71zm674 165l-352 0c2,41 15,74 37,97 22,23 51,35 88,35 32,0 59,-7 81,-21 22,-14 41,-36 57,-66l85 47c-25,45 -56,78 -92,99 -37,22 -80,33 -129,33 -71,0 -127,-22 -169,-65 -42,-43 -63,-100 -63,-172 0,-69 22,-126 65,-171 43,-44 99,-66 167,-66 71,0 126,20 166,61 40,40 59,97 59,170l0 19zm-104 -67c-4,-32 -16,-56 -37,-73 -20,-16 -47,-25 -82,-25 -34,0 -60,8 -80,25 -20,16 -34,40 -43,73l242 0zm526 51c0,-46 -10,-81 -31,-107 -22,-25 -51,-38 -90,-38 -38,0 -68,13 -90,40 -21,26 -32,62 -32,109 0,47 10,83 31,108 21,26 51,38 90,38 36,0 66,-13 88,-41 23,-27 34,-64 34,-109zm-2 -499l101 0 0 721 -101 0 0 -57c-18,25 -39,44 -63,56 -25,13 -52,19 -83,19 -62,0 -112,-21 -147,-64 -36,-43 -54,-101 -54,-175 0,-70 18,-127 55,-170 36,-44 84,-65 143,-65 36,0 67,7 93,22 25,15 44,37 56,65l0 -352zm664 515l-352 0c3,41 15,74 37,97 22,23 51,35 88,35 32,0 59,-7 81,-21 22,-14 41,-36 57,-66l85 47c-25,45 -56,78 -92,99 -37,22 -80,33 -129,33 -71,0 -127,-22 -169,-65 -42,-43 -63,-100 -63,-172 0,-69 22,-126 65,-171 43,-44 99,-66 167,-66 71,0 126,20 166,61 40,40 59,97 59,170l0 19zm-104 -67c-4,-32 -16,-56 -37,-73 -20,-16 -47,-25 -82,-25 -33,0 -60,8 -80,25 -20,16 -34,40 -42,73l241 0zm159 193l84 -46c6,22 17,39 34,51 17,11 38,17 65,17 22,0 40,-5 53,-16 13,-10 19,-24 19,-42 0,-24 -23,-45 -69,-62 -15,-5 -27,-10 -35,-14 -47,-19 -80,-39 -99,-59 -19,-20 -28,-45 -28,-74 0,-39 15,-71 46,-96 31,-24 72,-36 122,-36 35,0 64,6 88,19 24,12 42,30 53,53l-71 50c-6,-14 -15,-25 -28,-34 -13,-8 -28,-12 -46,-12 -19,0 -34,5 -46,14 -11,9 -17,21 -17,36 0,23 26,44 78,63 16,6 29,11 38,14 40,17 69,35 87,55 17,20 26,46 26,76 0,44 -16,79 -48,104 -32,24 -76,37 -132,37 -43,0 -79,-8 -107,-24 -29,-16 -51,-41 -67,-74z"/>
  <path class="fil20" d="M7866 10457l84 -46c6,22 17,39 34,50 17,12 39,18 65,18 22,0 40,-5 53,-16 13,-10 19,-24 19,-42 0,-24 -23,-45 -68,-62 -16,-5 -28,-10 -36,-14 -47,-19 -80,-39 -99,-59 -19,-20 -28,-45 -28,-74 0,-39 15,-71 46,-96 31,-24 72,-36 123,-36 34,0 63,6 87,19 24,12 42,30 53,53l-71 50c-5,-14 -15,-25 -28,-34 -13,-8 -28,-12 -46,-12 -19,0 -34,5 -46,14 -11,9 -17,21 -17,36 0,23 26,44 78,63 16,6 29,11 38,14 40,17 70,35 87,55 18,20 26,46 26,76 0,44 -16,79 -48,104 -32,24 -76,37 -132,37 -43,0 -79,-8 -107,-24 -29,-16 -51,-41 -67,-74zm803 -139c0,-41 -13,-76 -40,-104 -26,-29 -58,-43 -96,-43 -38,0 -70,14 -97,43 -26,28 -40,63 -40,104 0,41 14,76 40,104 27,28 59,43 97,43 37,0 70,-15 96,-43 27,-28 40,-63 40,-104zm-379 -1c0,-32 6,-63 18,-91 12,-29 30,-55 53,-77 23,-22 49,-39 78,-51 30,-11 60,-17 93,-17 33,0 64,6 93,17 30,12 56,29 79,52 24,23 41,49 53,77 12,29 18,59 18,90 0,32 -6,63 -17,91 -12,29 -30,54 -53,76 -24,24 -51,41 -80,53 -30,12 -61,18 -93,18 -32,0 -63,-6 -92,-18 -30,-12 -56,-29 -79,-52 -23,-23 -41,-48 -53,-77 -12,-28 -18,-59 -18,-91zm922 -95c-16,-17 -34,-30 -55,-39 -20,-9 -42,-14 -66,-14 -42,0 -75,14 -99,40 -25,27 -38,62 -38,106 0,46 13,82 38,108 25,27 59,40 103,40 25,0 47,-5 66,-14 19,-9 36,-23 51,-42l0 117c-19,10 -39,18 -60,23 -21,5 -44,8 -68,8 -69,0 -125,-22 -169,-66 -44,-44 -65,-101 -65,-171 0,-71 22,-128 67,-172 45,-44 104,-65 177,-65 23,0 44,2 64,6 19,5 37,12 54,21l0 114zm94 -317c0,-17 6,-31 19,-44 12,-12 27,-18 45,-18 18,0 33,6 45,17 12,12 18,27 18,45 0,19 -6,34 -18,46 -13,12 -28,18 -45,18 -18,0 -33,-6 -45,-19 -13,-12 -19,-27 -19,-45zm13 632l0 -441 101 0 0 441 -101 0zm661 0l-101 0 0 -57c-18,25 -39,44 -63,56 -25,13 -52,19 -83,19 -62,0 -112,-21 -147,-64 -36,-43 -54,-101 -54,-175 0,-70 18,-127 55,-170 36,-44 84,-65 143,-65 36,0 67,7 93,22 25,15 44,37 56,65l0 -72 101 0 0 441zm-99 -222c0,-46 -10,-81 -31,-107 -22,-25 -51,-38 -90,-38 -38,0 -68,13 -90,40 -21,26 -32,62 -32,109 0,47 10,83 31,108 21,26 51,38 90,38 36,0 65,-13 88,-41 23,-28 34,-64 34,-109zm242 222l0 -721 101 0 0 721 -101 0zm670 -206l-352 0c2,41 14,74 37,97 21,23 51,35 88,35 32,0 59,-7 81,-21 22,-14 40,-36 57,-66l84 47c-24,45 -55,78 -92,99 -36,22 -79,33 -128,33 -71,0 -127,-22 -169,-65 -42,-43 -63,-100 -63,-172 0,-69 22,-126 65,-171 43,-44 99,-66 167,-66 71,0 126,20 166,61 39,40 59,97 59,170l0 19zm-105 -67c-4,-32 -16,-56 -36,-73 -20,-16 -48,-25 -83,-25 -33,0 -59,8 -80,25 -20,16 -34,40 -42,73l241 0zm160 193l83 -46c7,22 18,39 35,50 17,12 38,18 64,18 23,0 41,-5 54,-16 13,-10 19,-24 19,-42 0,-24 -23,-45 -69,-62 -15,-5 -27,-10 -36,-14 -47,-19 -80,-39 -98,-59 -19,-20 -29,-45 -29,-74 0,-39 16,-71 47,-96 31,-24 71,-36 122,-36 34,0 64,6 88,19 24,12 42,30 53,53l-72 50c-5,-14 -14,-25 -27,-34 -13,-8 -29,-12 -46,-12 -19,0 -35,5 -46,14 -12,9 -18,21 -18,36 0,23 26,44 78,63 17,6 30,11 38,14 41,17 70,35 88,55 17,20 26,46 26,76 0,44 -16,79 -48,104 -32,24 -76,37 -132,37 -43,0 -79,-8 -107,-24 -29,-16 -51,-41 -67,-74z"/>
  <g id="_742959711696">
   <path class="fil15" d="M8179 12534l-171 0c-61,0 -73,25 -73,87l0 151 244 0 -24 265 -220 0 0 792 -316 0 0 -789 -165 0 0 -268 165 0 0 -211c0,-198 106,-302 341,-302l219 0 0 275zm471 -592l-1668 0c-147,0 -267,120 -267,268l0 1668c0,148 120,267 267,267l1668 0c148,0 268,-119 268,-267l0 -1668c0,-148 -120,-268 -268,-268z"/>
   <path class="fil15" d="M11885 12782c19,423 -296,894 -854,894 -170,0 -328,-49 -461,-135 160,19 319,-25 445,-124 -131,-2 -242,-89 -281,-209 48,9 94,7 136,-5 -144,-29 -244,-159 -241,-298 41,22 87,36 136,37 -134,-89 -171,-266 -93,-401 148,182 370,301 620,314 -44,-188 99,-369 293,-369 86,0 164,36 219,95 68,-14 133,-39 191,-73 -23,70 -70,129 -132,166 60,-7 118,-23 172,-47 -40,60 -91,113 -150,155l0 0zm214 -840l-1668 0c-147,0 -267,120 -267,268l0 1668c0,148 120,267 267,267l1668 0c148,0 268,-119 268,-267l0 -1668c0,-148 -120,-268 -268,-268z"/>
  </g>
 </g>
</svg>
