<?xml version="1.0" encoding="UTF-8"?>
<!DOCTYPE svg PUBLIC "-//W3C//DTD SVG 1.1//EN" "http://www.w3.org/Graphics/SVG/1.1/DTD/svg11.dtd">
<!-- Creator: CorelDRAW X7 -->
<svg xmlns="http://www.w3.org/2000/svg" xml:space="preserve" width="190.5mm" height="338.667mm" version="1.1" style="shape-rendering:geometricPrecision; text-rendering:geometricPrecision; image-rendering:optimizeQuality; fill-rule:evenodd; clip-rule:evenodd"
viewBox="0 0 19050 33867"
 xmlns:xlink="http://www.w3.org/1999/xlink">
 <defs>
  <style type="text/css">
   <![CDATA[
    .fil0 {fill:#75D1B0}
    .fil3 {fill:#1B7271;fill-rule:nonzero}
    .fil2 {fill:#541124;fill-rule:nonzero}
    .fil8 {fill:#54BDBE;fill-rule:nonzero}
    .fil11 {fill:#6B604E;fill-rule:nonzero}
    .fil4 {fill:#6EBA6D;fill-rule:nonzero}
    .fil9 {fill:#99C55A;fill-rule:nonzero}
    .fil10 {fill:#B3B2B2;fill-rule:nonzero}
    .fil1 {fill:#BEC2B0;fill-rule:nonzero}
    .fil5 {fill:#C6DD9F;fill-rule:nonzero}
    .fil7 {fill:#D3632B;fill-rule:nonzero}
    .fil12 {fill:#F3955E;fill-rule:nonzero}
    .fil13 {fill:#F7F4E6;fill-rule:nonzero}
    .fil6 {fill:#FFFDEE;fill-rule:nonzero}
   ]]>
  </style>
 </defs>
 <g id="Capa_x0020_1">
  <metadata id="CorelCorpID_0Corel-Layer"/>
  <rect class="fil0" width="19050" height="33867"/>
  <g id="_215610628320">
   <path class="fil1" d="M7090 12321c-184,0 -333,-149 -333,-333l0 -6154c0,-184 149,-334 333,-334 185,0 334,150 334,334l0 6154c0,184 -149,333 -334,333z"/>
   <path class="fil2" d="M7090 12355c-202,0 -366,-165 -366,-367l0 -6154c0,-202 164,-367 366,-367 203,0 367,165 367,367l0 6154c0,202 -164,367 -367,367zm0 -6821c-165,0 -300,134 -300,300l0 6154c0,165 135,300 300,300 166,0 300,-135 300,-300l0 -6154c0,-166 -134,-300 -300,-300z"/>
   <path class="fil3" d="M10355 5963c0,901 -1454,1632 -3248,1632 -1793,0 -3248,-731 -3248,-1632 0,-902 1455,-1633 3248,-1633 1794,0 3248,731 3248,1633z"/>
   <path class="fil2" d="M7107 7629c-872,0 -1693,-171 -2311,-482 -625,-314 -970,-735 -970,-1184 0,-450 345,-870 970,-1184 618,-311 1439,-482 2311,-482 873,0 1694,171 2312,482 625,314 970,734 970,1184 0,449 -345,870 -970,1184 -618,311 -1439,482 -2312,482zm0 -3265c-1772,0 -3214,717 -3214,1599 0,882 1442,1599 3214,1599 1773,0 3215,-717 3215,-1599 0,-882 -1442,-1599 -3215,-1599z"/>
   <path class="fil3" d="M10355 9039c0,902 -1454,1633 -3248,1633 -1793,0 -3248,-731 -3248,-1633 0,-902 1455,-1633 3248,-1633 1794,0 3248,731 3248,1633z"/>
   <path class="fil2" d="M7107 10705c-872,0 -1693,-171 -2311,-482 -625,-314 -970,-735 -970,-1184 0,-449 345,-870 970,-1184 618,-311 1439,-482 2311,-482 873,0 1694,171 2312,482 625,314 970,735 970,1184 0,449 -345,870 -970,1184 -618,311 -1439,482 -2312,482zm0 -3265c-1772,0 -3214,717 -3214,1599 0,882 1442,1599 3214,1599 1773,0 3215,-717 3215,-1599 0,-882 -1442,-1599 -3215,-1599z"/>
   <path class="fil4" d="M4511 5241c-132,0 -239,107 -239,240l0 2351c0,132 107,239 239,239 133,0 240,-107 240,-239l0 -2351c0,-133 -107,-240 -240,-240z"/>
   <path class="fil2" d="M4511 8105c-150,0 -273,-123 -273,-273l0 -2351c0,-151 123,-273 273,-273 151,0 274,122 274,273l0 2351c0,150 -123,273 -274,273zm0 -2831c-113,0 -206,93 -206,207l0 2351c0,114 93,206 206,206 114,0 207,-92 207,-206l0 -2351c0,-114 -93,-207 -207,-207z"/>
   <path class="fil5" d="M4905 5799c0,94 -76,171 -171,171 -94,0 -171,-77 -171,-171 0,-95 77,-172 171,-172 95,0 171,77 171,172z"/>
   <path class="fil2" d="M4734 6003c-113,0 -204,-91 -204,-204 0,-113 91,-205 204,-205 113,0 205,92 205,205 0,113 -92,204 -205,204zm0 -342c-76,0 -138,62 -138,138 0,76 62,138 138,138 76,0 138,-62 138,-138 0,-76 -62,-138 -138,-138z"/>
   <path class="fil5" d="M4443 6399c0,95 -77,171 -171,171 -95,0 -172,-76 -172,-171 0,-95 77,-171 172,-171 94,0 171,76 171,171z"/>
   <path class="fil2" d="M4272 6604c-113,0 -205,-92 -205,-205 0,-113 92,-205 205,-205 113,0 204,92 204,205 0,113 -91,205 -204,205zm0 -343c-76,0 -138,62 -138,138 0,76 62,138 138,138 76,0 138,-62 138,-138 0,-76 -62,-138 -138,-138z"/>
   <path class="fil5" d="M4905 6999c0,95 -76,171 -171,171 -94,0 -171,-76 -171,-171 0,-94 77,-171 171,-171 95,0 171,77 171,171z"/>
   <path class="fil2" d="M4734 7204c-113,0 -204,-92 -204,-205 0,-113 91,-205 204,-205 113,0 205,92 205,205 0,113 -92,205 -205,205zm0 -343c-76,0 -138,62 -138,138 0,76 62,138 138,138 76,0 138,-62 138,-138 0,-76 -62,-138 -138,-138z"/>
   <path class="fil5" d="M4443 7599c0,95 -77,172 -171,172 -95,0 -172,-77 -172,-172 0,-94 77,-171 172,-171 94,0 171,77 171,171z"/>
   <path class="fil2" d="M4272 7804c-113,0 -205,-92 -205,-205 0,-113 92,-204 205,-204 113,0 204,91 204,204 0,113 -91,205 -204,205zm0 -343c-76,0 -138,62 -138,138 0,76 62,138 138,138 76,0 138,-62 138,-138 0,-76 -62,-138 -138,-138z"/>
   <path class="fil4" d="M5522 5756c-132,0 -240,107 -240,240l0 2350c0,133 108,240 240,240 132,0 240,-107 240,-240l0 -2350c0,-133 -108,-240 -240,-240z"/>
   <path class="fil2" d="M5522 8620c-151,0 -273,-123 -273,-274l0 -2350c0,-151 122,-273 273,-273 151,0 273,122 273,273l0 2350c0,151 -122,274 -273,274zm0 -2831c-114,0 -206,93 -206,207l0 2350c0,114 92,207 206,207 114,0 206,-93 206,-207l0 -2350c0,-114 -92,-207 -206,-207z"/>
   <path class="fil5" d="M5916 6313c0,95 -77,172 -171,172 -95,0 -172,-77 -172,-172 0,-94 77,-171 172,-171 94,0 171,77 171,171z"/>
   <path class="fil2" d="M5745 6518c-113,0 -205,-92 -205,-205 0,-112 92,-204 205,-204 113,0 204,92 204,204 0,113 -91,205 -204,205zm0 -342c-76,0 -138,61 -138,137 0,77 62,138 138,138 76,0 138,-61 138,-138 0,-76 -62,-137 -138,-137z"/>
   <path class="fil5" d="M5454 6914c0,94 -77,171 -172,171 -94,0 -171,-77 -171,-171 0,-95 77,-172 171,-172 95,0 172,77 172,172z"/>
   <path class="fil2" d="M5282 7118c-113,0 -204,-92 -204,-204 0,-113 91,-205 204,-205 113,0 205,92 205,205 0,112 -92,204 -205,204zm0 -342c-76,0 -138,62 -138,138 0,76 62,138 138,138 76,0 138,-62 138,-138 0,-76 -62,-138 -138,-138z"/>
   <path class="fil5" d="M5916 7514c0,94 -77,171 -171,171 -95,0 -172,-77 -172,-171 0,-95 77,-171 172,-171 94,0 171,76 171,171z"/>
   <path class="fil2" d="M5745 7718c-113,0 -205,-91 -205,-204 0,-113 92,-205 205,-205 113,0 204,92 204,205 0,113 -91,204 -204,204zm0 -342c-76,0 -138,62 -138,138 0,76 62,138 138,138 76,0 138,-62 138,-138 0,-76 -62,-138 -138,-138z"/>
   <path class="fil5" d="M5454 8114c0,95 -77,171 -172,171 -94,0 -171,-76 -171,-171 0,-95 77,-171 171,-171 95,0 172,76 172,171z"/>
   <path class="fil2" d="M5282 8319c-113,0 -204,-92 -204,-205 0,-113 91,-205 204,-205 113,0 205,92 205,205 0,113 -92,205 -205,205zm0 -343c-76,0 -138,62 -138,138 0,76 62,138 138,138 76,0 138,-62 138,-138 0,-76 -62,-138 -138,-138z"/>
   <path class="fil4" d="M6614 4984c-133,0 -240,108 -240,240l0 2351c0,132 107,240 240,240 132,0 240,-108 240,-240l0 -2351c0,-132 -108,-240 -240,-240z"/>
   <path class="fil2" d="M6614 7848c-151,0 -273,-122 -273,-273l0 -2351c0,-150 122,-273 273,-273 151,0 273,123 273,273l0 2351c0,151 -122,273 -273,273zm0 -2830c-114,0 -207,92 -207,206l0 2351c0,114 93,206 207,206 114,0 206,-92 206,-206l0 -2351c0,-114 -92,-206 -206,-206z"/>
   <path class="fil5" d="M7008 5542c0,95 -77,171 -171,171 -95,0 -172,-76 -172,-171 0,-95 77,-171 172,-171 94,0 171,76 171,171z"/>
   <path class="fil2" d="M6837 5747c-113,0 -205,-92 -205,-205 0,-113 92,-205 205,-205 112,0 204,92 204,205 0,113 -92,205 -204,205zm0 -343c-76,0 -138,62 -138,138 0,76 62,138 138,138 76,0 138,-62 138,-138 0,-76 -62,-138 -138,-138z"/>
   <path class="fil5" d="M6545 6142c0,95 -76,171 -171,171 -94,0 -171,-76 -171,-171 0,-94 77,-171 171,-171 95,0 171,77 171,171z"/>
   <path class="fil2" d="M6374 6347c-113,0 -204,-92 -204,-205 0,-113 91,-204 204,-204 113,0 205,91 205,204 0,113 -92,205 -205,205zm0 -343c-76,0 -138,62 -138,138 0,76 62,138 138,138 76,0 138,-62 138,-138 0,-76 -62,-138 -138,-138z"/>
   <path class="fil5" d="M7008 6742c0,95 -77,172 -171,172 -95,0 -172,-77 -172,-172 0,-94 77,-171 172,-171 94,0 171,77 171,171z"/>
   <path class="fil2" d="M6837 6947c-113,0 -205,-92 -205,-205 0,-112 92,-204 205,-204 112,0 204,92 204,204 0,113 -92,205 -204,205zm0 -343c-76,0 -138,62 -138,138 0,76 62,138 138,138 76,0 138,-62 138,-138 0,-76 -62,-138 -138,-138z"/>
   <path class="fil5" d="M6545 7343c0,94 -76,171 -171,171 -94,0 -171,-77 -171,-171 0,-95 77,-172 171,-172 95,0 171,77 171,172z"/>
   <path class="fil2" d="M6374 7547c-113,0 -204,-92 -204,-204 0,-113 91,-205 204,-205 113,0 205,92 205,205 0,112 -92,204 -205,204zm0 -342c-76,0 -138,61 -138,138 0,76 62,137 138,137 76,0 138,-61 138,-137 0,-77 -62,-138 -138,-138z"/>
   <path class="fil4" d="M7693 5585c-132,0 -240,107 -240,239l0 2351c0,133 108,240 240,240 132,0 240,-107 240,-240l0 -2351c0,-132 -108,-239 -240,-239z"/>
   <path class="fil2" d="M7693 8448c-151,0 -273,-122 -273,-273l0 -2351c0,-150 122,-273 273,-273 151,0 273,123 273,273l0 2351c0,151 -122,273 -273,273zm0 -2830c-114,0 -206,93 -206,206l0 2351c0,114 92,207 206,207 114,0 206,-93 206,-207l0 -2351c0,-113 -92,-206 -206,-206z"/>
   <path class="fil5" d="M8087 6142c0,95 -77,171 -171,171 -95,0 -172,-76 -172,-171 0,-94 77,-171 172,-171 94,0 171,77 171,171z"/>
   <path class="fil2" d="M7916 6347c-113,0 -205,-92 -205,-205 0,-113 92,-204 205,-204 112,0 204,91 204,204 0,113 -92,205 -204,205zm0 -343c-76,0 -138,62 -138,138 0,76 62,138 138,138 76,0 138,-62 138,-138 0,-76 -62,-138 -138,-138z"/>
   <path class="fil5" d="M7624 6742c0,95 -76,172 -171,172 -94,0 -171,-77 -171,-172 0,-94 77,-171 171,-171 95,0 171,77 171,171z"/>
   <path class="fil2" d="M7453 6947c-113,0 -204,-92 -204,-205 0,-112 91,-204 204,-204 113,0 205,92 205,204 0,113 -92,205 -205,205zm0 -343c-76,0 -138,62 -138,138 0,76 62,138 138,138 76,0 138,-62 138,-138 0,-76 -62,-138 -138,-138z"/>
   <path class="fil5" d="M8087 7343c0,94 -77,171 -171,171 -95,0 -172,-77 -172,-171 0,-95 77,-172 172,-172 94,0 171,77 171,172z"/>
   <path class="fil2" d="M7916 7547c-113,0 -205,-92 -205,-204 0,-113 92,-205 205,-205 112,0 204,92 204,205 0,112 -92,204 -204,204zm0 -342c-76,0 -138,61 -138,138 0,76 62,137 138,137 76,0 138,-61 138,-137 0,-77 -62,-138 -138,-138z"/>
   <path class="fil5" d="M7624 7943c0,94 -76,171 -171,171 -94,0 -171,-77 -171,-171 0,-95 77,-172 171,-172 95,0 171,77 171,172z"/>
   <path class="fil2" d="M7453 8147c-113,0 -204,-91 -204,-204 0,-113 91,-205 204,-205 113,0 205,92 205,205 0,113 -92,204 -205,204zm0 -342c-76,0 -138,62 -138,138 0,76 62,138 138,138 76,0 138,-62 138,-138 0,-76 -62,-138 -138,-138z"/>
   <path class="fil4" d="M8631 4555c-133,0 -240,108 -240,240l0 2351c0,132 107,240 240,240 132,0 239,-108 239,-240l0 -2351c0,-132 -107,-240 -239,-240z"/>
   <path class="fil2" d="M8631 7419c-151,0 -273,-122 -273,-273l0 -2351c0,-150 122,-273 273,-273 150,0 273,123 273,273l0 2351c0,151 -123,273 -273,273zm0 -2830c-114,0 -207,92 -207,206l0 2351c0,114 93,207 207,207 114,0 206,-93 206,-207l0 -2351c0,-114 -92,-206 -206,-206z"/>
   <path class="fil5" d="M9025 5113c0,95 -77,171 -172,171 -94,0 -171,-76 -171,-171 0,-94 77,-171 171,-171 95,0 172,77 172,171z"/>
   <path class="fil2" d="M8853 5318c-112,0 -204,-92 -204,-205 0,-113 92,-205 204,-205 113,0 205,92 205,205 0,113 -92,205 -205,205zm0 -343c-76,0 -138,62 -138,138 0,76 62,138 138,138 76,0 138,-62 138,-138 0,-76 -62,-138 -138,-138z"/>
   <path class="fil5" d="M8562 5713c0,95 -76,172 -171,172 -95,0 -171,-77 -171,-172 0,-94 76,-171 171,-171 95,0 171,77 171,171z"/>
   <path class="fil2" d="M8391 5918c-113,0 -205,-92 -205,-205 0,-113 92,-204 205,-204 113,0 205,91 205,204 0,113 -92,205 -205,205zm0 -343c-76,0 -138,62 -138,138 0,76 62,138 138,138 76,0 138,-62 138,-138 0,-76 -62,-138 -138,-138z"/>
   <path class="fil5" d="M9025 6313c0,95 -77,172 -172,172 -94,0 -171,-77 -171,-172 0,-94 77,-171 171,-171 95,0 172,77 172,171z"/>
   <path class="fil2" d="M8853 6518c-112,0 -204,-92 -204,-205 0,-112 92,-204 204,-204 113,0 205,92 205,204 0,113 -92,205 -205,205zm0 -342c-76,0 -138,61 -138,137 0,77 62,138 138,138 76,0 138,-61 138,-138 0,-76 -62,-137 -138,-137z"/>
   <path class="fil5" d="M8562 6914c0,94 -76,171 -171,171 -95,0 -171,-77 -171,-171 0,-95 76,-172 171,-172 95,0 171,77 171,172z"/>
   <path class="fil2" d="M8391 7118c-113,0 -205,-92 -205,-204 0,-113 92,-205 205,-205 113,0 205,92 205,205 0,112 -92,204 -205,204zm0 -342c-76,0 -138,62 -138,138 0,76 62,138 138,138 76,0 138,-62 138,-138 0,-76 -62,-138 -138,-138z"/>
   <path class="fil4" d="M9607 5327c-132,0 -240,108 -240,240l0 2351c0,132 108,240 240,240 132,0 240,-108 240,-240l0 -2351c0,-132 -108,-240 -240,-240z"/>
   <path class="fil2" d="M9607 8191c-151,0 -273,-123 -273,-273l0 -2351c0,-151 122,-273 273,-273 151,0 273,122 273,273l0 2351c0,150 -122,273 -273,273zm0 -2830c-114,0 -206,92 -206,206l0 2351c0,114 92,206 206,206 114,0 206,-92 206,-206l0 -2351c0,-114 -92,-206 -206,-206z"/>
   <path class="fil5" d="M10001 5885c0,94 -77,171 -171,171 -95,0 -172,-77 -172,-171 0,-95 77,-171 172,-171 94,0 171,76 171,171z"/>
   <path class="fil2" d="M9830 6089c-113,0 -205,-91 -205,-204 0,-113 92,-205 205,-205 112,0 204,92 204,205 0,113 -92,204 -204,204zm0 -342c-76,0 -138,62 -138,138 0,76 62,138 138,138 76,0 138,-62 138,-138 0,-76 -62,-138 -138,-138z"/>
   <path class="fil5" d="M9538 6485c0,95 -76,171 -171,171 -94,0 -171,-76 -171,-171 0,-95 77,-171 171,-171 95,0 171,76 171,171z"/>
   <path class="fil2" d="M9367 6690c-113,0 -204,-92 -204,-205 0,-113 91,-205 204,-205 113,0 205,92 205,205 0,113 -92,205 -205,205zm0 -343c-76,0 -138,62 -138,138 0,76 62,138 138,138 76,0 138,-62 138,-138 0,-76 -62,-138 -138,-138z"/>
   <path class="fil5" d="M10001 7085c0,95 -77,171 -171,171 -95,0 -172,-76 -172,-171 0,-94 77,-171 172,-171 94,0 171,77 171,171z"/>
   <path class="fil2" d="M9830 7290c-113,0 -205,-92 -205,-205 0,-113 92,-204 205,-204 112,0 204,91 204,204 0,113 -92,205 -204,205zm0 -343c-76,0 -138,62 -138,138 0,76 62,138 138,138 76,0 138,-62 138,-138 0,-76 -62,-138 -138,-138z"/>
   <path class="fil5" d="M9538 7685c0,95 -76,172 -171,172 -94,0 -171,-77 -171,-172 0,-94 77,-171 171,-171 95,0 171,77 171,171z"/>
   <path class="fil2" d="M9367 7890c-113,0 -204,-92 -204,-205 0,-112 91,-204 204,-204 113,0 205,92 205,204 0,113 -92,205 -205,205zm0 -343c-76,0 -138,62 -138,138 0,76 62,138 138,138 76,0 138,-62 138,-138 0,-76 -62,-138 -138,-138z"/>
   <path class="fil4" d="M4511 8233c-132,0 -239,107 -239,239l0 2351c0,133 107,240 239,240 133,0 240,-107 240,-240l0 -2351c0,-132 -107,-239 -240,-239z"/>
   <path class="fil2" d="M4511 11096c-150,0 -273,-122 -273,-273l0 -2351c0,-150 123,-273 273,-273 151,0 274,123 274,273l0 2351c0,151 -123,273 -274,273zm0 -2830c-113,0 -206,92 -206,206l0 2351c0,114 93,207 206,207 114,0 207,-93 207,-207l0 -2351c0,-114 -93,-206 -207,-206z"/>
   <path class="fil5" d="M4905 8790c0,95 -76,171 -171,171 -94,0 -171,-76 -171,-171 0,-94 77,-171 171,-171 95,0 171,77 171,171z"/>
   <path class="fil2" d="M4734 8995c-113,0 -204,-92 -204,-205 0,-113 91,-205 204,-205 113,0 205,92 205,205 0,113 -92,205 -205,205zm0 -343c-76,0 -138,62 -138,138 0,76 62,138 138,138 76,0 138,-62 138,-138 0,-76 -62,-138 -138,-138z"/>
   <path class="fil5" d="M4443 9390c0,95 -77,172 -171,172 -95,0 -172,-77 -172,-172 0,-94 77,-171 172,-171 94,0 171,77 171,171z"/>
   <path class="fil2" d="M4272 9595c-113,0 -205,-92 -205,-205 0,-113 92,-204 205,-204 113,0 204,91 204,204 0,113 -91,205 -204,205zm0 -343c-76,0 -138,62 -138,138 0,76 62,138 138,138 76,0 138,-62 138,-138 0,-76 -62,-138 -138,-138z"/>
   <path class="fil5" d="M4905 9990c0,95 -76,172 -171,172 -94,0 -171,-77 -171,-172 0,-94 77,-171 171,-171 95,0 171,77 171,171z"/>
   <path class="fil2" d="M4734 10195c-113,0 -204,-92 -204,-205 0,-112 91,-204 204,-204 113,0 205,92 205,204 0,113 -92,205 -205,205zm0 -342c-76,0 -138,61 -138,137 0,77 62,138 138,138 76,0 138,-61 138,-138 0,-76 -62,-137 -138,-137z"/>
   <path class="fil5" d="M4443 10591c0,94 -77,171 -171,171 -95,0 -172,-77 -172,-171 0,-95 77,-172 172,-172 94,0 171,77 171,172z"/>
   <path class="fil2" d="M4272 10795c-113,0 -205,-91 -205,-204 0,-113 92,-205 205,-205 113,0 204,92 204,205 0,113 -91,204 -204,204zm0 -342c-76,0 -138,62 -138,138 0,76 62,138 138,138 76,0 138,-62 138,-138 0,-76 -62,-138 -138,-138z"/>
   <path class="fil4" d="M5522 8903c-132,0 -240,107 -240,240l0 2351c0,132 108,239 240,239 132,0 240,-107 240,-239l0 -2351c0,-133 -108,-240 -240,-240z"/>
   <path class="fil2" d="M5522 11767c-151,0 -273,-123 -273,-273l0 -2351c0,-151 122,-273 273,-273 151,0 273,122 273,273l0 2351c0,150 -122,273 -273,273zm0 -2831c-114,0 -206,93 -206,207l0 2351c0,113 92,206 206,206 114,0 206,-93 206,-206l0 -2351c0,-114 -92,-207 -206,-207z"/>
   <path class="fil5" d="M5916 9461c0,94 -77,171 -171,171 -95,0 -172,-77 -172,-171 0,-95 77,-172 172,-172 94,0 171,77 171,172z"/>
   <path class="fil2" d="M5745 9665c-113,0 -205,-92 -205,-204 0,-113 92,-205 205,-205 113,0 204,92 204,205 0,112 -91,204 -204,204zm0 -342c-76,0 -138,62 -138,138 0,76 62,138 138,138 76,0 138,-62 138,-138 0,-76 -62,-138 -138,-138z"/>
   <path class="fil5" d="M5454 10061c0,94 -77,171 -172,171 -94,0 -171,-77 -171,-171 0,-95 77,-171 171,-171 95,0 172,76 172,171z"/>
   <path class="fil2" d="M5282 10266c-113,0 -204,-92 -204,-205 0,-113 91,-205 204,-205 113,0 205,92 205,205 0,113 -92,205 -205,205zm0 -343c-76,0 -138,62 -138,138 0,76 62,138 138,138 76,0 138,-62 138,-138 0,-76 -62,-138 -138,-138z"/>
   <path class="fil5" d="M5916 10661c0,95 -77,171 -171,171 -95,0 -172,-76 -172,-171 0,-95 77,-171 172,-171 94,0 171,76 171,171z"/>
   <path class="fil2" d="M5745 10866c-113,0 -205,-92 -205,-205 0,-113 92,-205 205,-205 113,0 204,92 204,205 0,113 -91,205 -204,205zm0 -343c-76,0 -138,62 -138,138 0,76 62,138 138,138 76,0 138,-62 138,-138 0,-76 -62,-138 -138,-138z"/>
   <path class="fil5" d="M5454 11261c0,95 -77,172 -172,172 -94,0 -171,-77 -171,-172 0,-94 77,-171 171,-171 95,0 172,77 172,171z"/>
   <path class="fil2" d="M5282 11466c-113,0 -204,-92 -204,-205 0,-113 91,-204 204,-204 113,0 205,91 205,204 0,113 -92,205 -205,205zm0 -343c-76,0 -138,62 -138,138 0,76 62,138 138,138 76,0 138,-62 138,-138 0,-76 -62,-138 -138,-138z"/>
   <path class="fil4" d="M6614 8132c-133,0 -240,107 -240,239l0 2351c0,133 107,240 240,240 132,0 240,-107 240,-240l0 -2351c0,-132 -108,-239 -240,-239z"/>
   <path class="fil2" d="M6614 10995c-151,0 -273,-122 -273,-273l0 -2351c0,-150 122,-273 273,-273 151,0 273,123 273,273l0 2351c0,151 -122,273 -273,273zm0 -2830c-114,0 -207,93 -207,206l0 2351c0,114 93,207 207,207 114,0 206,-93 206,-207l0 -2351c0,-113 -92,-206 -206,-206z"/>
   <path class="fil5" d="M7008 8689c0,95 -77,172 -171,172 -95,0 -172,-77 -172,-172 0,-94 77,-171 172,-171 94,0 171,77 171,171z"/>
   <path class="fil2" d="M6837 8894c-113,0 -205,-92 -205,-205 0,-113 92,-204 205,-204 112,0 204,91 204,204 0,113 -92,205 -204,205zm0 -343c-76,0 -138,62 -138,138 0,76 62,138 138,138 76,0 138,-62 138,-138 0,-76 -62,-138 -138,-138z"/>
   <path class="fil5" d="M6545 9289c0,95 -76,172 -171,172 -94,0 -171,-77 -171,-172 0,-94 77,-171 171,-171 95,0 171,77 171,171z"/>
   <path class="fil2" d="M6374 9494c-113,0 -204,-92 -204,-205 0,-112 91,-204 204,-204 113,0 205,92 205,204 0,113 -92,205 -205,205zm0 -343c-76,0 -138,62 -138,138 0,76 62,138 138,138 76,0 138,-62 138,-138 0,-76 -62,-138 -138,-138z"/>
   <path class="fil5" d="M7008 9890c0,94 -77,171 -171,171 -95,0 -172,-77 -172,-171 0,-95 77,-172 172,-172 94,0 171,77 171,172z"/>
   <path class="fil2" d="M6837 10094c-113,0 -205,-92 -205,-204 0,-113 92,-205 205,-205 112,0 204,92 204,205 0,112 -92,204 -204,204zm0 -342c-76,0 -138,62 -138,138 0,76 62,137 138,137 76,0 138,-61 138,-137 0,-76 -62,-138 -138,-138z"/>
   <path class="fil5" d="M6545 10490c0,94 -76,171 -171,171 -94,0 -171,-77 -171,-171 0,-95 77,-172 171,-172 95,0 171,77 171,172z"/>
   <path class="fil2" d="M6374 10694c-113,0 -204,-91 -204,-204 0,-113 91,-205 204,-205 113,0 205,92 205,205 0,113 -92,204 -205,204zm0 -342c-76,0 -138,62 -138,138 0,76 62,138 138,138 76,0 138,-62 138,-138 0,-76 -62,-138 -138,-138z"/>
   <path class="fil4" d="M7693 8732c-132,0 -240,107 -240,240l0 2350c0,133 108,240 240,240 132,0 240,-107 240,-240l0 -2350c0,-133 -108,-240 -240,-240z"/>
   <path class="fil2" d="M7693 11595c-151,0 -273,-122 -273,-273l0 -2350c0,-151 122,-274 273,-274 151,0 273,123 273,274l0 2350c0,151 -122,273 -273,273zm0 -2830c-114,0 -206,93 -206,207l0 2350c0,114 92,207 206,207 114,0 206,-93 206,-207l0 -2350c0,-114 -92,-207 -206,-207z"/>
   <path class="fil5" d="M8087 9289c0,95 -77,172 -171,172 -95,0 -172,-77 -172,-172 0,-94 77,-171 172,-171 94,0 171,77 171,171z"/>
   <path class="fil2" d="M7916 9494c-113,0 -205,-92 -205,-205 0,-112 92,-204 205,-204 112,0 204,92 204,204 0,113 -92,205 -204,205zm0 -343c-76,0 -138,62 -138,138 0,76 62,138 138,138 76,0 138,-62 138,-138 0,-76 -62,-138 -138,-138z"/>
   <path class="fil5" d="M7624 9890c0,94 -76,171 -171,171 -94,0 -171,-77 -171,-171 0,-95 77,-172 171,-172 95,0 171,77 171,172z"/>
   <path class="fil2" d="M7453 10094c-113,0 -204,-92 -204,-204 0,-113 91,-205 204,-205 113,0 205,92 205,205 0,112 -92,204 -205,204zm0 -342c-76,0 -138,62 -138,138 0,76 62,137 138,137 76,0 138,-61 138,-137 0,-76 -62,-138 -138,-138z"/>
   <path class="fil5" d="M8087 10490c0,94 -77,171 -171,171 -95,0 -172,-77 -172,-171 0,-95 77,-172 172,-172 94,0 171,77 171,172z"/>
   <path class="fil2" d="M7916 10694c-113,0 -205,-91 -205,-204 0,-113 92,-205 205,-205 112,0 204,92 204,205 0,113 -92,204 -204,204zm0 -342c-76,0 -138,62 -138,138 0,76 62,138 138,138 76,0 138,-62 138,-138 0,-76 -62,-138 -138,-138z"/>
   <path class="fil5" d="M7624 11090c0,95 -76,171 -171,171 -94,0 -171,-76 -171,-171 0,-95 77,-171 171,-171 95,0 171,76 171,171z"/>
   <path class="fil2" d="M7453 11295c-113,0 -204,-92 -204,-205 0,-113 91,-205 204,-205 113,0 205,92 205,205 0,113 -92,205 -205,205zm0 -343c-76,0 -138,62 -138,138 0,76 62,138 138,138 76,0 138,-62 138,-138 0,-76 -62,-138 -138,-138z"/>
   <path class="fil4" d="M8631 7703c-133,0 -240,107 -240,239l0 2351c0,133 107,240 240,240 132,0 239,-107 239,-240l0 -2351c0,-132 -107,-239 -239,-239z"/>
   <path class="fil2" d="M8631 10566c-151,0 -273,-122 -273,-273l0 -2350c0,-151 122,-274 273,-274 150,0 273,123 273,274l0 2350c0,151 -123,273 -273,273zm0 -2830c-114,0 -207,93 -207,207l0 2350c0,114 93,207 207,207 114,0 206,-93 206,-207l0 -2350c0,-114 -92,-207 -206,-207z"/>
   <path class="fil5" d="M9025 8260c0,95 -77,172 -172,172 -94,0 -171,-77 -171,-172 0,-94 77,-171 171,-171 95,0 172,77 172,171z"/>
   <path class="fil2" d="M8853 8465c-112,0 -204,-92 -204,-205 0,-113 92,-204 204,-204 113,0 205,91 205,204 0,113 -92,205 -205,205zm0 -343c-76,0 -138,62 -138,138 0,76 62,138 138,138 76,0 138,-62 138,-138 0,-76 -62,-138 -138,-138z"/>
   <path class="fil5" d="M8562 8860c0,95 -76,172 -171,172 -95,0 -171,-77 -171,-172 0,-94 76,-171 171,-171 95,0 171,77 171,171z"/>
   <path class="fil2" d="M8391 9065c-113,0 -205,-92 -205,-205 0,-112 92,-204 205,-204 113,0 205,92 205,204 0,113 -92,205 -205,205zm0 -342c-76,0 -138,61 -138,137 0,77 62,138 138,138 76,0 138,-61 138,-138 0,-76 -62,-137 -138,-137z"/>
   <path class="fil5" d="M9025 9461c0,94 -77,171 -172,171 -94,0 -171,-77 -171,-171 0,-95 77,-172 171,-172 95,0 172,77 172,172z"/>
   <path class="fil2" d="M8853 9665c-112,0 -204,-92 -204,-204 0,-113 92,-205 204,-205 113,0 205,92 205,205 0,112 -92,204 -205,204zm0 -342c-76,0 -138,62 -138,138 0,76 62,138 138,138 76,0 138,-62 138,-138 0,-76 -62,-138 -138,-138z"/>
   <path class="fil5" d="M8562 10061c0,94 -76,171 -171,171 -95,0 -171,-77 -171,-171 0,-95 76,-171 171,-171 95,0 171,76 171,171z"/>
   <path class="fil2" d="M8391 10266c-113,0 -205,-92 -205,-205 0,-113 92,-205 205,-205 113,0 205,92 205,205 0,113 -92,205 -205,205zm0 -343c-76,0 -138,62 -138,138 0,76 62,138 138,138 76,0 138,-62 138,-138 0,-76 -62,-138 -138,-138z"/>
   <path class="fil4" d="M9607 8474c-132,0 -240,108 -240,240l0 2351c0,132 108,240 240,240 132,0 240,-108 240,-240l0 -2351c0,-132 -108,-240 -240,-240z"/>
   <path class="fil2" d="M9607 11338c-151,0 -273,-122 -273,-273l0 -2351c0,-150 122,-273 273,-273 151,0 273,123 273,273l0 2351c0,151 -122,273 -273,273zm0 -2830c-114,0 -206,92 -206,206l0 2351c0,114 92,206 206,206 114,0 206,-92 206,-206l0 -2351c0,-114 -92,-206 -206,-206z"/>
   <path class="fil5" d="M10001 9032c0,95 -77,171 -171,171 -95,0 -172,-76 -172,-171 0,-95 77,-171 172,-171 94,0 171,76 171,171z"/>
   <path class="fil2" d="M9830 9237c-113,0 -205,-92 -205,-205 0,-113 92,-205 205,-205 112,0 204,92 204,205 0,113 -92,205 -204,205zm0 -343c-76,0 -138,62 -138,138 0,76 62,138 138,138 76,0 138,-62 138,-138 0,-76 -62,-138 -138,-138z"/>
   <path class="fil5" d="M9538 9632c0,95 -76,172 -171,172 -94,0 -171,-77 -171,-172 0,-94 77,-171 171,-171 95,0 171,77 171,171z"/>
   <path class="fil2" d="M9367 9837c-113,0 -204,-92 -204,-205 0,-113 91,-204 204,-204 113,0 205,91 205,204 0,113 -92,205 -205,205zm0 -343c-76,0 -138,62 -138,138 0,76 62,138 138,138 76,0 138,-62 138,-138 0,-76 -62,-138 -138,-138z"/>
   <path class="fil5" d="M10001 10232c0,95 -77,172 -171,172 -95,0 -172,-77 -172,-172 0,-94 77,-171 172,-171 94,0 171,77 171,171z"/>
   <path class="fil2" d="M9830 10437c-113,0 -205,-92 -205,-205 0,-112 92,-204 205,-204 112,0 204,92 204,204 0,113 -92,205 -204,205zm0 -343c-76,0 -138,62 -138,138 0,76 62,138 138,138 76,0 138,-62 138,-138 0,-76 -62,-138 -138,-138z"/>
   <path class="fil5" d="M9538 10833c0,94 -76,171 -171,171 -94,0 -171,-77 -171,-171 0,-95 77,-172 171,-172 95,0 171,77 171,172z"/>
   <path class="fil2" d="M9367 11037c-113,0 -204,-92 -204,-204 0,-113 91,-205 204,-205 113,0 205,92 205,205 0,112 -92,204 -205,204zm0 -342c-76,0 -138,62 -138,138 0,76 62,138 138,138 76,0 138,-62 138,-138 0,-76 -62,-138 -138,-138z"/>
   <polygon class="fil6" points="15779,8901 8825,8901 8825,12408 15779,12408 "/>
   <path class="fil2" d="M15779 12441l-6954 0c-18,0 -33,-15 -33,-33l0 -3507c0,-19 15,-34 33,-34l6954 0c18,0 33,15 33,34l0 3507c0,18 -15,33 -33,33zm-6920 -66l6887 0 0 -3441 -6887 0 0 3441z"/>
   <polygon class="fil7" points="15027,7301 9498,7301 8180,8901 16425,8901 "/>
   <path class="fil2" d="M16424 8934l-8244 0c-13,0 -25,-7 -30,-19 -6,-12 -4,-26 4,-36l1318 -1599c6,-8 16,-12 26,-12l5529 0c10,0 19,4 25,11l1398 1600c8,10 10,23 5,35 -6,12 -17,20 -31,20zm-8173 -67l8100 0 -1339 -1532 -5499 0 -1262 1532z"/>
   <polygon class="fil8" points="13245,11145 12334,11145 12334,9853 13245,9853 "/>
   <path class="fil2" d="M13245 11178l-911 0c-19,0 -34,-15 -34,-33l0 -1292c0,-18 15,-33 34,-33l911 0c18,0 33,15 33,33l0 1292c0,18 -15,33 -33,33zm-878 -67l845 0 0 -1224 -845 0 0 1224z"/>
   <polygon class="fil8" points="14923,11145 14012,11145 14012,9853 14923,9853 "/>
   <path class="fil2" d="M14923 11178l-911 0c-18,0 -33,-15 -33,-33l0 -1292c0,-18 15,-33 33,-33l911 0c19,0 34,15 34,33l0 1292c0,18 -15,33 -34,33zm-878 -67l845 0 0 -1224 -845 0 0 1224z"/>
   <polygon class="fil9" points="15779,12408 8825,12408 8825,11133 15779,11133 "/>
   <path class="fil2" d="M15779 12441l-6954 0c-18,0 -33,-15 -33,-33l0 -1275c0,-18 15,-33 33,-33l6954 0c18,0 33,15 33,33l0 1275c0,18 -15,33 -33,33zm-6920 -66l6887 0 0 -1208 -6887 0 0 1208z"/>
   <polygon class="fil10" points="4650,12430 2720,12430 2720,11140 4650,11140 "/>
   <path class="fil2" d="M4650 12463l-1931 0c-18,0 -33,-15 -33,-33l0 -1290c0,-18 15,-33 33,-33l1931 0c18,0 33,15 33,33l0 1290c0,18 -15,33 -33,33zm-1897 -67l1863 0 0 -1223 -1863 0 0 1223z"/>
   <path class="fil1" d="M4665 10752c0,-622 -434,-1127 -1004,-1127 -570,0 -1004,505 -1004,1127 0,104 8,238 8,238 0,184 151,335 335,335l1337 0c185,0 335,-151 335,-335 0,0 -7,-152 -7,-238z"/>
   <path class="fil2" d="M4337 11359l-1337 0c-203,0 -368,-166 -368,-369 0,0 -9,-134 -9,-238 0,-651 456,-1161 1038,-1161 581,0 1037,510 1037,1161 0,84 7,235 8,237 0,204 -166,370 -369,370zm-676 -1701c-545,0 -971,481 -971,1094 0,102 9,235 9,236 0,169 135,304 301,304l1337 0c167,0 302,-135 302,-302 0,-4 -7,-152 -7,-238 0,-613 -427,-1094 -971,-1094z"/>
   <path class="fil11" d="M4034 10873c0,-231 -161,-418 -372,-418 -211,0 -372,187 -372,418 0,38 -6,76 3,111 0,1 0,1 0,2l0 192c0,69 56,125 124,125l496 0c68,0 124,-56 124,-125l0 -192c0,-7 -1,-14 -2,-21 6,-29 -1,-60 -1,-92z"/>
   <path class="fil2" d="M3913 11336l-496 0c-86,0 -157,-71 -157,-158l0 -191c-6,-28 -5,-56 -4,-83 0,-11 1,-21 1,-31 0,-253 178,-451 405,-451 228,0 406,198 406,451 0,10 1,20 1,30 2,21 4,41 0,63 1,7 2,14 2,20l0 192c0,87 -71,158 -158,158zm-251 -848c-190,0 -339,169 -339,385 0,11 0,22 -1,33 -1,25 -2,49 4,70 0,3 1,6 1,9 0,0 0,2 0,2l0 191c0,51 40,91 90,91l496 0c50,0 91,-40 91,-91l0 -192c0,-4 -1,-9 -2,-15 0,-4 0,-8 1,-12 3,-15 1,-32 0,-50 -1,-12 -2,-24 -2,-36 0,-216 -149,-385 -339,-385z"/>
   <polygon class="fil1" points="3787,8860 3517,8860 3517,9630 3787,9630 "/>
   <path class="fil2" d="M3787 9663l-270 0c-18,0 -33,-15 -33,-34l0 -769c0,-18 15,-33 33,-33l270 0c19,0 34,15 34,33l0 769c0,19 -15,34 -34,34zm-237 -67l204 0 0 -702 -204 0 0 702z"/>
   <path class="fil11" d="M3202 11859c0,100 -81,181 -181,181 -100,0 -181,-81 -181,-181 0,-100 81,-181 181,-181 100,0 181,81 181,181z"/>
   <path class="fil2" d="M3021 12073c-118,0 -214,-96 -214,-214 0,-118 96,-214 214,-214 118,0 214,96 214,214 0,118 -96,214 -214,214zm0 -361c-82,0 -148,66 -148,147 0,81 66,147 148,147 81,0 147,-66 147,-147 0,-81 -66,-147 -147,-147z"/>
   <path class="fil11" d="M3479 11715c0,87 -70,158 -157,158 -87,0 -158,-71 -158,-158 0,-87 71,-157 158,-157 87,0 157,70 157,157z"/>
   <path class="fil2" d="M3322 11906c-105,0 -191,-85 -191,-191 0,-105 86,-190 191,-190 105,0 191,85 191,190 0,106 -86,191 -191,191zm0 -315c-69,0 -124,56 -124,124 0,69 55,125 124,125 68,0 124,-56 124,-125 0,-68 -56,-124 -124,-124z"/>
   <path class="fil11" d="M3102 12231c0,106 -86,191 -191,191 -106,0 -192,-85 -192,-191 0,-106 86,-191 192,-191 105,0 191,85 191,191z"/>
   <path class="fil2" d="M2911 12456c-124,0 -225,-101 -225,-225 0,-124 101,-224 225,-224 124,0 224,100 224,224 0,124 -100,225 -224,225zm0 -383c-87,0 -158,71 -158,158 0,87 71,158 158,158 87,0 158,-71 158,-158 0,-87 -71,-158 -158,-158z"/>
   <path class="fil11" d="M4321 11929c0,87 -70,158 -157,158 -87,0 -158,-71 -158,-158 0,-87 71,-157 158,-157 87,0 157,70 157,157z"/>
   <path class="fil2" d="M4164 12120c-105,0 -191,-85 -191,-191 0,-105 86,-190 191,-190 105,0 191,85 191,190 0,106 -86,191 -191,191zm0 -315c-69,0 -124,56 -124,124 0,69 55,125 124,125 68,0 124,-56 124,-125 0,-68 -56,-124 -124,-124z"/>
   <path class="fil11" d="M4238 12276c0,59 -48,107 -107,107 -58,0 -106,-48 -106,-107 0,-59 48,-106 106,-106 59,0 107,47 107,106z"/>
   <path class="fil2" d="M4131 12416c-77,0 -139,-63 -139,-140 0,-77 62,-140 139,-140 78,0 140,63 140,140 0,77 -62,140 -140,140zm0 -213c-40,0 -73,33 -73,73 0,41 33,73 73,73 41,0 74,-32 74,-73 0,-40 -33,-73 -74,-73z"/>
   <path class="fil11" d="M4038 12209c0,107 -87,195 -195,195 -108,0 -195,-88 -195,-195 0,-108 87,-195 195,-195 108,0 195,87 195,195z"/>
   <path class="fil2" d="M3843 12437c-126,0 -228,-102 -228,-228 0,-126 102,-228 228,-228 126,0 228,102 228,228 0,126 -102,228 -228,228zm0 -389c-89,0 -161,72 -161,161 0,89 72,161 161,161 89,0 161,-72 161,-161 0,-89 -72,-161 -161,-161z"/>
   <path class="fil11" d="M4622 12209c0,107 -87,195 -195,195 -107,0 -194,-88 -194,-195 0,-108 87,-195 194,-195 108,0 195,87 195,195z"/>
   <path class="fil2" d="M4427 12437c-125,0 -228,-102 -228,-228 0,-126 103,-228 228,-228 126,0 228,102 228,228 0,126 -102,228 -228,228zm0 -389c-89,0 -161,72 -161,161 0,89 72,161 161,161 89,0 162,-72 162,-161 0,-89 -73,-161 -162,-161z"/>
   <path class="fil11" d="M4622 11603c0,107 -87,194 -195,194 -107,0 -194,-87 -194,-194 0,-108 87,-195 194,-195 108,0 195,87 195,195z"/>
   <path class="fil2" d="M4427 11831c-125,0 -228,-103 -228,-228 0,-126 103,-228 228,-228 126,0 228,102 228,228 0,125 -102,228 -228,228zm0 -390c-89,0 -161,73 -161,162 0,89 72,161 161,161 89,0 162,-72 162,-161 0,-89 -73,-162 -162,-162z"/>
   <path class="fil11" d="M4622 11906c0,66 -54,120 -120,120 -66,0 -120,-54 -120,-120 0,-66 54,-120 120,-120 66,0 120,54 120,120z"/>
   <path class="fil2" d="M4502 12059c-84,0 -153,-69 -153,-153 0,-84 69,-153 153,-153 85,0 153,69 153,153 0,84 -68,153 -153,153zm0 -239c-47,0 -86,38 -86,86 0,48 39,86 86,86 48,0 87,-38 87,-86 0,-48 -39,-86 -87,-86z"/>
   <path class="fil11" d="M4044 11715c0,142 -115,257 -257,257 -142,0 -257,-115 -257,-257 0,-141 115,-256 257,-256 142,0 257,115 257,256z"/>
   <path class="fil2" d="M3787 12006c-160,0 -290,-130 -290,-291 0,-160 130,-290 290,-290 160,0 290,130 290,290 0,161 -130,291 -290,291zm0 -514c-123,0 -223,100 -223,223 0,124 100,224 223,224 123,0 224,-100 224,-224 0,-123 -101,-223 -224,-223z"/>
   <path class="fil11" d="M3616 12147c0,142 -115,257 -257,257 -142,0 -257,-115 -257,-257 0,-142 115,-257 257,-257 142,0 257,115 257,257z"/>
   <path class="fil2" d="M3359 12437c-160,0 -290,-130 -290,-290 0,-160 130,-291 290,-291 160,0 290,131 290,291 0,160 -130,290 -290,290zm0 -514c-123,0 -224,100 -224,224 0,123 101,223 224,223 123,0 224,-100 224,-223 0,-124 -101,-224 -224,-224z"/>
   <path class="fil11" d="M4236 11669c0,49 -39,88 -88,88 -49,0 -88,-39 -88,-88 0,-49 39,-88 88,-88 49,0 88,39 88,88z"/>
   <path class="fil2" d="M4148 11790c-67,0 -121,-54 -121,-121 0,-67 54,-121 121,-121 67,0 121,54 121,121 0,67 -54,121 -121,121zm0 -176c-30,0 -55,25 -55,55 0,30 25,55 55,55 30,0 55,-25 55,-55 0,-30 -25,-55 -55,-55z"/>
   <path class="fil11" d="M3567 11515c0,48 -39,88 -88,88 -48,0 -88,-40 -88,-88 0,-49 40,-88 88,-88 49,0 88,39 88,88z"/>
   <path class="fil2" d="M3479 11636c-67,0 -121,-54 -121,-121 0,-67 54,-122 121,-122 67,0 122,55 122,122 0,67 -55,121 -122,121zm0 -176c-30,0 -54,25 -54,55 0,30 24,54 54,54 30,0 55,-24 55,-54 0,-30 -25,-55 -55,-55z"/>
   <path class="fil11" d="M4201 11459c0,48 -40,88 -88,88 -49,0 -88,-40 -88,-88 0,-49 39,-88 88,-88 48,0 88,39 88,88z"/>
   <path class="fil2" d="M4113 11580c-67,0 -121,-55 -121,-121 0,-67 54,-122 121,-122 67,0 121,55 121,122 0,66 -54,121 -121,121zm0 -176c-30,0 -55,24 -55,55 0,30 25,54 55,54 30,0 55,-24 55,-54 0,-31 -25,-55 -55,-55z"/>
   <path class="fil11" d="M3190 11515c0,71 -58,130 -130,130 -72,0 -130,-59 -130,-130 0,-72 58,-130 130,-130 72,0 130,58 130,130z"/>
   <path class="fil2" d="M3060 11678c-90,0 -163,-73 -163,-163 0,-90 73,-164 163,-164 90,0 163,74 163,164 0,90 -73,163 -163,163zm0 -260c-53,0 -96,43 -96,97 0,53 43,96 96,96 53,0 97,-43 97,-96 0,-54 -44,-97 -97,-97z"/>
   <path class="fil2" d="M3913 11336l-496 0c-86,0 -157,-71 -157,-158l0 -191c-6,-28 -5,-56 -4,-83 0,-11 1,-21 1,-31 0,-253 178,-451 405,-451 228,0 406,198 406,451 0,10 1,20 1,30 2,21 4,41 0,63 1,7 2,14 2,20l0 192c0,87 -71,158 -158,158zm-251 -848c-190,0 -339,169 -339,385 0,11 0,22 -1,33 -1,25 -2,49 4,70 0,3 1,6 1,9 0,0 0,2 0,2l0 191c0,51 40,91 90,91l496 0c50,0 91,-40 91,-91l0 -192c0,-4 -1,-9 -2,-15 0,-4 0,-8 1,-12 3,-15 1,-32 0,-50 -1,-12 -2,-24 -2,-36 0,-216 -149,-385 -339,-385z"/>
   <polygon class="fil10" points="11444,12408 10293,12408 10293,9853 11444,9853 "/>
   <path class="fil2" d="M11444 12441l-1151 0c-19,0 -34,-15 -34,-33l0 -2555c0,-18 15,-33 34,-33l1151 0c19,0 34,15 34,33l0 2555c0,18 -15,33 -34,33zm-1118 -66l1085 0 0 -2488 -1085 0 0 2488z"/>
   <path class="fil4" d="M9043 11641l-244 0c-87,0 -164,67 -209,167 -42,-117 -125,-197 -222,-197l-244 0c-96,0 -179,80 -221,197 -45,-100 -122,-167 -209,-167l-244 0c-88,0 -165,67 -210,167 -41,-117 -125,-197 -221,-197l-244 0c-96,0 -180,80 -222,197 -44,-100 -122,-167 -209,-167l-244 0c-88,0 -165,67 -209,167 -42,-117 -126,-197 -222,-197l-244 0c-96,0 -180,80 -221,197 -45,-100 -122,-167 -210,-167l-244 0c-87,0 -164,67 -209,167 -42,-117 -125,-197 -222,-197l-244 0c-137,0 -249,164 -249,364l0 43c0,200 112,364 249,364l244 0c88,0 165,-66 210,-167 41,117 125,198 221,198l244 0c96,0 180,-81 222,-198 44,101 122,167 209,167l244 0c88,0 165,-66 209,-167 42,117 126,198 222,198l244 0c96,0 180,-81 221,-198 45,101 122,167 210,167l244 0c87,0 165,-66 209,-167 42,117 125,198 222,198l244 0c96,0 180,-81 221,-198 45,101 122,167 209,167l244 0c88,0 165,-66 210,-167 41,117 125,198 221,198l244 0c138,0 250,-164 250,-364l0 -43c0,-201 -112,-365 -250,-365z"/>
   <path class="fil2" d="M9043 12446l-244 0c-89,0 -171,-58 -224,-156 -53,80 -127,126 -207,126l-244 0c-79,0 -153,-46 -206,-126 -53,98 -135,156 -224,156l-244 0c-90,0 -172,-58 -225,-156 -53,80 -127,126 -206,126l-244 0c-80,0 -154,-46 -206,-126 -53,98 -135,156 -225,156l-244 0c-90,0 -172,-58 -225,-156 -53,80 -126,126 -206,126l-244 0c-79,0 -153,-46 -206,-126 -53,98 -135,156 -225,156l-244 0c-89,0 -172,-58 -224,-156 -53,80 -127,126 -207,126l-244 0c-156,0 -282,-179 -282,-398l0 -43c0,-219 126,-398 282,-398l244 0c90,0 172,59 225,156 53,-79 127,-125 206,-125l244 0c80,0 154,46 206,125 53,-97 135,-156 225,-156l244 0c90,0 172,59 225,156 53,-79 126,-125 206,-125l244 0c79,0 153,46 206,125 53,-97 135,-156 225,-156l244 0c89,0 172,59 224,156 53,-79 127,-125 207,-125l244 0c79,0 153,46 206,125 53,-97 135,-156 224,-156l244 0c90,0 172,59 225,156 53,-79 127,-125 206,-125l244 0c156,0 283,178 283,398l0 43c0,219 -127,397 -283,397zm-465 -264c0,0 1,0 1,0 14,1 26,9 30,22 39,108 112,176 190,176l244 0c117,0 217,-152 217,-331l0 -43c0,-180 -100,-331 -217,-331l-244 0c-71,0 -138,55 -179,147 -5,12 -18,20 -31,20 -14,-1 -26,-10 -30,-23 -39,-108 -112,-175 -191,-175l-244 0c-78,0 -151,67 -190,175 -4,13 -16,22 -30,23 -13,0 -26,-8 -32,-20 -41,-92 -107,-147 -178,-147l-244 0c-71,0 -138,55 -179,147 -6,12 -18,20 -32,20 -14,-1 -26,-10 -30,-23 -39,-108 -111,-175 -190,-175l-244 0c-79,0 -152,67 -190,175 -5,13 -17,22 -30,23 -14,0 -27,-8 -32,-20 -41,-92 -108,-147 -179,-147l-244 0c-71,0 -138,55 -179,147 -5,12 -18,20 -32,20 -13,-1 -25,-10 -30,-23 -38,-108 -111,-175 -190,-175l-244 0c-79,0 -151,67 -190,175 -5,13 -17,22 -30,23 -14,0 -26,-8 -32,-20 -41,-92 -108,-147 -179,-147l-244 0c-71,0 -138,55 -179,147 -5,12 -18,20 -31,20 -14,-1 -26,-10 -30,-23 -39,-108 -112,-175 -191,-175l-244 0c-117,0 -216,152 -216,331l0 43c0,179 99,331 216,331l244 0c71,0 138,-55 179,-147 6,-13 19,-21 32,-20 14,1 26,9 30,22 39,108 112,176 190,176l244 0c79,0 152,-68 190,-176 5,-13 17,-21 31,-22 13,-1 26,7 31,20 41,92 108,147 179,147l244 0c71,0 138,-55 179,-147 6,-13 18,-21 32,-20 13,1 25,9 30,22 38,108 111,176 190,176l244 0c79,0 152,-68 190,-176 5,-13 17,-21 30,-22 14,-1 26,7 32,20 41,92 108,147 179,147l244 0c71,0 138,-55 179,-147 5,-13 18,-21 31,-20 14,1 26,9 30,22 39,108 112,176 191,176l244 0c78,0 151,-68 190,-176 4,-13 16,-21 30,-22 14,-1 26,7 32,20 41,92 107,147 178,147l244 0c71,0 138,-55 179,-147 6,-12 18,-20 31,-20z"/>
   <polygon class="fil4" points="13245,10927 12334,10927 12334,11133 13245,11133 "/>
   <path class="fil2" d="M13245 11167l-911 0c-19,0 -34,-15 -34,-34l0 -206c0,-18 15,-33 34,-33l911 0c18,0 33,15 33,33l0 206c0,19 -15,34 -33,34zm-878 -67l845 0 0 -140 -845 0 0 140z"/>
   <polygon class="fil4" points="14923,10927 14012,10927 14012,11133 14923,11133 "/>
   <path class="fil2" d="M14923 11167l-911 0c-18,0 -33,-15 -33,-34l0 -206c0,-18 15,-33 33,-33l911 0c19,0 34,15 34,33l0 206c0,19 -15,34 -34,34zm-878 -67l845 0 0 -140 -845 0 0 140z"/>
   <polygon class="fil12" points="11744,12408 11998,12408 11998,8899 11744,8899 "/>
   <path class="fil2" d="M11998 12441l-254 0c-19,0 -34,-15 -34,-33l0 -3509c0,-18 15,-33 34,-33l254 0c19,0 34,15 34,33l0 3509c0,18 -15,33 -34,33zm-221 -66l188 0 0 -3443 -188 0 0 3443z"/>
   <polygon class="fil12" points="9491,12408 9745,12408 9745,8899 9491,8899 "/>
   <path class="fil2" d="M9745 12441l-254 0c-19,0 -34,-15 -34,-33l0 -3509c0,-18 15,-33 34,-33l254 0c19,0 34,15 34,33l0 3509c0,18 -15,33 -34,33zm-221 -66l188 0 0 -3443 -188 0 0 3443z"/>
   <polygon class="fil12" points="13500,12408 13755,12408 13755,8899 13500,8899 "/>
   <path class="fil2" d="M13755 12441l-255 0c-19,0 -33,-15 -33,-33l0 -3509c0,-18 14,-33 33,-33l255 0c18,0 33,15 33,33l0 3509c0,18 -15,33 -33,33zm-222 -66l188 0 0 -3443 -188 0 0 3443z"/>
   <path class="fil13" d="M12437 4907l-2098 0 618 618 0 2779c0,341 276,618 618,618l1480 0 0 -3397c0,-341 -277,-618 -618,-618z"/>
   <path class="fil2" d="M13055 8955l-1480 0c-359,0 -652,-292 -652,-651l0 -2765 -608 -608c-9,-10 -12,-24 -7,-37 5,-12 17,-20 31,-20l2098 0c359,0 651,292 651,651l0 3397c0,18 -15,33 -33,33zm-2636 -4014l561 561c7,6 10,14 10,23l0 2779c0,322 262,584 585,584l1446 0 0 -3363c0,-322 -262,-584 -584,-584l-2018 0z"/>
   <path class="fil13" d="M10957 5525c0,341 -277,618 -618,618 -341,0 -618,-277 -618,-618 0,-341 277,-618 618,-618 341,0 618,277 618,618z"/>
   <path class="fil2" d="M10339 6176c-359,0 -651,-292 -651,-651 0,-359 292,-651 651,-651 359,0 651,292 651,651 0,359 -292,651 -651,651zm0 -1235c-323,0 -585,262 -585,584 0,323 262,585 585,585 322,0 584,-262 584,-585 0,-322 -262,-584 -584,-584z"/>
   <path class="fil13" d="M13593 7688l0 -2 -2018 0c341,0 618,276 618,618 0,341 -277,618 -618,618l2018 0 0 -3c320,-23 572,-290 572,-615 0,-326 -252,-592 -572,-616z"/>
   <path class="fil2" d="M13593 8955l-2018 0c-19,0 -34,-15 -34,-33 0,-19 15,-34 34,-34 322,0 584,-262 584,-584 0,-323 -262,-585 -584,-585 -19,0 -34,-15 -34,-33 0,-19 15,-34 34,-34l2018 0c5,0 10,2 15,4 332,31 590,313 590,648 0,334 -258,617 -590,647 -5,3 -10,4 -15,4zm-1731 -67l1719 0c3,-1 6,-2 9,-2 304,-22 541,-278 541,-582 0,-304 -237,-560 -541,-583 -3,0 -6,-1 -9,-2l-1719 0c215,106 364,328 364,585 0,256 -149,478 -364,584z"/>
   <path class="fil2" d="M11243 5592l0 17 0 0c8,0 14,0 18,0l57 0c0,6 -1,11 -1,14 -2,13 -10,19 -25,19l-65 0c-7,0 -13,-2 -17,-6 -4,-4 -6,-10 -6,-17l0 -143 2 -2 105 0c1,5 2,10 2,16 0,5 -1,11 -3,17l-67 0 0 17 0 18c5,-1 10,-1 17,-1l37 0c2,5 2,10 2,16 0,6 0,11 -2,16l-54 0 0 19z"/>
   <path class="fil2" d="M11379 5627c0,-6 2,-11 5,-16 3,-6 6,-10 10,-14 17,11 34,16 49,16 7,0 12,-1 16,-4 3,-4 4,-7 4,-12 0,-8 -5,-14 -15,-18l-29 -12c-11,-5 -20,-11 -26,-18 -6,-8 -9,-17 -9,-27 0,-8 2,-15 5,-21 3,-6 7,-12 12,-16 6,-5 12,-8 20,-11 7,-2 16,-4 25,-4 18,0 36,5 55,14 -1,13 -5,23 -13,30 -17,-8 -32,-12 -44,-12 -7,0 -12,1 -15,4 -3,3 -5,6 -5,10 0,7 5,12 15,16l29 12c12,5 22,12 28,20 6,8 9,18 9,28 0,8 -2,15 -4,21 -3,7 -7,12 -13,17 -5,5 -12,8 -20,11 -8,2 -18,4 -29,4 -21,0 -41,-6 -60,-18z"/>
   <path class="fil2" d="M11666 5541l0 -3c0,-24 -9,-36 -27,-36 -10,0 -18,4 -22,14 -5,9 -7,23 -7,41 0,18 3,31 8,40 6,9 14,13 25,13 6,0 12,-1 19,-4 7,-2 15,-7 23,-12 4,2 8,6 11,11 4,5 6,9 7,14 -4,3 -8,7 -13,10 -5,3 -11,6 -16,8 -6,2 -12,4 -19,6 -6,1 -12,2 -18,2 -13,0 -24,-3 -32,-8 -9,-4 -16,-11 -21,-19 -5,-8 -9,-17 -12,-27 -2,-11 -3,-22 -3,-33 0,-14 2,-27 5,-38 4,-11 9,-20 15,-28 7,-7 14,-13 22,-16 9,-4 18,-6 27,-6 10,0 19,2 27,4 8,3 15,6 21,11 5,4 9,10 12,16 4,6 5,13 5,20 0,15 -7,22 -22,22 -5,0 -10,-1 -15,-2z"/>
   <path class="fil2" d="M11896 5526c0,5 -1,10 -2,15 -2,5 -4,9 -7,13 -3,4 -6,7 -9,10 -4,3 -8,5 -12,6 9,4 15,11 19,23l7 21c3,8 7,14 13,18 -3,3 -6,6 -11,8 -5,2 -11,3 -16,3 -6,0 -11,-1 -14,-5 -3,-3 -6,-9 -9,-17l-9 -26c-2,-5 -4,-9 -7,-11 -3,-3 -8,-4 -14,-4l-10 0 0 61c-5,1 -12,1 -19,1 -8,0 -15,0 -20,-1l0 -166 2 -1c14,-1 26,-1 36,-1 10,0 17,0 23,0 9,0 17,1 24,3 7,2 14,5 19,10 5,4 9,10 12,16 3,7 4,15 4,24zm-81 -24l0 48c7,0 14,0 19,0 5,-1 9,-2 13,-3 3,-2 5,-5 7,-8 1,-3 2,-7 2,-13 0,-16 -7,-24 -23,-24l-10 0c-3,0 -6,0 -8,0z"/>
   <path class="fil2" d="M11976 5641l0 -167c5,-1 12,-1 20,-1 7,0 14,0 19,1l0 167c-5,1 -12,2 -19,2 -8,0 -15,-1 -20,-2z"/>
   <path class="fil2" d="M12165 5507l0 18 0 116c-5,1 -12,2 -20,2 -7,0 -14,-1 -19,-2l0 -134 -15 0 -26 0c-1,-5 -1,-10 -1,-16 0,-7 0,-12 1,-17l121 0c1,4 2,10 2,16 0,6 -1,10 -5,13 -3,3 -8,4 -15,4l-7 0 -16 0 0 0z"/>
   <path class="fil2" d="M12405 5474l0 105c0,21 -6,37 -17,49 -12,11 -28,17 -49,17 -21,0 -37,-6 -49,-17 -11,-12 -17,-28 -17,-49l0 -105 2 -2 14 0c16,0 23,9 23,25l0 83c0,11 2,20 6,25 4,6 11,9 21,9 10,0 17,-3 21,-9 4,-5 6,-14 6,-25l0 -106c5,-1 12,-1 19,-1 8,0 15,0 20,1z"/>
   <path class="fil2" d="M12608 5526c0,5 0,10 -2,15 -2,5 -4,9 -6,13 -3,4 -6,7 -10,10 -4,3 -7,5 -11,6 8,4 14,11 18,23l8 21c3,8 7,14 12,18 -2,3 -6,6 -11,8 -5,2 -10,3 -16,3 -6,0 -11,-1 -14,-5 -3,-3 -6,-9 -9,-17l-9 -26c-1,-5 -4,-9 -7,-11 -3,-3 -7,-4 -13,-4l-10 0 0 61c-6,1 -12,1 -20,1 -8,0 -14,0 -19,-1l0 -166 1 -1c15,-1 27,-1 36,-1 10,0 18,0 23,0 9,0 17,1 25,3 7,2 13,5 18,10 5,4 9,10 12,16 3,7 4,15 4,24zm-80 -24l0 48c7,0 13,0 18,0 6,-1 10,-2 13,-3 3,-2 6,-5 7,-8 2,-3 3,-7 3,-13 0,-16 -8,-24 -23,-24l-10 0c-4,0 -6,0 -8,0z"/>
   <path class="fil2" d="M12728 5606c-4,0 -7,0 -9,0l-11 35c-4,1 -9,2 -16,2 -8,0 -14,-1 -19,-3l-1 -2 53 -164c7,-1 14,-1 23,-1 9,0 17,0 22,1l53 165c-5,3 -12,4 -19,4 -9,0 -14,-1 -18,-4 -3,-3 -6,-9 -9,-17l-4 -16c-2,0 -6,0 -10,0l-35 0zm0 -31l9 0 18 0c1,0 3,0 5,0 2,0 3,0 4,0l-4 -15c-4,-14 -8,-30 -13,-50l-2 0c-1,7 -5,22 -12,46l-5 19z"/>
   <path class="fil2" d="M11452 5896l-20 0 0 52c-5,1 -11,2 -19,2 -8,0 -15,-1 -20,-2l0 -165 2 -2c14,0 26,-1 35,-1 10,0 17,0 22,0 9,0 17,1 24,4 8,2 14,6 19,11 6,4 10,11 12,18 3,7 5,15 5,25 0,9 -2,18 -5,25 -3,7 -7,13 -12,18 -5,5 -12,9 -19,11 -7,3 -16,4 -24,4zm-20 -86l0 57c5,-1 8,-1 11,-1 3,0 5,0 5,0 5,0 9,-1 12,-2 2,-2 5,-4 7,-6 1,-3 3,-6 4,-9 0,-4 1,-7 1,-11 0,-4 -1,-7 -1,-10 -1,-4 -3,-7 -4,-10 -2,-2 -4,-4 -7,-6 -3,-1 -6,-2 -10,-2l-10 0c-3,0 -5,0 -8,0z"/>
   <path class="fil2" d="M11716 5781l0 106c0,21 -6,37 -17,48 -12,11 -28,17 -49,17 -21,0 -38,-6 -49,-17 -12,-11 -17,-27 -17,-48l0 -106 1 -1 15 0c15,0 23,8 23,25l0 82c0,12 2,20 6,26 4,5 11,8 21,8 10,0 17,-3 21,-8 4,-6 6,-14 6,-26l0 -106c5,-1 11,-1 19,-1 8,0 15,0 20,1zm-97 -29l55 -33c3,2 6,7 9,12 4,6 5,11 6,17l-59 23c-3,-2 -5,-4 -7,-8 -2,-4 -4,-7 -4,-11z"/>
   <path class="fil2" d="M11801 5781c13,0 25,-1 34,-1 9,0 17,0 23,0 17,0 31,4 42,11 10,7 15,19 15,33 0,8 -2,14 -6,20 -4,7 -9,11 -16,14 4,1 8,3 12,6 3,3 7,6 9,10 3,4 5,8 6,13 2,4 3,9 3,13 0,17 -6,30 -16,38 -11,8 -26,12 -46,12 -6,0 -14,0 -24,-1 -10,0 -22,0 -36,0l-1 -2 0 -164 1 -2zm37 27l0 39 18 0c7,0 13,-2 16,-6 3,-4 5,-8 5,-14 0,-5 -2,-10 -5,-14 -3,-3 -9,-5 -16,-5l-10 0c-3,0 -5,0 -8,0zm21 67l-21 0 0 47c5,0 9,0 15,0 5,1 10,0 14,-1 5,-1 9,-3 12,-7 3,-4 4,-9 4,-16 0,-6 -2,-11 -6,-16 -4,-5 -10,-7 -18,-7z"/>
   <path class="fil2" d="M12060 5915l43 0c0,7 -1,12 -1,17 -1,5 -4,9 -8,12 -5,3 -10,5 -18,5l-55 0c-7,0 -12,-2 -16,-6 -4,-4 -7,-10 -7,-17l0 -145 2 -1 15 0c15,0 22,8 22,25l0 111c8,0 15,-1 23,-1z"/>
   <path class="fil2" d="M12176 5948l0 -167c5,-1 11,-1 19,-1 8,0 15,0 20,1l0 167c-5,1 -12,2 -20,2 -8,0 -14,-1 -19,-2z"/>
   <path class="fil2" d="M12389 5848l0 -3c0,-24 -9,-36 -27,-36 -10,0 -18,4 -22,14 -5,9 -7,23 -7,41 0,18 3,32 8,41 6,8 14,13 25,13 6,0 12,-2 19,-4 7,-3 15,-7 23,-13 4,3 8,6 11,11 4,5 6,10 7,14 -4,4 -8,7 -13,10 -5,3 -11,6 -17,8 -5,3 -11,4 -18,6 -6,1 -12,2 -19,2 -12,0 -23,-2 -31,-7 -9,-5 -16,-11 -21,-19 -6,-8 -9,-18 -12,-28 -2,-11 -3,-21 -3,-33 0,-14 2,-27 5,-38 4,-11 9,-20 15,-28 6,-7 14,-12 22,-16 9,-4 18,-6 27,-6 10,0 19,2 27,4 8,3 15,7 20,11 6,5 10,10 13,16 3,6 5,13 5,20 0,15 -8,22 -22,22 -5,0 -10,-1 -15,-2z"/>
   <path class="fil2" d="M12540 5913c-5,0 -8,0 -10,0l-10 35c-4,1 -10,2 -17,2 -8,0 -14,-1 -19,-3l-1 -2 54 -164c6,-1 13,-1 22,-1 9,0 17,0 23,2l53 164c-6,3 -13,4 -20,4 -8,0 -14,-1 -18,-4 -3,-3 -6,-8 -8,-17l-5 -16c-2,0 -5,0 -10,0l-34 0zm-1 -30l10 -1 18 0c0,0 2,0 4,0 2,0 3,1 4,1l-4 -16c-4,-13 -8,-30 -13,-50l-2 0c-1,7 -5,23 -11,47l-6 19z"/>
   <path class="fil2" d="M12830 6481l-1565 0c-18,0 -33,-15 -33,-33 0,-19 15,-34 33,-34l1565 0c18,0 33,15 33,34 0,18 -15,33 -33,33z"/>
   <path class="fil2" d="M12830 6855l-1565 0c-18,0 -33,-15 -33,-34 0,-18 15,-33 33,-33l1565 0c18,0 33,15 33,33 0,19 -15,34 -33,34z"/>
   <path class="fil2" d="M12830 7228l-1565 0c-18,0 -33,-15 -33,-33 0,-19 15,-34 33,-34l1565 0c18,0 33,15 33,34 0,18 -15,33 -33,33z"/>
  </g>
 </g>
</svg>
